<?xml version="1.0" encoding="utf-8"?>
<svg version="1.1" id="Layer_1" xmlns="http://www.w3.org/2000/svg" xmlns:xlink="http://www.w3.org/1999/xlink" x="0px" y="0px"
	 viewBox="0 0 392 305" width="140" height="120" style="enable-background:new 0 0 392 305;" xml:space="preserve">
<style type="text/css">
	.st0{fill-rule:evenodd;clip-rule:evenodd;fill:#ABB2BA;}
	.st1{fill-rule:evenodd;clip-rule:evenodd;fill:#506572;}
	.st2{fill-rule:evenodd;clip-rule:evenodd;fill:#959BA5;}
	.st3{fill:#EFEFEF;}
	.st4{fill-rule:evenodd;clip-rule:evenodd;fill:#EFEFEF;}
	.st5{fill:#C5C1BE;}
	.st6{filter:url(#Adobe_OpacityMaskFilter);}
	.st7{fill-rule:evenodd;clip-rule:evenodd;fill:#FFFFFF;}
	.st8{mask:url(#mask-2_1_);fill-rule:evenodd;clip-rule:evenodd;fill:#FFFFFF;}
	.st9{filter:url(#Adobe_OpacityMaskFilter_1_);}
	.st10{mask:url(#mask-4_1_);fill-rule:evenodd;clip-rule:evenodd;fill:#005B82;}
	.st11{filter:url(#Adobe_OpacityMaskFilter_2_);}
	.st12{mask:url(#mask-6_1_);fill-rule:evenodd;clip-rule:evenodd;fill:#FFFFFF;}
	.st13{filter:url(#Adobe_OpacityMaskFilter_3_);}
	.st14{mask:url(#mask-10_1_);fill-rule:evenodd;clip-rule:evenodd;fill:#FFFFFF;}
	.st15{filter:url(#Adobe_OpacityMaskFilter_4_);}
	.st16{mask:url(#mask-12_1_);fill-rule:evenodd;clip-rule:evenodd;fill:#005B82;}
</style>
<title>Aktivitetsplan</title>
<desc>Created with Sketch.</desc>
<g id="Ikon-Aktivitetsplan">
	<g id="Aktivitetsplan" transform="translate(-2.000000, -3.000000)">
		<g>
			<g>
				<g id="Group">
					<path id="Fill-16" class="st0" d="M393.3,221.6v33.1c0,7-5.6,12.6-12.6,12.6H14.6c-6.9,0-12.6-5.6-12.6-12.6v-33.1H393.3z"/>
					<path id="Fill-17" class="st1" d="M2.1,221.6V15.8c0-7,5.6-12.6,12.6-12.6h366.1c6.9,0,12.6,5.6,12.6,12.6v205.8H2.1z"/>
					<polygon id="Fill-19" class="st0" points="151.8,301.5 243.6,301.5 243.6,267.3 151.8,267.3 					"/>
					<polygon id="Fill-20" class="st0" points="116.5,307.8 278.9,307.8 278.9,296.7 116.5,296.7 					"/>
					<path id="Fill-21" class="st2" d="M200.7,247.4c0,1.6-1.3,3-3,3s-3-1.3-3-3c0-1.6,1.3-3,3-3S200.7,245.8,200.7,247.4"/>
				</g>
				<rect id="Rectangle" x="14.3" y="43.2" class="st3" width="365.3" height="165.2"/>
				<path id="Fill-18" class="st4" d="M14.3,45.2V22.9c0-3.6,2.9-6.4,6.4-6.4h352.5c3.5,0,6.4,2.9,6.4,6.4v22.3H14.3z"/>
			</g>
		</g>
		<g transform="translate(95.000000, 57.000000)">
			<g id="Group-48" transform="translate(0.000000, 58.000000)">
				<path class="st5" d="M-54.2-61.9h93.3c2.6,0,4.7,1.9,4.7,4.3V46.1c0,2.4-2.1,4.3-4.7,4.3h-93.3c-2.6,0-4.7-1.9-4.7-4.3V-57.6
					C-58.9-60-56.8-61.9-54.2-61.9z"/>
				<path id="Rectangle-Copy" class="st5" d="M56-61.9h93.3c2.6,0,4.7,2.1,4.7,4.7v9.4c0,2.6-2.1,4.7-4.7,4.7H56
					c-2.6,0-4.7-2.1-4.7-4.7v-9.4C51.3-59.8,53.4-61.9,56-61.9z"/>
				<path id="Rectangle-Copy-2" class="st5" d="M164.4-61.9h93.3c2.6,0,4.7,2.1,4.7,4.7v69.6c0,2.6-2.1,4.7-4.7,4.7h-93.3
					c-2.6,0-4.7-2.1-4.7-4.7v-69.6C159.7-59.8,161.8-61.9,164.4-61.9z"/>
			</g>
			<g id="Group-60" transform="translate(1.000000, 69.000000)">
				<g id="Clip-59">
				</g>
				<defs>
					<filter id="Adobe_OpacityMaskFilter" filterUnits="userSpaceOnUse" x="-67.1" y="-63.6" width="116.3" height="62.6">
						<feColorMatrix  type="matrix" values="1 0 0 0 0  0 1 0 0 0  0 0 1 0 0  0 0 0 1 0"/>
					</filter>
				</defs>
				<mask maskUnits="userSpaceOnUse" x="-67.1" y="-63.6" width="116.3" height="62.6" id="mask-2_1_">
					<g class="st6">
						<path id="path-1_1_" class="st7" d="M-54.1-54.2c-2.1,0-3.7,1.7-3.7,3.8v36.2c0,2.1,1.7,3.8,3.7,3.8h90.2
							c2.1,0,3.7-1.7,3.7-3.8v-36.2c0-2.1-1.7-3.8-3.7-3.8H-54.1z"/>
					</g>
				</mask>
				<polygon id="Fill-58" class="st8" points="-67.1,-1 49.2,-1 49.2,-63.6 -67.1,-63.6 				"/>
			</g>
			<g id="Group-63" transform="translate(5.000000, 88.000000)">
				<g id="Clip-62">
				</g>
				<defs>
					<filter id="Adobe_OpacityMaskFilter_1_" filterUnits="userSpaceOnUse" x="-64.6" y="-52.9" width="58.3" height="26.6">
						<feColorMatrix  type="matrix" values="1 0 0 0 0  0 1 0 0 0  0 0 1 0 0  0 0 0 1 0"/>
					</filter>
				</defs>
				<mask maskUnits="userSpaceOnUse" x="-64.6" y="-52.9" width="58.3" height="26.6" id="mask-4_1_">
					<g class="st9">
						<path id="path-3_1_" class="st7" d="M-51.2-43.8c-2.3,0-4.2,1.9-4.2,4.2c0,2.3,1.9,4.2,4.2,4.2h31.5c2.3,0,4.2-1.9,4.2-4.2
							c0-2.3-1.9-4.2-4.2-4.2H-51.2z"/>
					</g>
				</mask>
				<polygon id="Fill-61" class="st10" points="-64.6,-26.3 -6.3,-26.3 -6.3,-52.9 -64.6,-52.9 				"/>
			</g>
			<g id="Group-66" transform="translate(1.000000, 99.000000)">
				<g id="Clip-65">
				</g>
				<defs>
					<filter id="Adobe_OpacityMaskFilter_2_" filterUnits="userSpaceOnUse" x="-67.1" y="-43.7" width="116.3" height="53">
						<feColorMatrix  type="matrix" values="1 0 0 0 0  0 1 0 0 0  0 0 1 0 0  0 0 0 1 0"/>
					</filter>
				</defs>
				<mask maskUnits="userSpaceOnUse" x="-67.1" y="-43.7" width="116.3" height="53" id="mask-6_1_">
					<g class="st11">
						<path id="path-5_1_" class="st7" d="M-54.1-35.8c-2.1,0-3.7,1.4-3.7,3.2v30.7c0,1.8,1.7,3.2,3.7,3.2h90.2
							c2.1,0,3.7-1.4,3.7-3.2v-30.7c0-1.8-1.7-3.2-3.7-3.2H-54.1z"/>
					</g>
				</mask>
				<polygon id="Fill-64" class="st12" points="-67.1,9.3 49.2,9.3 49.2,-43.7 -67.1,-43.7 				"/>
			</g>
			<g id="Group-5" transform="translate(141.000000, 69.000000)">
				<g id="Group-72">
					<g id="Clip-71">
					</g>
					<defs>
						<filter id="Adobe_OpacityMaskFilter_3_" filterUnits="userSpaceOnUse" x="12.3" y="-64.1" width="116.3" height="68.2">
							<feColorMatrix  type="matrix" values="1 0 0 0 0  0 1 0 0 0  0 0 1 0 0  0 0 0 1 0"/>
						</filter>
					</defs>
					<mask maskUnits="userSpaceOnUse" x="12.3" y="-64.1" width="116.3" height="68.2" id="mask-10_1_">
						<g class="st13">
							<path id="path-9_1_" class="st7" d="M25.3-54.9c-2.1,0-3.7,1.7-3.7,3.7v42.3c0,2,1.7,3.7,3.7,3.7h90.2c2.1,0,3.7-1.7,3.7-3.7
								v-42.3c0-2-1.7-3.7-3.7-3.7H25.3z"/>
						</g>
					</mask>
					<polygon id="Fill-70" class="st14" points="12.3,4 128.6,4 128.6,-64.1 12.3,-64.1 					"/>
				</g>
				<g id="Group-75" transform="translate(3.566038, 23.571429)">
					<g id="Clip-74">
					</g>
					<defs>
						<filter id="Adobe_OpacityMaskFilter_4_" filterUnits="userSpaceOnUse" x="14.5" y="-51.4" width="59" height="26.9">
							<feColorMatrix  type="matrix" values="1 0 0 0 0  0 1 0 0 0  0 0 1 0 0  0 0 0 1 0"/>
						</filter>
					</defs>
					<mask maskUnits="userSpaceOnUse" x="14.5" y="-51.4" width="59" height="26.9" id="mask-12_1_">
						<g class="st15">
							<path id="path-11_1_" class="st7" d="M28.1-42.2c-2.3,0-4.2,1.9-4.2,4.2c0,2.3,1.9,4.2,4.2,4.2h31.9c2.4,0,4.2-1.9,4.2-4.2
								c0-2.3-1.9-4.2-4.2-4.2H28.1z"/>
						</g>
					</mask>
					<polygon id="Fill-73" class="st16" points="14.5,-24.6 73.5,-24.6 73.5,-51.4 14.5,-51.4 					"/>
				</g>
			</g>
		</g>
	</g>
</g>
</svg>
