<svg xmlns="http://www.w3.org/2000/svg" xmlns:xlink="http://www.w3.org/1999/xlink" width="207" height="188" viewBox="0 0 207 188">
<style type="text/css">
	.st0{fill:#99BDCD;}
	.st1{fill:#E4E4DB;}
	.st2{fill:#BBBCBC;}
	.st3{fill:#8F9395;}
	.st4{fill:#C5232A;}
	.st5{fill:#E9D8BD;}
	.st6{fill:#EEC85D;}
	.st7{fill:#E2B954;}
	.st8{fill:#5C5B5A;}
</style>
<g>
	<circle class="st0" cx="94" cy="94" r="94"/>
	<g>
		<path class="st1" d="M46.2,48.3v95.5c0,3.4,2.8,6.2,6.2,6.2H135c3.4,0,6.2-2.8,6.2-6.2V34.2c0-3.4-2.8-6.2-6.2-6.2H67.7L46.2,48.3
			z"/>
		<path class="st2" d="M67.7,28v14.1c0,3.4-2.8,6.2-6.2,6.2H46.2L67.7,28z"/>
		<rect x="64.3" y="75.1" class="st3" width="58.9" height="5.1"/>
		<rect x="64.3" y="86.4" class="st3" width="58.9" height="5.1"/>
		<rect x="64.3" y="97.7" class="st3" width="58.6" height="5.1"/>
		<rect x="64.3" y="108.9" class="st3" width="58.6" height="5.1"/>
		<rect x="64.3" y="120.2" class="st3" width="58.6" height="5.1"/>
		<rect x="64.3" y="63.8" class="st3" width="58.9" height="5.1"/>
	</g>
	<g>
		<path class="st4" d="M190.4,65.7L177.3,52c-2.2-2.3-2.2-5.9,0-8.2l6.4-6.7c2.2-2.3,5.7-2.3,7.8,0l13.1,13.7c2.2,2.3,2.2,5.9,0,8.2
			l-6.4,6.7C196.1,68,192.6,68,190.4,65.7"/>
		<path class="st5" d="M135.6,87.5l-14.2,36.8l35.2-14.9l-8-14.4L135.6,87.5z"/>
		<path class="st6" d="M183.4,52l-7-7.3l-38.8,40.6l7,7.3L183.4,52z"/>
		<path class="st7" d="M151.6,99.9l38.8-40.6l-7-7.3l-38.8,40.6L151.6,99.9z"/>
		<path class="st6" d="M190.4,59.3l-38.8,40.6l7,7.3l38.8-40.6L190.4,59.3z M136.3,91.4c1.3,1.4,3.9,0.6,5.6,2.4
			c0.3,0.3,0.5,0.6,0.6,0.9l2.1-2.2l-7-7.3l-1.9,2C135.7,87.3,135,90.1,136.3,91.4"/>
		<path class="st7" d="M142.6,94.8c0.7,1.7-0.2,3.6,1.7,5.5c1.9,1.9,3.7,1,5.3,1.8l2.1-2.2l-7-7.3L142.6,94.8L142.6,94.8z"/>
		<path class="st6" d="M149.6,102.1c0.3,0.2,0.6,0.4,0.9,0.6c1.8,1.8,1,4.5,2.3,5.9c1.3,1.4,3.9,0.6,3.9,0.6l1.9-2l-7-7.3
			L149.6,102.1L149.6,102.1z"/>
		<path class="st8" d="M121.3,124.3l12.4-5.3l-7.4-7.8L121.3,124.3z M197.4,66.6l-20.9-21.9l2.8-3l20.9,21.9L197.4,66.6z"/>
	</g>
</g>
</svg>
