<svg xmlns="http://www.w3.org/2000/svg" xmlns:xlink="http://www.w3.org/1999/xlink" width="392" height="298" viewBox="0 0 392 298">
    <defs>
        <path id="a" d="M0 18.817v88.473c0 3.153 2.502 5.71 5.589 5.71h74.826c3.083 0 5.585-2.557 5.585-5.71V5.71C86 2.557 83.498 0 80.415 0H19.449L0 18.817z"/>
        <path id="c" d="M9.945 14.39l3.079 2.745 7.513-3.227 7.023-.284-3.23-4.866-4.01-2.217v-1.51l-4.418-3.28H9.945V14.39z"/>
        <path id="e" d="M.705 10.215l4.044 3.607 7.514-3.228 7.023-.283-3.23-4.867-4.01-2.216v-1.51L10.702.72H.705v9.495z"/>
        <path id="g" d="M1.394 7.697l5.01 4.468 7.513-3.228 7.024-.283-3.23-4.866L13.7 1.57v-.224H1.394v6.35z"/>
        <circle id="i" cx="139" cy="139" r="139"/>
        <path id="k" d="M.363 93.88C.123 92.59 0 91.263 0 89.897 0 40.249 36.481 0 81.493 0c45.003 0 81.487 40.249 81.487 89.896 0 .33-.007.658-.021.984l.212-.004s.093 95.691-81.7 95.691C-.318 186.567 0 219.502 0 219.502V93.888l.363-.006z"/>
        <path id="m" d="M125.353.582C144.783 10.132 175 36.006 175 59.998v79.285H0V59.998c0-23.149 27.648-48.049 46.856-58.35-.973.595-1.486.953-1.486.953 3.31 5.477 12.206 29.79 40.11 29.79 27.909 0 40.909-26.102 40.909-31.205a86.446 86.446 0 0 0-1.036-.604z"/>
    </defs>
    <g fill="none" fill-rule="evenodd">
        <g transform="rotate(-10 1209.742 -1483.843)">
            <mask id="b" fill="#fff">
                <use xlink:href="#a"/>
            </mask>
        </g>
        <path fill="#C9C9C9" d="M295.373 184.119l2.277 12.915c.548 3.11-1.493 6.068-4.561 6.609l-13.774 2.428 16.058-21.952z"/>
        <g fill="#8F9395">
            <path d="M299.356 227.671l53.255-9.39-.826-4.687-53.256 9.39zM301.044 237.245l53.255-9.39-.827-4.69-53.255 9.391zM303.013 248.411l53.06-9.356-.827-4.687-53.06 9.356zM304.7 257.983l53.06-9.355-.826-4.688-53.06 9.356zM306.67 269.151l53.06-9.356-.827-4.687-53.06 9.356zM297.387 216.503l53.255-9.39-.827-4.687-53.255 9.39z"/>
        </g>
        <g transform="rotate(-10 1484.369 -1765.18)">
            <path fill="#C4252A" d="M53.58 25.367l1.07-2.533a2.34 2.34 0 0 1 3.068-1.244l.338.142a2.344 2.344 0 0 1 1.243 3.072l-1.07 2.533a2.34 2.34 0 0 1-3.069 1.245l-.338-.143a2.344 2.344 0 0 1-1.242-3.072"/>
            <path fill="#E9D8BD" d="M10.222 1.459L.7 1.46l6.626 6.848 2.45-3.16z"/>
            <mask id="d" fill="#fff">
                <use xlink:href="#c"/>
            </mask>
            <path fill="#EEC65C" d="M55.606 23.386l.965-2.283L10.91 1.751l-.965 2.283z" mask="url(#d)"/>
            <g mask="url(#d)">
                <g transform="translate(8.274 3.314)">
                    <mask id="f" fill="#fff">
                        <use xlink:href="#e"/>
                    </mask>
                    <path fill="#E3B854" d="M.705 3.003l45.662 19.352.965-2.283L1.672.72z" mask="url(#f)"/>
                </g>
            </g>
            <g mask="url(#d)">
                <g transform="translate(6.62 4.97)">
                    <mask id="h" fill="#fff">
                        <use xlink:href="#g"/>
                    </mask>
                    <path fill="#EEC65C" d="M48.022 20.699L2.359 1.347 1.394 3.63l45.661 19.352z" mask="url(#h)"/>
                </g>
            </g>
            <path fill="#EEC65C" d="M9.419 1.999c-.183.43.241.95-.002 1.523a.703.703 0 0 1-.15.225l.678.287.965-2.284-.631-.268s-.678.086-.86.517" mask="url(#d)"/>
            <path fill="#E3B854" d="M9.268 3.747c-.3.313-.81.285-1.069.893-.256.608.12.955.104 1.39l.676.287.966-2.283-.677-.287z" mask="url(#d)"/>
            <path fill="#EEC65C" d="M8.303 6.03a.767.767 0 0 1-.057.264c-.244.573-.91.631-1.091 1.06-.184.43.227.978.227.978l.632.268.965-2.283-.676-.287z" mask="url(#d)"/>
            <path fill="#5D5D5B" d="M.7 1.461l2.345 2.422 1.024-2.422z" mask="url(#d)"/>
            <g fill="#5D5D5B" mask="url(#d)">
                <path d="M53.675 27.952l2.896-6.85.93.395-2.896 6.85z"/>
            </g>
        </g>
        <path fill="#C4252A" d="M386.242 246.619l.614-2.68a2.34 2.34 0 0 1 2.806-1.76l.357.083a2.344 2.344 0 0 1 1.757 2.809l-.614 2.68a2.34 2.34 0 0 1-2.806 1.759l-.357-.082a2.344 2.344 0 0 1-1.757-2.81"/>
        <path fill="#E9D8BD" d="M339.391 230.602l-9.377 1.656 7.714 5.593 1.865-3.538z"/>
        <path fill="#EEC65C" d="M387.894 244.316l.553-2.416-48.328-11.13-.553 2.417z"/>
        <path fill="#E3B854" d="M339.01 235.603l48.33 11.128.554-2.416-48.328-11.129z"/>
        <path fill="#EEC65C" d="M387.34 246.732l-48.33-11.13-.553 2.417 48.328 11.13zM338.694 231.274c-.105.456.403.893.263 1.5a.703.703 0 0 1-.108.248l.716.164.554-2.416-.668-.155s-.653.203-.757.659"/>
        <path fill="#E3B854" d="M338.85 233.022c-.243.36-.75.421-.898 1.065-.147.643.283.92.344 1.35l.714.166.556-2.416-.717-.165z"/>
        <path fill="#EEC65C" d="M338.296 235.438a.767.767 0 0 1-.012.27c-.14.606-.786.779-.89 1.233-.106.456.394.923.394.923l.669.155.553-2.416-.714-.165z"/>
        <path fill="#5D5D5B" d="M330.014 232.258l2.73 1.979.588-2.564zM386.785 249.148l1.662-7.248.985.226-1.663 7.249z"/>
        <g fill="#D8D8D8">
            <path fill="#84748A" d="M66.504.88l-29.74 7.968-24.388 6.535L.494 18.567l3.185 11.889 22.49 83.93 3.186 11.892 11.882-3.184 24.389-6.535 29.739-7.969c6.563-1.758 10.458-8.508 8.698-15.075l-22.49-83.93C79.816 3.018 73.068-.88 66.504.88"/>
            <path fill="#38363A" d="M81.634 115.082l4.535-1.215L56.11 1.689l-4.535 1.215z"/>
            <path fill="#CE2128" d="M51.515 130.643l-3-1.499-1.848 2.798-2.306-8.605 4.848-1.299z"/>
        </g>
        <g transform="translate(62 15.501)">
            <mask id="j" fill="#fff">
                <use xlink:href="#i"/>
            </mask>
            <g mask="url(#j)">
                <path fill="#99BDCD" d="M-22.24 278h350V0h-350z"/>
            </g>
            <g mask="url(#j)">
                <g transform="translate(57.748 33.781)">
                    <mask id="l" fill="#fff">
                        <use xlink:href="#k"/>
                    </mask>
                    <g fill="#F6B873" mask="url(#l)">
                        <path d="M-29.118-3.237h223v256h-223z"/>
                    </g>
                </g>
                <path fill="#E7E5E2" d="M96.668 207.798c3.31 5.295 12.603 98.327 40.499 98.327 27.902 0 40.498-94.761 40.498-99.694-42.718-24.489-80.997 1.367-80.997 1.367z"/>
                <g transform="translate(51.31 205.608)">
                    <mask id="n" fill="#fff">
                        <use xlink:href="#m"/>
                    </mask>
                    <use fill="#D8A25D" xlink:href="#m"/>
                    <g mask="url(#n)">
                        <path fill="#0C5472" d="M-106.944 233.304h408v-324h-408z"/>
                    </g>
                </g>
                <path fill="#E7E5E2" d="M72.498 123.009s-.34 1.93-.78 1.612a5.255 5.255 0 0 0-1.964-.4c-3.005-.002-5.448 2.522-5.454 5.641l-.03 21.582c-.007 3.119 2.425 5.65 5.435 5.656a5.271 5.271 0 0 0 3.21-1.104c7.277 34.752 33.211 59.294 64.135 59.348 30.924.05 56.94-24.41 64.316-59.137.9.689 2.004 1.11 3.21 1.113 3.008.003 5.452-2.522 5.455-5.637l.033-21.585c.003-3.119-2.428-5.65-5.436-5.656-.694 0-1.355.148-1.964.393-69.743 8.272-94.07-39.176-96.126-39.179 0 0-29.168 27.323-34.04 37.353z"/>
                <g>
                    <path fill="#635E59" d="M113.88 143.356c-4.681.354-5.992-6.578-4.581-11.105.265-.858 1.815-4.765 4.558-4.765 2.74 0 3.95 2.135 4.119 2.503 2.015 4.413 1.025 12.977-4.096 13.367M166.128 143.356c4.682.354 5.992-6.578 4.581-11.105-.265-.858-1.815-4.765-4.558-4.765-2.74 0-3.95 2.135-4.119 2.503-2.015 4.413-1.025 12.977 4.096 13.367"/>
                    <path fill="#D1BFA3" fill-rule="nonzero" d="M141.489 151.326c2.753-.426 4.633-.159 5.307.671 2.541 3.139 1.728 6.458-2.632 9.184-2.293 1.432-5.449 1.936-7.12 1.194a1.615 1.615 0 0 0-2.134.828c-.361.82.008 1.78.825 2.144 2.761 1.227 7.008.549 10.137-1.407 5.926-3.703 7.283-9.241 3.432-13.995-1.629-2.008-4.513-2.418-8.308-1.831a1.624 1.624 0 0 0-1.352 1.853 1.619 1.619 0 0 0 1.845 1.359z"/>
                    <path fill="#D19E9C" fill-rule="nonzero" d="M159.929 175.02c-.146.336-.481.979-1.019 1.826a23.025 23.025 0 0 1-3.442 4.21c-4.137 3.993-9.522 6.302-16.376 6.09-6.683-.205-12.044-2.478-16.248-6.144a24.187 24.187 0 0 1-3.835-4.225c-.6-.847-.976-1.49-1.14-1.824a1.614 1.614 0 0 0-2.165-.74 1.628 1.628 0 0 0-.738 2.175c.238.485.7 1.277 1.407 2.274a27.415 27.415 0 0 0 4.35 4.794c4.745 4.138 10.81 6.71 18.27 6.94 7.769.239 13.98-2.424 18.717-6.997a26.252 26.252 0 0 0 3.928-4.805c.633-.998 1.045-1.79 1.256-2.273a1.628 1.628 0 0 0-.836-2.14 1.615 1.615 0 0 0-2.13.84z"/>
                </g>
            </g>
        </g>
        <g>
            <path fill="#FFD399" d="M345.926 56.935l1.703 1.43c4.317 3.621 5.03 9.878 1.592 13.975l-6.609 7.876c-3.437 4.096-9.723 4.481-14.04.859l-1.702-1.429c-10.594 3.956-23.28 2.042-32.929-6.054-13.975-11.728-16.282-31.985-5.151-45.25 11.128-13.263 31.48-14.51 45.456-2.783 9.648 8.096 13.735 20.258 11.68 31.376z"/>
            <path fill="#5A5C5D" d="M361.565 73.252L345.6 92.278c-.854 1.018-2.414 1.113-3.487.213l-2.06-1.728c-1.073-.9-1.25-2.453-.395-3.471l15.965-19.027c.853-1.016 2.414-1.113 3.487-.213l2.06 1.728c1.073.9 1.248 2.455.395 3.472M368.84 79.356l-15.965 19.026c-.855 1.018-2.415 1.114-3.487.213l-2.062-1.73c-1.071-.898-1.25-2.452-.395-3.47l15.965-19.027c.853-1.016 2.416-1.112 3.487-.213l2.061 1.73c1.073.9 1.249 2.454.396 3.47M365.374 86.189l-6.319 7.53c-.952 1.135.137 2.924 1.622 2.647 2.073-.387 3.999-1.437 5.432-3.145 1.434-1.709 2.132-3.786 2.153-5.894.017-1.512-1.936-2.274-2.888-1.138"/>
        </g>
        <g>
            <path fill="#C52D35" d="M32.165 266.297c-2.171-2.29-2.28-6.128-.247-8.572L53.632 231.6c2.033-2.443 5.437-2.57 7.608-.28 2.169 2.29 2.28 6.125.248 8.569l-21.715 26.125c-2.033 2.443-5.436 2.573-7.608.283"/>
            <path fill="#303339" d="M97.119 191.161c-9.09-9.31-23.412-8.795-31.922 1.146-8.514 9.937-8.045 25.6 1.044 34.91 9.093 9.311 23.415 8.799 31.929-1.142 8.51-9.94 8.039-25.603-1.051-34.914M63.742 230.14c-10.565-10.82-11.11-29.02-1.22-40.572 9.894-11.548 26.536-12.144 37.099-1.327 10.562 10.82 11.11 29.02 1.217 40.571-9.891 11.552-26.533 12.145-37.096 1.328"/>
            <path fill="#303339" d="M57.066 236.353c-1.575-1.576-2.288-3.496-.812-5.184l4.928-5.627c1.476-1.688 3.945-1.772 5.523-.197 1.572 1.576 1.654 4.22.178 5.905l-4.928 5.63c-1.476 1.689-3.314 1.049-4.889-.527"/>
            <path fill="#DA4D57" d="M56.227 235.147L35.94 259.153c-.673.796-.634 2.038.08 2.783.718.746 1.839.703 2.511-.089l19.414-22.98c-1.177-1.269-1.677-2.604-1.718-3.72"/>
        </g>
    </g>
</svg>
