<svg width="109" height="109" xmlns="http://www.w3.org/2000/svg" xmlns:xlink="http://www.w3.org/1999/xlink"><defs><circle id="a" cx="54.5" cy="54.5" r="54.5"/></defs><g fill="none" fill-rule="evenodd"><mask id="b" fill="#fff"><use xlink:href="#a"/></mask><g mask="url(#b)" fill="#99BDCD"><path d="M0 109h109V0H0z"/></g><g><path d="M75.413 26.77h-42.71c-1.763 0-3.19 1.442-3.19 3.223v54.432a3.235 3.235 0 0 0 1.164 2.485 3.154 3.154 0 0 0 2.025.738h42.711c1.763 0 3.191-1.444 3.191-3.223V29.993c0-1.781-1.428-3.223-3.19-3.223" fill="#515658"/><path d="M33.464 38.668v41.879c0 1.496 1.199 2.704 2.676 2.704h35.836c1.478 0 2.677-1.208 2.677-2.704V32.464c0-1.494-1.2-2.703-2.677-2.703H42.78l-9.316 8.907z" fill="#FFF"/><path d="M42.78 29.761v6.202c0 1.494-1.198 2.705-2.676 2.705h-6.64l9.316-8.907z" fill="#C0C0BE"/><path d="M54.06 28.283c-.571 0-1.033-.464-1.033-1.04 0-.577.462-1.044 1.032-1.044.569 0 1.032.467 1.032 1.043 0 .577-.463 1.041-1.032 1.041m6.376-4.261h-3.842v-.717c0-1.414-1.135-2.559-2.534-2.559a2.546 2.546 0 0 0-2.535 2.559v.717h-3.842c-1.893 0-3.43 1.552-3.43 3.464v4.167h19.613v-4.167c0-1.912-1.536-3.464-3.43-3.464" fill="#2F3237"/><g fill="#515658"><path d="M58.353 72.577v-16.61H46.548v3.26h2.612v13.35h-2.612v3.261h14.416v-3.261zM53.757 53.185c3.065 0 5.552-2.541 5.552-5.675s-2.487-5.675-5.552-5.675c-3.066 0-5.552 2.541-5.552 5.675s2.486 5.675 5.552 5.675"/></g></g></g></svg>