<svg xmlns="http://www.w3.org/2000/svg" xmlns:xlink="http://www.w3.org/1999/xlink" width="116" height="114" viewBox="0 0 116 114">
    <defs>
        <path id="a" d="M0 8.16v38.364A2.473 2.473 0 0 0 2.47 49h33.062A2.472 2.472 0 0 0 38 46.524V2.476A2.472 2.472 0 0 0 35.532 0H8.594L0 8.16z"/>
    </defs>
    <g fill="none" fill-rule="evenodd" transform="translate(0 -6)">
        <circle cx="57" cy="63" r="57" fill="#CCDEE6"/>
        <g transform="rotate(-10 382.04 -340.896)">
            <mask id="b" fill="#fff">
                <use xlink:href="#a"/>
            </mask>
        </g>
        <path fill="#C9C9C9" d="M73.54 59.656l.987 5.6a2.485 2.485 0 0 1-2.023 2.874l-6.086 1.073 7.122-9.547z"/>
        <g fill="#8F9395">
            <path d="M75.175 78.515l23.3-4.109-.358-2.025-23.299 4.108zM75.905 82.652l23.299-4.109-.357-2.026-23.3 4.109zM76.756 87.477l23.213-4.094-.357-2.025-23.214 4.093zM77.485 91.613l23.214-4.093-.358-2.026-23.213 4.093zM78.336 96.438l23.213-4.093-.357-2.025-23.213 4.093zM74.324 73.69l23.3-4.11-.357-2.024-23.3 4.108z"/>
        </g>
        <path fill="#C4252A" d="M113.317 86.996l.27-1.173a1.027 1.027 0 0 1 1.23-.77l.157.036c.553.126.898.677.77 1.228l-.27 1.173a1.027 1.027 0 0 1-1.23.77l-.157-.035a1.024 1.024 0 0 1-.77-1.23"/>
        <path fill="#E9D8BD" d="M92.773 79.997l-4.113.726 3.382 2.445.819-1.548z"/>
        <path fill="#EEC65C" d="M114.042 85.988l.243-1.058-21.193-4.86-.243 1.057z"/>
        <path fill="#E3B854" d="M92.605 82.184l21.193 4.86.244-1.056-21.193-4.86z"/>
        <path fill="#EEC65C" d="M113.798 87.045l-21.193-4.86-.243 1.057 21.192 4.86zM92.467 80.29c-.046.2.176.391.115.657a.308.308 0 0 1-.047.108l.314.072.243-1.057-.293-.068s-.286.09-.332.289"/>
        <path fill="#E3B854" d="M92.535 81.055c-.106.158-.329.185-.394.467-.065.281.124.402.15.59l.314.073.244-1.058-.314-.072z"/>
        <path fill="#EEC65C" d="M92.292 82.112a.335.335 0 0 1-.005.118c-.062.266-.346.342-.39.54-.048.2.171.404.171.404l.294.068.243-1.057-.313-.073z"/>
        <path fill="#5D5D5B" d="M88.66 80.723l1.197.865.259-1.122zM113.554 88.102l.73-3.172.433.1-.73 3.171z"/>
        <g fill="#D8D8D8">
            <path fill="#84748A" d="M30.195 8.346l-13.056 3.498-10.707 2.869-5.217 1.398 1.387 5.177 9.794 36.55 1.388 5.18L19 61.618l10.707-2.869 13.056-3.498c2.882-.772 4.597-3.716 3.83-6.576L36.8 12.126c-.766-2.86-3.724-4.552-6.605-3.78"/>
            <path fill="#38363A" d="M36.733 58.093l1.99-.534L25.635 8.708l-1.99.533z"/>
            <path fill="#CE2128" d="M23.503 64.9l-1.315-.65-.813 1.22-1.004-3.747 2.128-.57z"/>
        </g>
        <path fill="#FFD399" d="M95.126 23.338l.745.625c1.888 1.585 2.197 4.326.689 6.123l-2.898 3.454c-1.508 1.797-4.261 1.969-6.15.384l-.745-.625c-4.641 1.739-10.196.907-14.417-2.635-6.115-5.13-7.114-14.005-2.232-19.823 4.88-5.817 13.795-6.374 19.909-1.244 4.221 3.542 6.005 8.869 5.099 13.741z"/>
        <path fill="#5A5C5D" d="M101.966 30.479l-7.002 8.345c-.375.446-1.058.489-1.528.095l-.9-.756c-.47-.394-.547-1.074-.172-1.52l7.002-8.346c.374-.446 1.058-.489 1.527-.095l.902.756c.469.394.545 1.075.17 1.52M105.148 33.15l-7.002 8.344c-.374.447-1.058.49-1.527.096l-.902-.757c-.468-.393-.546-1.074-.171-1.52l7.002-8.346c.374-.446 1.059-.488 1.527-.095l.902.757c.47.393.546 1.074.171 1.52M103.627 36.145l-2.771 3.303c-.418.498.058 1.28.709 1.158a4.06 4.06 0 0 0 2.38-1.38c.629-.75.936-1.66.946-2.584.008-.662-.846-.995-1.264-.497"/>
        <g>
            <path fill="#C52D35" d="M6.95 110.536c-.953-1.002-1-2.681-.109-3.75l9.524-11.43c.891-1.07 2.384-1.124 3.337-.122.95 1.001 1 2.68.108 3.748l-9.524 11.43c-.891 1.069-2.384 1.126-3.336.124"/>
            <path fill="#303339" d="M35.438 77.664c-3.987-4.074-10.268-3.848-14 .501-3.735 4.348-3.53 11.2.457 15.273 3.988 4.074 10.27 3.85 14.004-.5 3.732-4.348 3.526-11.2-.461-15.274M20.799 94.717c-4.634-4.734-4.873-12.697-.535-17.75 4.34-5.053 11.639-5.314 16.271-.581 4.633 4.733 4.874 12.696.534 17.75-4.338 5.054-11.637 5.313-16.27.58"/>
            <path fill="#303339" d="M17.871 97.435c-.69-.69-1.004-1.53-.356-2.268l2.161-2.462a1.639 1.639 0 0 1 2.423-.086c.69.69.725 1.847.078 2.584l-2.162 2.463c-.647.739-1.453.459-2.144-.23"/>
            <path fill="#DA4D57" d="M17.503 96.907L8.605 107.41a.927.927 0 0 0 .035 1.218.728.728 0 0 0 1.102-.04l8.515-10.053c-.517-.555-.736-1.14-.754-1.628"/>
        </g>
    </g>
</svg>
