<svg xmlns="http://www.w3.org/2000/svg" xmlns:xlink="http://www.w3.org/1999/xlink" width="392" height="298" viewBox="0 0 392 298" role="img">
    <style type="text/css">
        .st0{fill:#E4E4DB;}
        .st1{fill:#BBBCBC;}
        .st2{fill:#8F9395;}
        .st3{fill:#C4252A;}
        .st4{fill:#E9D8BD;}
        .st5{filter:url(#Adobe_OpacityMaskFilter);}
        .st6{fill:#FFFFFF;}
        .st7{mask:url(#d_1_);fill:#EEC65C;}
        .st8{filter:url(#Adobe_OpacityMaskFilter_1_);}
        .st9{mask:url(#d_2_);}
        .st10{filter:url(#Adobe_OpacityMaskFilter_2_);}
        .st11{mask:url(#f_1_);fill:#E3B854;}
        .st12{filter:url(#Adobe_OpacityMaskFilter_3_);}
        .st13{mask:url(#d_3_);}
        .st14{filter:url(#Adobe_OpacityMaskFilter_4_);}
        .st15{mask:url(#h_1_);fill:#EEC65C;}
        .st16{filter:url(#Adobe_OpacityMaskFilter_5_);}
        .st17{mask:url(#d_4_);fill:#EEC65C;}
        .st18{filter:url(#Adobe_OpacityMaskFilter_6_);}
        .st19{mask:url(#d_5_);fill:#E3B854;}
        .st20{filter:url(#Adobe_OpacityMaskFilter_7_);}
        .st21{mask:url(#d_6_);fill:#EEC65C;}
        .st22{filter:url(#Adobe_OpacityMaskFilter_8_);}
        .st23{mask:url(#d_7_);fill:#5D5D5B;}
        .st24{filter:url(#Adobe_OpacityMaskFilter_9_);}
        .st25{mask:url(#d_8_);}
        .st26{fill:#5D5D5B;}
        .st27{fill:#EEC65C;}
        .st28{fill:#E3B854;}
        .st29{fill:#84748A;}
        .st30{fill:#38363A;}
        .st31{fill:#CE2128;}
        .st32{filter:url(#Adobe_OpacityMaskFilter_10_);}
        .st33{mask:url(#j_1_);}
        .st34{fill:#99BDCD;}
        .st35{filter:url(#Adobe_OpacityMaskFilter_11_);}
        .st36{mask:url(#j_2_);}
        .st37{filter:url(#Adobe_OpacityMaskFilter_12_);}
        .st38{mask:url(#l_1_);}
        .st39{fill:#F6B873;}
        .st40{fill:#E7E5E2;}
        .st41{fill:#D8A25D;}
        .st42{filter:url(#Adobe_OpacityMaskFilter_13_);}
        .st43{mask:url(#n_1_);}
        .st44{fill:#0C5472;}
        .st45{fill:#635E59;}
        .st46{fill:#D1BFA3;}
        .st47{fill:#D19E9C;}
        .st48{fill:#FFD399;}
        .st49{fill:#5A5C5D;}
        .st50{fill:#C52D35;}
        .st51{fill:#303339;}
        .st52{fill:#DA4D57;}
    </style>
    <g>
        <g>
            <path class="st0" d="M280.6,203.5l11.1,82.5c0.4,2.9,3.1,5,6,4.6L369,281c2.9-0.4,5-3.1,4.6-6l-12.7-94.7c-0.4-2.9-3.1-5-6-4.6
			l-58.1,7.8L280.6,203.5z"/>
            <path class="st1" d="M296.8,183.5l1.6,12.2c0.4,2.9-1.7,5.6-4.6,6l-13.2,1.8L296.8,183.5z"/>

            <rect x="299.3" y="221.1" transform="matrix(0.9911 -0.1332 0.1332 0.9911 -26.8555 45.2737)" class="st2" width="51.3" height="4.5"/>

            <rect x="300.6" y="230.9" transform="matrix(0.9911 -0.1332 0.1332 0.9911 -28.1398 45.5346)" class="st2" width="51.3" height="4.5"/>

            <rect x="302" y="240.6" transform="matrix(0.9911 -0.1332 0.1332 0.9911 -29.4267 45.7832)" class="st2" width="51.1" height="4.5"/>

            <rect x="303.3" y="250.3" transform="matrix(0.9911 -0.1332 0.1332 0.9911 -30.7111 46.044)" class="st2" width="51.1" height="4.5"/>

            <rect x="304.6" y="260.1" transform="matrix(0.9911 -0.1332 0.1332 0.9911 -31.9955 46.3049)" class="st2" width="51.1" height="4.5"/>

            <rect x="298" y="211.4" transform="matrix(0.9911 -0.1332 0.1332 0.9911 -25.5712 45.0129)" class="st2" width="51.3" height="4.5"/>
        </g>
        <g transform="rotate(-10 1484.369 -1765.18)">
            <path class="st3" d="M53.6,25.4l1.1-2.5c0.5-1.2,1.9-1.7,3.1-1.2c0,0,0,0,0,0l0.3,0.1c1.2,0.5,1.7,1.9,1.2,3.1l-1.1,2.5
			c-0.5,1.2-1.9,1.7-3.1,1.2c0,0,0,0,0,0l-0.3-0.1C53.6,27.9,53.1,26.6,53.6,25.4"/>
            <path class="st4" d="M10.2,1.5l-9.5,0l6.6,6.8l2.4-3.2L10.2,1.5z"/>
            <defs>
                <filter id="Adobe_OpacityMaskFilter" filterUnits="userSpaceOnUse" x="8" y="10.1" width="50.5" height="4.9">
                    <feColorMatrix  type="matrix" values="1 0 0 0 0  0 1 0 0 0  0 0 1 0 0  0 0 0 1 0"/>
                </filter>
            </defs>
            <mask maskUnits="userSpaceOnUse" x="8" y="10.1" width="50.5" height="4.9" id="d_1_">
                <g class="st5">
                    <path id="c_1_" class="st6" d="M9.9,14.4l3.1,2.7l7.5-3.2l7-0.3l-3.2-4.9l-4-2.2V5l-4.4-3.3l-6,0L9.9,14.4z"/>
                </g>
            </mask>
            <path class="st7" d="M55.6,23.4l1-2.3L10.9,1.8L9.9,4L55.6,23.4z"/>
            <defs>
                <filter id="Adobe_OpacityMaskFilter_1_" filterUnits="userSpaceOnUse" x="7" y="12.4" width="50.5" height="4.9">
                    <feColorMatrix  type="matrix" values="1 0 0 0 0  0 1 0 0 0  0 0 1 0 0  0 0 0 1 0"/>
                </filter>
            </defs>
            <mask maskUnits="userSpaceOnUse" x="7" y="12.4" width="50.5" height="4.9" id="d_2_">
                <g class="st8">
                    <path id="c_2_" class="st6" d="M9.9,14.4l3.1,2.7l7.5-3.2l7-0.3l-3.2-4.9l-4-2.2V5l-4.4-3.3l-6,0L9.9,14.4z"/>
                </g>
            </mask>
            <g class="st9">
                <g transform="translate(8.274 3.314)">
                    <defs>
                        <filter id="Adobe_OpacityMaskFilter_2_" filterUnits="userSpaceOnUse" x="-1.2" y="9.1" width="50.5" height="4.9">
                            <feColorMatrix  type="matrix" values="1 0 0 0 0  0 1 0 0 0  0 0 1 0 0  0 0 0 1 0"/>
                        </filter>
                    </defs>
                    <mask maskUnits="userSpaceOnUse" x="-1.2" y="9.1" width="50.5" height="4.9" id="f_1_">
                        <g class="st10">
                            <path id="e_1_" class="st6" d="M0.7,10.2l4,3.6l7.5-3.2l7-0.3l-3.2-4.9l-4-2.2l0-1.5l-1.3-1l-10,0L0.7,10.2z"/>
                        </g>
                    </mask>
                    <path class="st11" d="M0.7,3l45.7,19.4l1-2.3L1.7,0.7L0.7,3z"/>
                </g>
            </g>
            <defs>
                <filter id="Adobe_OpacityMaskFilter_3_" filterUnits="userSpaceOnUse" x="6.1" y="14.7" width="50.5" height="4.9">
                    <feColorMatrix  type="matrix" values="1 0 0 0 0  0 1 0 0 0  0 0 1 0 0  0 0 0 1 0"/>
                </filter>
            </defs>
            <mask maskUnits="userSpaceOnUse" x="6.1" y="14.7" width="50.5" height="4.9" id="d_3_">
                <g class="st12">
                    <path id="c_3_" class="st6" d="M9.9,14.4l3.1,2.7l7.5-3.2l7-0.3l-3.2-4.9l-4-2.2V5l-4.4-3.3l-6,0L9.9,14.4z"/>
                </g>
            </mask>
            <g class="st13">
                <g transform="translate(6.62 4.97)">
                    <defs>
                        <filter id="Adobe_OpacityMaskFilter_4_" filterUnits="userSpaceOnUse" x="-0.5" y="9.7" width="50.5" height="4.9">
                            <feColorMatrix  type="matrix" values="1 0 0 0 0  0 1 0 0 0  0 0 1 0 0  0 0 0 1 0"/>
                        </filter>
                    </defs>
                    <mask maskUnits="userSpaceOnUse" x="-0.5" y="9.7" width="50.5" height="4.9" id="h_1_">
                        <g class="st14">
                            <path id="g_1_" class="st6" d="M1.4,7.7l5,4.5l7.5-3.2l7-0.3l-3.2-4.9l-4-2.2V1.3l-12.3,0L1.4,7.7L1.4,7.7z"/>
                        </g>
                    </mask>
                    <path class="st15" d="M48,20.7L2.4,1.3l-1,2.3L47.1,23L48,20.7z"/>
                </g>
            </g>
            <defs>
                <filter id="Adobe_OpacityMaskFilter_5_" filterUnits="userSpaceOnUse" x="9.1" y="1.6" width="1.9" height="2.3">
                    <feColorMatrix  type="matrix" values="1 0 0 0 0  0 1 0 0 0  0 0 1 0 0  0 0 0 1 0"/>
                </filter>
            </defs>
            <mask maskUnits="userSpaceOnUse" x="9.1" y="1.6" width="1.9" height="2.3" id="d_4_">
                <g class="st16">
                    <path id="c_4_" class="st6" d="M9.9,14.4l3.1,2.7l7.5-3.2l7-0.3l-3.2-4.9l-4-2.2V5l-4.4-3.3l-6,0L9.9,14.4z"/>
                </g>
            </mask>
            <path class="st17" d="M9.4,2c-0.2,0.4,0.2,0.9,0,1.5c0,0.1-0.1,0.2-0.1,0.2L9.9,4l1-2.3l-0.6-0.3C10.3,1.5,9.6,1.6,9.4,2"/>
            <defs>
                <filter id="Adobe_OpacityMaskFilter_6_" filterUnits="userSpaceOnUse" x="7.9" y="3.9" width="2.1" height="2.3">
                    <feColorMatrix  type="matrix" values="1 0 0 0 0  0 1 0 0 0  0 0 1 0 0  0 0 0 1 0"/>
                </filter>
            </defs>
            <mask maskUnits="userSpaceOnUse" x="7.9" y="3.9" width="2.1" height="2.3" id="d_5_">
                <g class="st18">
                    <path id="c_5_" class="st6" d="M9.9,14.4l3.1,2.7l7.5-3.2l7-0.3l-3.2-4.9l-4-2.2V5l-4.4-3.3l-6,0L9.9,14.4z"/>
                </g>
            </mask>
            <path class="st19" d="M9.3,3.7C9,4.1,8.5,4,8.2,4.6C7.9,5.2,8.3,5.6,8.3,6L9,6.3l1-2.3C9.9,4,9.3,3.7,9.3,3.7z"/>
            <defs>
                <filter id="Adobe_OpacityMaskFilter_7_" filterUnits="userSpaceOnUse" x="7" y="6.2" width="2.1" height="2.3">
                    <feColorMatrix  type="matrix" values="1 0 0 0 0  0 1 0 0 0  0 0 1 0 0  0 0 0 1 0"/>
                </filter>
            </defs>
            <mask maskUnits="userSpaceOnUse" x="7" y="6.2" width="2.1" height="2.3" id="d_6_">
                <g class="st20">
                    <path id="c_6_" class="st6" d="M9.9,14.4l3.1,2.7l7.5-3.2l7-0.3l-3.2-4.9l-4-2.2V5l-4.4-3.3l-6,0L9.9,14.4z"/>
                </g>
            </mask>
            <path class="st21" d="M8.3,6c0,0.1,0,0.2-0.1,0.3C8,6.9,7.3,6.9,7.2,7.4c-0.2,0.4,0.2,1,0.2,1L8,8.6l1-2.3C9,6.3,8.3,6,8.3,6z"/>
            <defs>
                <filter id="Adobe_OpacityMaskFilter_8_" filterUnits="userSpaceOnUse" x="0.4" y="1.5" width="3.7" height="1.9">
                    <feColorMatrix  type="matrix" values="1 0 0 0 0  0 1 0 0 0  0 0 1 0 0  0 0 0 1 0"/>
                </filter>
            </defs>
            <mask maskUnits="userSpaceOnUse" x="0.4" y="1.5" width="3.7" height="1.9" id="d_7_">
                <g class="st22">
                    <path id="c_7_" class="st6" d="M9.9,14.4l3.1,2.7l7.5-3.2l7-0.3l-3.2-4.9l-4-2.2V5l-4.4-3.3l-6,0L9.9,14.4z"/>
                </g>
            </mask>
            <path class="st23" d="M0.7,1.5L3,3.9l1-2.4L0.7,1.5z"/>
            <defs>
                <filter id="Adobe_OpacityMaskFilter_9_" filterUnits="userSpaceOnUse" x="53.6" y="21.3" width="3.9" height="6.9">
                    <feColorMatrix  type="matrix" values="1 0 0 0 0  0 1 0 0 0  0 0 1 0 0  0 0 0 1 0"/>
                </filter>
            </defs>
            <mask maskUnits="userSpaceOnUse" x="53.6" y="21.3" width="3.9" height="6.9" id="d_8_">
                <g class="st24">
                    <path id="c_8_" class="st6" d="M9.9,14.4l3.1,2.7l7.5-3.2l7-0.3l-3.2-4.9l-4-2.2V5l-4.4-3.3l-6,0L9.9,14.4z"/>
                </g>
            </mask>
            <g class="st25">
                <path class="st26" d="M53.7,28l2.9-6.8l0.9,0.4l-2.9,6.8L53.7,28z"/>
            </g>
        </g>
        <path class="st3" d="M386.2,246.6l0.6-2.7c0.3-1.3,1.5-2,2.8-1.8c0,0,0,0,0,0l0.4,0.1c1.3,0.3,2,1.5,1.8,2.8l-0.6,2.7
		c-0.3,1.3-1.5,2-2.8,1.8c0,0,0,0,0,0l-0.4-0.1C386.7,249.1,386,247.9,386.2,246.6"/>
        <path class="st4" d="M339.4,230.6l-9.4,1.7l7.7,5.6l1.9-3.5L339.4,230.6z"/>
        <path class="st27" d="M387.9,244.3l0.6-2.4l-48.3-11.1l-0.6,2.4L387.9,244.3z"/>
        <path class="st28" d="M339,235.6l48.3,11.1l0.6-2.4l-48.3-11.1L339,235.6z"/>
        <path class="st27" d="M387.3,246.7L339,235.6l-0.6,2.4l48.3,11.1L387.3,246.7z M338.7,231.3c-0.1,0.5,0.4,0.9,0.3,1.5
		c0,0.1-0.1,0.2-0.1,0.2l0.7,0.2l0.6-2.4l-0.7-0.2C339.5,230.6,338.8,230.8,338.7,231.3"/>
        <path class="st28" d="M338.9,233c-0.2,0.4-0.8,0.4-0.9,1.1c-0.1,0.6,0.3,0.9,0.3,1.4l0.7,0.2l0.6-2.4L338.9,233L338.9,233z"/>
        <path class="st27" d="M338.3,235.4c0,0.1,0,0.2,0,0.3c-0.1,0.6-0.8,0.8-0.9,1.2c-0.1,0.5,0.4,0.9,0.4,0.9l0.7,0.2l0.6-2.4
		L338.3,235.4L338.3,235.4z"/>
        <path class="st26" d="M330,232.3l2.7,2l0.6-2.6L330,232.3z M386.8,249.1l1.7-7.2l1,0.2l-1.7,7.2L386.8,249.1z"/>
        <g>
            <path class="st29" d="M66.5,0.9l-29.7,8l-24.4,6.5L0.5,18.6l3.2,11.9l22.5,83.9l3.2,11.9l11.9-3.2l24.4-6.5l29.7-8
			c6.6-1.8,10.5-8.5,8.7-15.1L81.6,9.6C79.8,3,73.1-0.9,66.5,0.9"/>
            <path class="st30" d="M81.6,115.1l4.5-1.2L56.1,1.7l-4.5,1.2L81.6,115.1z"/>
            <path class="st31" d="M51.5,130.6l-3-1.5l-1.8,2.8l-2.3-8.6l4.8-1.3L51.5,130.6z"/>
        </g>
        <g transform="translate(62 15.501)">
            <defs>
                <filter id="Adobe_OpacityMaskFilter_10_" filterUnits="userSpaceOnUse" x="-22.2" y="0" width="350" height="278">
                    <feColorMatrix  type="matrix" values="1 0 0 0 0  0 1 0 0 0  0 0 1 0 0  0 0 0 1 0"/>
                </filter>
            </defs>
            <mask maskUnits="userSpaceOnUse" x="-22.2" y="0" width="350" height="278" id="j_1_">
                <g class="st32">
                    <circle id="i_1_" class="st6" cx="139" cy="139" r="139"/>
                </g>
            </mask>
            <g class="st33">
                <path class="st34" d="M-22.2,278h350V0h-350L-22.2,278z"/>
            </g>
            <defs>
                <filter id="Adobe_OpacityMaskFilter_11_" filterUnits="userSpaceOnUse" x="-55.6" y="30.5" width="408" height="408.4">
                    <feColorMatrix  type="matrix" values="1 0 0 0 0  0 1 0 0 0  0 0 1 0 0  0 0 0 1 0"/>
                </filter>
            </defs>
            <mask maskUnits="userSpaceOnUse" x="-55.6" y="30.5" width="408" height="408.4" id="j_2_">
                <g class="st35">
                    <circle id="i_2_" class="st6" cx="139" cy="139" r="139"/>
                </g>
            </mask>
            <g class="st36">
                <g transform="translate(57.748 33.781)">
                    <defs>
                        <filter id="Adobe_OpacityMaskFilter_12_" filterUnits="userSpaceOnUse" x="-29.1" y="-3.2" width="223" height="256">
                            <feColorMatrix  type="matrix" values="1 0 0 0 0  0 1 0 0 0  0 0 1 0 0  0 0 0 1 0"/>
                        </filter>
                    </defs>
                    <mask maskUnits="userSpaceOnUse" x="-29.1" y="-3.2" width="223" height="256" id="l_1_">
                        <g class="st37">
                            <path id="k_1_" class="st6" d="M0.4,93.9c-0.2-1.3-0.4-2.6-0.4-4C0,40.2,36.5,0,81.5,0c45,0,81.5,40.2,81.5,89.9
							c0,0.3,0,0.7,0,1l0.2,0c0,0,0.1,95.7-81.7,95.7C-0.3,186.6,0,219.5,0,219.5V93.9L0.4,93.9L0.4,93.9z"/>
                        </g>
                    </mask>
                    <g class="st38">
                        <path class="st39" d="M-29.1-3.2h223v256h-223L-29.1-3.2z"/>
                    </g>
                </g>
                <path class="st40" d="M96.7,207.8c3.3,5.3,12.6,98.3,40.5,98.3c27.9,0,40.5-94.8,40.5-99.7C134.9,181.9,96.7,207.8,96.7,207.8z"
                />
                <g transform="translate(51.31 205.608)">
                    <g>
                        <path id="m_1_" class="st41" d="M125.4,0.6C144.8,10.1,175,36,175,60v79.3H0V60c0-23.1,27.6-48,46.9-58.3c-1,0.6-1.5,1-1.5,1
						c3.3,5.5,12.2,29.8,40.1,29.8c27.9,0,40.9-26.1,40.9-31.2C126,1,125.7,0.8,125.4,0.6z"/>
                    </g>
                    <defs>
                        <filter id="Adobe_OpacityMaskFilter_13_" filterUnits="userSpaceOnUse" x="-106.9" y="-90.7" width="408" height="324">
                            <feColorMatrix  type="matrix" values="1 0 0 0 0  0 1 0 0 0  0 0 1 0 0  0 0 0 1 0"/>
                        </filter>
                    </defs>
                    <mask maskUnits="userSpaceOnUse" x="-106.9" y="-90.7" width="408" height="324" id="n_1_">
                        <g class="st42">
                            <path id="m_2_" class="st6" d="M125.4,0.6C144.8,10.1,175,36,175,60v79.3H0V60c0-23.1,27.6-48,46.9-58.3c-1,0.6-1.5,1-1.5,1
							c3.3,5.5,12.2,29.8,40.1,29.8c27.9,0,40.9-26.1,40.9-31.2C126,1,125.7,0.8,125.4,0.6z"/>
                        </g>
                    </mask>
                    <g class="st43">
                        <path class="st44" d="M-106.9,233.3h408v-324h-408V233.3z"/>
                    </g>
                </g>
                <path class="st40" d="M72.5,123c0,0-0.3,1.9-0.8,1.6c-0.6-0.3-1.3-0.4-2-0.4c-3,0-5.4,2.5-5.5,5.6l0,21.6c0,3.1,2.4,5.6,5.4,5.7
				c1.2,0,2.3-0.4,3.2-1.1c7.3,34.8,33.2,59.3,64.1,59.3c30.9,0.1,56.9-24.4,64.3-59.1c0.9,0.7,2,1.1,3.2,1.1c3,0,5.5-2.5,5.5-5.6
				l0-21.6c0-3.1-2.4-5.7-5.4-5.7c-0.7,0-1.4,0.1-2,0.4c-69.7,8.3-94.1-39.2-96.1-39.2C106.5,85.7,77.4,113,72.5,123L72.5,123z"/>
                <g>
                    <path class="st45" d="M113.9,143.4c-4.7,0.4-6-6.6-4.6-11.1c0.3-0.9,1.8-4.8,4.6-4.8c2.7,0,3.9,2.1,4.1,2.5
					C120,134.4,119,143,113.9,143.4 M166.1,143.4c4.7,0.4,6-6.6,4.6-11.1c-0.3-0.9-1.8-4.8-4.6-4.8c-2.7,0-3.9,2.1-4.1,2.5
					C160,134.4,161,143,166.1,143.4"/>
                    <path class="st46" d="M141.5,151.3c2.8-0.4,4.6-0.2,5.3,0.7c2.5,3.1,1.7,6.5-2.6,9.2c-2.3,1.4-5.4,1.9-7.1,1.2
					c-0.8-0.4-1.8,0-2.1,0.8c0,0,0,0,0,0c-0.4,0.8,0,1.8,0.8,2.1c2.8,1.2,7,0.5,10.1-1.4c5.9-3.7,7.3-9.2,3.4-14
					c-1.6-2-4.5-2.4-8.3-1.8c-0.9,0.1-1.5,1-1.4,1.9C139.8,150.9,140.6,151.5,141.5,151.3C141.5,151.3,141.5,151.3,141.5,151.3
					L141.5,151.3z"/>
                    <path class="st47" d="M159.9,175c-0.1,0.3-0.5,1-1,1.8c-1,1.5-2.1,2.9-3.4,4.2c-4.1,4-9.5,6.3-16.4,6.1
					c-6.7-0.2-12-2.5-16.2-6.1c-1.4-1.3-2.7-2.7-3.8-4.2c-0.6-0.8-1-1.5-1.1-1.8c-0.4-0.8-1.4-1.1-2.2-0.7c0,0,0,0,0,0
					c-0.8,0.4-1.1,1.4-0.7,2.2c0.2,0.5,0.7,1.3,1.4,2.3c1.3,1.8,2.7,3.4,4.3,4.8c4.7,4.1,10.8,6.7,18.3,6.9c7.8,0.2,14-2.4,18.7-7
					c1.5-1.4,2.8-3.1,3.9-4.8c0.6-1,1-1.8,1.3-2.3c0.4-0.8,0-1.8-0.8-2.1C161.2,173.8,160.3,174.2,159.9,175
					C159.9,175,159.9,175,159.9,175L159.9,175z"/>
                </g>
            </g>
        </g>
        <g>
            <path class="st48" d="M345.9,56.9l1.7,1.4c4.3,3.6,5,9.9,1.6,14l-6.6,7.9c-3.4,4.1-9.7,4.5-14,0.9l-1.7-1.4
			c-10.6,4-23.3,2-32.9-6.1c-14-11.7-16.3-32-5.2-45.2c11.1-13.3,31.5-14.5,45.5-2.8C343.9,33.7,348,45.8,345.9,56.9L345.9,56.9z"/>
            <path class="st49" d="M361.6,73.3l-16,19c-0.9,1-2.4,1.1-3.5,0.2l-2.1-1.7c-1.1-0.9-1.2-2.5-0.4-3.5l16-19c0.9-1,2.4-1.1,3.5-0.2
			l2.1,1.7C362.2,70.7,362.4,72.2,361.6,73.3 M368.8,79.4l-16,19c-0.9,1-2.4,1.1-3.5,0.2l-2.1-1.7c-1.1-0.9-1.2-2.5-0.4-3.5l16-19
			c0.9-1,2.4-1.1,3.5-0.2l2.1,1.7C369.5,76.8,369.7,78.3,368.8,79.4 M365.4,86.2l-6.3,7.5c-1,1.1,0.1,2.9,1.6,2.6
			c2.1-0.4,4-1.4,5.4-3.1c1.4-1.7,2.1-3.8,2.2-5.9C368.3,85.8,366.3,85.1,365.4,86.2"/>
        </g>
        <g>
            <path class="st50" d="M32.2,266.3c-2.2-2.3-2.3-6.1-0.2-8.6l21.7-26.1c2-2.4,5.4-2.6,7.6-0.3c2.2,2.3,2.3,6.1,0.2,8.6L39.8,266
			C37.7,268.5,34.3,268.6,32.2,266.3"/>
            <path class="st51" d="M97.1,191.2c-9.1-9.3-23.4-8.8-31.9,1.1c-8.5,9.9-8,25.6,1,34.9c9.1,9.3,23.4,8.8,31.9-1.1
			C106.7,216.1,106.2,200.5,97.1,191.2 M63.7,230.1c-10.6-10.8-11.1-29-1.2-40.6c9.9-11.5,26.5-12.1,37.1-1.3
			c10.6,10.8,11.1,29,1.2,40.6C90.9,240.4,74.3,241,63.7,230.1"/>
            <path class="st51" d="M57.1,236.4c-1.6-1.6-2.3-3.5-0.8-5.2l4.9-5.6c1.5-1.7,3.9-1.8,5.5-0.2c1.6,1.6,1.7,4.2,0.2,5.9l-4.9,5.6
			C60.5,238.6,58.6,237.9,57.1,236.4"/>
            <path class="st52" d="M56.2,235.1l-20.3,24c-0.7,0.8-0.6,2,0.1,2.8c0.7,0.7,1.8,0.7,2.5-0.1l19.4-23
			C56.8,237.6,56.3,236.3,56.2,235.1"/>
        </g>
    </g>
</svg>
