<svg xmlns="http://www.w3.org/2000/svg" xmlns:xlink="http://www.w3.org/1999/xlink" width="458" height="392" viewBox="0 0 458 392" role="img">
    <defs>
        <path id="a" d="M.486 0v33.308C.486 40.317 6.08 46 12.982 46H376.99c6.905 0 12.496-5.683 12.496-12.692V0h-389z"/>
        <path id="c" d="M12.982 0C6.08 0 .486 5.608.486 12.526V217h389V12.526C389.486 5.608 383.895 0 376.99 0H12.982z"/>
        <path id="e" d="M6.855 0C3.338 0 .486 2.875.486 6.418V193h363V6.418c0-3.543-2.852-6.418-6.37-6.418H6.855z"/>
        <path id="g" d="M.486 3.5A3.5 3.5 0 1 0 3.983 0 3.499 3.499 0 0 0 .486 3.5z"/>
        <path id="i" d="M2.313.499a1.998 1.998 0 0 0-2.003 2V7.77c0 1.112.897 2.001 2.003 2.001h51.326a1.999 1.999 0 0 0 2.002-2.001V2.499c0-1.112-.896-2-2.002-2H2.313z"/>
        <path id="k" d="M2.312.499c-1.11 0-2.001.895-2.001 2V7.77c0 1.112.896 2.001 2.001 2.001h51.327a2 2 0 0 0 2.002-2.001V2.499c0-1.112-.896-2-2.002-2H2.312z"/>
        <path id="m" d="M.311 2.415c0 1.056.878 1.917 1.958 1.917s1.958-.861 1.958-1.917c0-1.057-.878-1.916-1.958-1.916S.311 1.358.311 2.415zm.17 0c0-.965.802-1.75 1.788-1.75.987 0 1.788.785 1.788 1.75s-.801 1.749-1.788 1.749c-.986 0-1.788-.784-1.788-1.749z"/>
        <path id="o" d="M.673.998a.086.086 0 0 0 .171 0c0-.229.19-.417.425-.417.234 0 .426.188.426.417 0 .23-.192.417-.426.417a.084.084 0 0 0-.085.083v.5c0 .046.038.084.085.084a.085.085 0 0 0 .085-.084v-.422a.589.589 0 0 0 .511-.578.59.59 0 0 0-.596-.583.59.59 0 0 0-.596.583z"/>
        <path id="q" d="M.099.477a.23.23 0 0 0 .232.228.23.23 0 0 0 .234-.228.231.231 0 0 0-.234-.229.23.23 0 0 0-.232.229z"/>
        <path id="s" d="M.311 2.415c0 1.056.879 1.917 1.958 1.917 1.08 0 1.958-.861 1.958-1.917 0-1.057-.878-1.916-1.958-1.916C1.19.499.311 1.358.311 2.415zm.17 0c0-.965.802-1.75 1.788-1.75s1.788.785 1.788 1.75-.802 1.749-1.788 1.749S.481 3.38.481 2.415z"/>
        <path id="u" d="M.673.998a.085.085 0 0 0 .17 0c0-.229.191-.417.426-.417s.426.188.426.417c0 .23-.191.417-.426.417a.084.084 0 0 0-.085.083v.5c0 .046.038.084.085.084a.085.085 0 0 0 .085-.084v-.422a.59.59 0 0 0 .512-.578.592.592 0 0 0-.597-.583.59.59 0 0 0-.596.583z"/>
        <path id="w" d="M.099.477a.23.23 0 0 0 .233.228.231.231 0 0 0 .234-.228.232.232 0 0 0-.234-.229.231.231 0 0 0-.233.229z"/>
        <path id="y" d="M2.373.499A1.995 1.995 0 0 0 .371 2.493v5.101c0 1.09.896 1.994 2.002 1.994H53.7c1.11 0 2.001-.893 2.001-1.994V2.493c0-1.09-.896-1.994-2.001-1.994H2.373z"/>
        <path id="A" d="M2.615.499A1.995 1.995 0 0 0 .614 2.493v5.101c0 1.09.896 1.994 2.001 1.994h51.326a1.996 1.996 0 0 0 2.003-1.994V2.493c0-1.09-.896-1.994-2.003-1.994H2.615z"/>
        <path id="C" d="M2.828.499A1.995 1.995 0 0 0 .826 2.494V93.04c0 1.09.896 1.996 2.002 1.996h51.327a1.996 1.996 0 0 0 2.001-1.996V2.494A2.005 2.005 0 0 0 54.155.499H2.828z"/>
        <path id="E" d="M.696 2.77c0 1.053.878 1.91 1.958 1.91 1.079 0 1.959-.857 1.959-1.91 0-1.052-.88-1.909-1.959-1.909-1.08 0-1.958.857-1.958 1.909zm.17 0c0-.961.803-1.742 1.788-1.742.986 0 1.789.781 1.789 1.742 0 .962-.803 1.744-1.789 1.744-.985 0-1.788-.782-1.788-1.744z"/>
        <path id="G" d="M.058 1.356c0 .045.038.083.085.083a.085.085 0 0 0 .086-.083.42.42 0 0 1 .425-.415.42.42 0 0 1 .426.415.42.42 0 0 1-.426.414.084.084 0 0 0-.084.083v.499c0 .046.038.083.084.083a.084.084 0 0 0 .085-.083V1.93a.585.585 0 0 0 .511-.574.589.589 0 0 0-.596-.581.59.59 0 0 0-.596.581z"/>
        <path id="I" d="M.484.828a.23.23 0 0 0 .233.227.23.23 0 0 0 .234-.227.231.231 0 0 0-.234-.227.23.23 0 0 0-.233.227z"/>
        <path id="K" d="M2.273.771A1.994 1.994 0 0 0 .282 2.774v19.263c0 1.106.891 2.004 1.991 2.004h48.436a1.995 1.995 0 0 0 1.991-2.004V2.774A1.998 1.998 0 0 0 50.709.771H2.273z"/>
        <path id="M" d="M2.653.587a2.272 2.272 0 1 0 0 4.545h17.105a2.272 2.272 0 1 0 0-4.545H2.653z"/>
        <path id="O" d="M2.273.677A1.996 1.996 0 0 0 .282 2.682v19.262a2 2 0 0 0 1.991 2.005h48.436a1.996 1.996 0 0 0 1.991-2.005V2.682A2 2 0 0 0 50.709.677H2.273z"/>
        <path id="Q" d="M2.653.494a2.273 2.273 0 1 0 0 4.545h17.105a2.272 2.272 0 1 0 0-4.545H2.653z"/>
        <path id="S" d="M2.273.402A1.994 1.994 0 0 0 .282 2.404V25.31c0 1.104.891 1.999 1.991 1.999h48.436A1.992 1.992 0 0 0 52.7 25.31V2.404A1.997 1.997 0 0 0 50.709.402H2.273z"/>
        <path id="U" d="M2.653.037a2.272 2.272 0 1 0 0 4.545h17.105a2.272 2.272 0 1 0 0-4.545H2.653z"/>
        <path id="W" d="M7.675 1.083c0 .681.274 1.089.842 1.089.564 0 .843-.408.843-1.089C9.36.403 9.078.08 8.517.08c-.565 0-.842.323-.842 1.003zm.343.041c0-.648.195-.751.499-.751.294 0 .495.103.495.751 0 .637-.231.771-.495.771-.28 0-.499-.134-.499-.771zM5.824.682c0 .369.357.483.67.597.231.081.402.164.402.336 0 .155-.13.269-.433.269-.167 0-.291-.033-.537-.152l-.126.265c.258.12.408.175.645.175.511 0 .79-.225.79-.609 0-.369-.393-.497-.663-.593-.292-.108-.4-.184-.4-.335 0-.125.115-.25.387-.25.148 0 .268.041.484.143l.135-.262a1.22 1.22 0 0 0-.597-.183c-.397 0-.757.139-.757.599zm5.13-.571v.911l.015.518-.192-.361-.634-1.068h-.289v2.028h.328v-.904l-.015-.518.192.361.635 1.061h.288V.111h-.328zm-7.03 0v2.028h.324v-.817h.42l.404.817h.357l-.43-.869c.246-.108.321-.34.321-.614 0-.326-.144-.545-.621-.545h-.775zm.324.286h.406c.261 0 .324.082.324.288 0 .25-.078.349-.274.349h-.456V.397zM.383.111v2.028h.324v-.796h.421c.479 0 .627-.297.627-.675 0-.512-.334-.553-.691-.557H.383zM.707.4h.375c.262 0 .33.089.33.296 0 .251-.081.343-.279.347H.707V.4zM2.216.115v2.024h1.241v-.288h-.913v-.643h.742V.926h-.742V.397h.913V.115H2.216z"/>
        <path id="Y" d="M10.614.111v.286h.538v1.742h.333V.397h.541V.111h-1.412zm-2.37 2.028h.328V.111h-.328v2.028zM6.308.111v2.028h.324v-.817h.421l.403.817h.357l-.43-.869c.246-.108.322-.34.322-.614 0-.326-.145-.545-.622-.545h-.775zm.324.286h.406c.261 0 .324.082.324.288 0 .25-.078.349-.273.349h-.457V.397zM4.285.111v2.028h.681c.565 0 .844-.375.844-1.056 0-.68-.279-.972-.844-.972h-.681zM4.612.4h.354c.292 0 .496.079.496.724 0 .634-.207.727-.496.727h-.354V.4zM.593.111v2.028h.893c.414 0 .591-.212.591-.616 0-.21-.132-.39-.328-.468a.43.43 0 0 0 .253-.408c0-.5-.336-.536-.64-.536H.593zm.325.278h.405c.262 0 .33.081.33.288 0 .185-.111.258-.315.255h-.42V.389zm0 .819h.453c.255 0 .358.135.358.343 0 .248-.094.309-.331.309h-.48v-.652zM9.126.115v2.024h.327v-.931h.681V.926h-.681V.397h.853V.115h-1.18zm-6.549 0v2.024h1.241v-.288h-.914v-.643h.743V.926h-.743V.397h.914V.115H2.577z"/>
        <path id="aa" d="M9.447 1.083c0 .681.27 1.086.841 1.086.61 0 .763-.396.756-1.095h-.756v.265h.424c0 .018.002.03 0 .044-.012.413-.205.51-.424.51-.277 0-.498-.135-.498-.769 0-.648.21-.751.498-.751.189 0 .303.068.396.222l.28-.14c-.138-.259-.34-.375-.676-.375-.571 0-.841.323-.841 1.003zm-2.122 0c0 .681.273 1.089.841 1.089.565 0 .844-.408.844-1.089C9.01.403 8.728.08 8.166.08c-.565 0-.841.323-.841 1.003zm.342.041c0-.648.195-.751.499-.751.294 0 .495.103.495.751 0 .637-.231.771-.495.771-.28 0-.499-.134-.499-.771zm4.751-.442c0 .369.357.483.669.597.232.081.403.164.403.336 0 .155-.129.269-.432.269-.169 0-.292-.033-.538-.152l-.126.265c.258.12.408.175.646.175.51 0 .79-.225.79-.609 0-.369-.394-.497-.664-.593-.292-.108-.4-.184-.4-.335 0-.125.114-.25.387-.25.148 0 .268.041.484.143l.135-.262a1.224 1.224 0 0 0-.597-.183c-.397 0-.757.139-.757.599zM25.264.111v.911l.016.518-.193-.361-.633-1.068h-.288v2.028h.326v-.904l-.014-.518.192.361.634 1.061h.288V.111h-.328zm-1.98 0v.911l.015.518-.193-.361-.633-1.068h-.288v2.028h.326v-.904l-.014-.518.192.361.634 1.061h.288V.111h-.327zm-1.975 0v1.426c0 .184-.118.356-.391.356-.27 0-.381-.172-.381-.356V.111H20.2v1.395c0 .401.256.666.721.666.465 0 .721-.265.721-.666V.111h-.333zm-3.62 0l-.528 1.06-.529-1.06h-.304l-.072 2.028h.328l.039-.904.006-.518.175.361.261.485h.192l.264-.491.177-.355.003.518.036.904h.331L17.992.111h-.303zm-2.837 0l-.66 2.028h.347l.13-.427h.709l.131.427h.341L15.192.111h-.34zm.036.89l.135-.505.135.505.136.44h-.541l.135-.44zm-9.18-.89L5.36 1.22l-.135.506-.138-.506L4.733.111h-.346l.667 2.028h.339l.67-2.028h-.355zm-2.59 0l-.661 2.028h.349l.129-.427h.709l.132.427h.339L3.458.111h-.34zm.036.89l.135-.505.135.505.135.44h-.54l.135-.44zM1.711.111v.911l.015.518-.193-.361L.9.111H.612v2.028h.327v-.904L.924.717l.193.361.632 1.061h.289V.111h-.327zm16.896.004v2.024h.327v-.931h.682V.926h-.682V.397h.854V.115h-1.181z"/>
        <path id="ac" d="M13.078.111l-.349 1.109-.134.506-.139-.506-.355-1.109h-.345l.667 2.028h.339l.67-2.028h-.354zm-2.591 0l-.662 2.028h.349l.129-.427h.709l.133.427h.339L10.826.111h-.339zm.036.89l.135-.505.136.505.134.44h-.541l.136-.44zM9.079.111v.911l.015.518-.192-.361L8.268.111H7.98v2.028h.327v-.904L8.293.717l.192.361.634 1.061h.288V.111h-.328zm-3.853 0v.286h.538v1.742h.334V.397h.539V.111H5.226zm-1.722 0v.286h.537v1.742h.334V.397h.54V.111H3.504zm-.763 2.028h.328V.111h-.328v2.028zM.718.111v2.028H1.4c.566 0 .845-.375.845-1.056 0-.68-.279-.972-.845-.972H.718zM1.046.4H1.4c.292 0 .496.079.496.724 0 .634-.207.727-.496.727h-.354V.4z"/>
        <path id="ae" d="M4.761.577v1.565h.19v-.429l.167-.147.367.576h.253l-.476-.714.451-.427H5.46l-.509.485V.577h-.19zm-3.032 0v.646H.89V.577H.668v1.565H.89V1.41h.839v.732h.222V.577h-.222zm10.464.105v.319h-.16v.156h.16v.755c0 .073.017.132.049.178.033.046.096.07.188.07a.647.647 0 0 0 .151-.018v-.151l-.038.001-.032.001a.178.178 0 0 1-.076-.011c-.028-.014-.042-.041-.042-.081v-.744h.188v-.156h-.188V.682h-.2zm-3.755 0v.319h-.16v.156h.16v.755c0 .073.015.132.048.178.034.046.097.07.189.07a.673.673 0 0 0 .151-.018v-.151l-.039.001-.03.001a.183.183 0 0 1-.078-.011c-.028-.014-.041-.041-.041-.081v-.744h.188v-.156h-.188V.682h-.2zm-5.264.427A.564.564 0 0 0 2.79.966a.475.475 0 0 0-.406.188.71.71 0 0 0-.138.431c0 .089.01.166.029.232a.586.586 0 0 0 .085.176l-.141.144.065.055.133-.136c.039.04.09.071.153.095a.653.653 0 0 0 .216.034.51.51 0 0 0 .407-.178.677.677 0 0 0 .152-.454.654.654 0 0 0-.117-.389l.141-.153-.058-.053-.137.151zm-.712.635a.643.643 0 0 1-.016-.147c0-.136.031-.246.096-.333a.303.303 0 0 1 .256-.129c.055 0 .106.01.151.031a.24.24 0 0 1 .1.077l-.554.601a1.138 1.138 0 0 1-.033-.1zm.199.253a.285.285 0 0 1-.116-.082l.545-.601a.567.567 0 0 1 .046.252.627.627 0 0 1-.052.263.304.304 0 0 1-.295.189.429.429 0 0 1-.128-.021zm3.301-.86a.675.675 0 0 0-.15.459c0 .179.047.322.143.428a.493.493 0 0 0 .386.159c.194 0 .337-.06.43-.18a.728.728 0 0 0 .139-.456c0-.191-.053-.335-.158-.433a.545.545 0 0 0-.385-.147.52.52 0 0 0-.405.17zm.136.76a.525.525 0 0 1-.083-.304.6.6 0 0 1 .083-.324c.055-.089.143-.134.264-.134.136 0 .233.053.288.157a.564.564 0 0 1 .053.26.716.716 0 0 1-.073.322c-.05.096-.14.144-.27.144-.12 0-.207-.04-.262-.121zm5.009-.826a.323.323 0 0 0-.119.262.24.24 0 0 0 .127.215.787.787 0 0 0 .222.081l.157.038a.83.83 0 0 1 .169.054.123.123 0 0 1 .068.113.152.152 0 0 1-.084.142.38.38 0 0 1-.193.047c-.123 0-.21-.031-.26-.093a.271.271 0 0 1-.05-.146h-.19a.437.437 0 0 0 .117.286c.073.076.197.115.373.115.163 0 .283-.037.363-.111a.347.347 0 0 0 .12-.263c0-.105-.039-.182-.116-.231a1.04 1.04 0 0 0-.286-.097l-.131-.031a.49.49 0 0 1-.13-.046c-.05-.03-.076-.07-.076-.12a.13.13 0 0 1 .058-.11.288.288 0 0 1 .17-.041c.113 0 .192.025.237.075a.218.218 0 0 1 .047.119h.188a.332.332 0 0 0-.072-.207c-.08-.101-.207-.151-.385-.151a.492.492 0 0 0-.324.1zm-1.186-.016c-.091.055-.138.153-.142.294h.185a.265.265 0 0 1 .047-.133c.043-.054.117-.081.221-.081.089 0 .158.014.206.044.048.029.072.077.072.142a.162.162 0 0 1-.014.074c-.015.031-.046.049-.091.056l-.316.037a.505.505 0 0 0-.268.108.307.307 0 0 0-.102.246c0 .096.035.177.104.241a.378.378 0 0 0 .268.097.543.543 0 0 0 .249-.057.51.51 0 0 0 .174-.132c.007.045.018.08.034.105.031.047.08.07.149.07a.393.393 0 0 0 .136-.02v-.141a.145.145 0 0 1-.035.004l-.03.002c-.027 0-.045-.006-.053-.018a.083.083 0 0 1-.013-.048v-.656a.261.261 0 0 0-.128-.24.671.671 0 0 0-.338-.076.6.6 0 0 0-.315.082zm.068.914a.157.157 0 0 1-.063-.132.17.17 0 0 1 .091-.159.456.456 0 0 1 .161-.044l.12-.014a.937.937 0 0 0 .113-.022.353.353 0 0 0 .093-.037v.154a.264.264 0 0 1-.164.255.474.474 0 0 1-.203.047.233.233 0 0 1-.148-.048zm-.658-.912a.432.432 0 0 0-.114.141v-.197h-.188v1.141h.198v-.656c0-.081.027-.153.08-.215.054-.063.131-.094.231-.094l.032.001a.31.31 0 0 0 .032.004V.981a.396.396 0 0 0-.045-.005L9.539.975a.297.297 0 0 0-.208.082zM7.51 1.018a.542.542 0 0 0-.177.145v-.162h-.188v1.141h.198v-.598c0-.075.005-.132.015-.173a.28.28 0 0 1 .064-.116.301.301 0 0 1 .143-.094.46.46 0 0 1 .116-.014c.092 0 .156.036.191.107a.383.383 0 0 1 .032.169v.719h.201V1.41a.571.571 0 0 0-.049-.265c-.058-.114-.171-.17-.338-.17a.484.484 0 0 0-.208.043zm-3.135-.017l-.317.928-.317-.928h-.224l.435 1.173-.048.117-.04.088a.18.18 0 0 1-.044.043.152.152 0 0 1-.081.018.302.302 0 0 1-.04-.003 1.017 1.017 0 0 1-.075-.017v.174c.021.006.04.009.056.012a.495.495 0 0 0 .063.003c.115 0 .196-.032.243-.096.046-.064.127-.242.242-.532.048-.124.108-.284.181-.48.095-.26.157-.428.185-.5h-.219z"/>
        <path id="ag" d="M1.068.672a.445.445 0 0 0-.151.346c0 .13.051.228.154.294.06.037.161.072.304.103l.219.048a.831.831 0 0 1 .262.093c.055.036.082.096.082.182 0 .113-.065.192-.196.236a.688.688 0 0 1-.224.035c-.183 0-.311-.053-.384-.156a.422.422 0 0 1-.065-.217H.863a.498.498 0 0 0 .167.402c.115.1.271.149.472.149a.898.898 0 0 0 .455-.112c.129-.074.195-.198.195-.372a.369.369 0 0 0-.154-.318.71.71 0 0 0-.253-.099l-.227-.051a1.553 1.553 0 0 1-.294-.084.178.178 0 0 1-.098-.168.24.24 0 0 1 .084-.184c.056-.052.149-.078.278-.078.16 0 .273.04.341.122a.405.405 0 0 1 .07.193h.205c0-.174-.058-.301-.178-.38a.756.756 0 0 0-.431-.119c-.184 0-.327.045-.427.135zm3.804-.02a.33.33 0 0 0-.044.175v.179h-.162v.151h.162v.985h.197v-.985h.199v-.151h-.198c0-.123.007-.201.018-.23.012-.031.048-.046.108-.046h.027l.045.003V.559L5.178.555 5.139.554c-.131 0-.221.033-.267.098zm7.047 1.49h.198V.577h-.198v1.565zM4.279.794h.202V.577h-.202v.217zM2.398.577v1.565h.19v-.429l.166-.147.367.576h.253l-.475-.714.45-.427h-.253l-.508.485V.577h-.19zm4.8.105v.319h-.16v.156h.16v.755c0 .073.016.132.049.178.033.046.095.07.188.07a.66.66 0 0 0 .15-.018v-.151l-.038.001-.031.001a.184.184 0 0 1-.077-.011c-.028-.014-.041-.041-.041-.081v-.744h.187v-.156h-.187V.682h-.2zm-1.753 0v.319h-.159v.156h.159v.755c0 .073.016.132.049.178.034.046.097.07.189.07a.656.656 0 0 0 .151-.018v-.151l-.04.001-.03.001a.18.18 0 0 1-.077-.011c-.029-.014-.042-.041-.042-.081v-.744h.189v-.156h-.189V.682h-.2zm3.25.427a.733.733 0 0 0-.141-.093.565.565 0 0 0-.244-.05.473.473 0 0 0-.405.188.705.705 0 0 0-.139.431c0 .089.01.166.03.232.02.065.048.124.084.176l-.14.144.064.055.134-.136c.038.04.09.071.152.095a.657.657 0 0 0 .216.034.513.513 0 0 0 .408-.178.677.677 0 0 0 .152-.454.706.706 0 0 0-.117-.389l.14-.153-.057-.053-.137.151zm-.712.635a.643.643 0 0 1-.017-.147c0-.136.032-.246.096-.333a.304.304 0 0 1 .256-.129.36.36 0 0 1 .152.031.243.243 0 0 1 .099.077l-.553.601a.878.878 0 0 1-.033-.1zm.199.253a.295.295 0 0 1-.117-.082l.546-.601a.67.67 0 0 1 .046.252.627.627 0 0 1-.053.263.304.304 0 0 1-.295.189.428.428 0 0 1-.127-.021zm4.313-.926a.325.325 0 0 0-.122.262c0 .091.043.163.129.215a.8.8 0 0 0 .222.081l.158.038c.083.021.14.039.168.054a.122.122 0 0 1 .067.113.15.15 0 0 1-.083.142.385.385 0 0 1-.194.047c-.123 0-.209-.031-.26-.093a.271.271 0 0 1-.048-.146h-.19a.422.422 0 0 0 .117.286c.072.076.196.115.371.115.163 0 .285-.037.364-.111a.346.346 0 0 0 .119-.263c0-.105-.038-.182-.115-.231a1.012 1.012 0 0 0-.287-.097l-.13-.031a.477.477 0 0 1-.13-.046c-.051-.03-.075-.07-.075-.12a.13.13 0 0 1 .057-.11c.038-.028.095-.041.17-.041.113 0 .19.025.236.075a.21.21 0 0 1 .047.119h.188a.325.325 0 0 0-.071-.207c-.079-.101-.207-.151-.384-.151a.488.488 0 0 0-.324.1zm-6.383 0a.325.325 0 0 0-.121.262c0 .091.043.163.129.215a.79.79 0 0 0 .221.081l.158.038c.084.021.14.039.169.054a.122.122 0 0 1 .067.113.15.15 0 0 1-.083.142.382.382 0 0 1-.194.047c-.124 0-.209-.031-.259-.093a.263.263 0 0 1-.05-.146h-.19a.422.422 0 0 0 .117.286c.073.076.197.115.372.115.163 0 .284-.037.364-.111a.35.35 0 0 0 .119-.263c0-.105-.038-.182-.115-.231a1.037 1.037 0 0 0-.287-.097l-.13-.031a.465.465 0 0 1-.13-.046c-.051-.03-.076-.07-.076-.12 0-.045.02-.082.057-.11a.292.292 0 0 1 .171-.041c.112 0 .19.025.236.075a.219.219 0 0 1 .048.119h.186a.314.314 0 0 0-.071-.207c-.078-.101-.206-.151-.384-.151a.49.49 0 0 0-.324.1zm7.517.075a.64.64 0 0 0-.155.447c0 .186.051.33.153.434a.503.503 0 0 0 .372.154.717.717 0 0 0 .162-.016.474.474 0 0 0 .373-.381h-.195a.358.358 0 0 1-.075.133.325.325 0 0 1-.248.099c-.11 0-.192-.035-.245-.106a.48.48 0 0 1-.085-.278h.864c0-.115-.005-.199-.019-.251a.442.442 0 0 0-.257-.349.555.555 0 0 0-.243-.057c-.166 0-.3.057-.402.171zm.161.091a.305.305 0 0 1 .228-.095c.127 0 .218.047.272.138a.47.47 0 0 1 .056.2h-.654a.356.356 0 0 1 .098-.243zm-3.041-.091a.64.64 0 0 0-.155.447c0 .186.051.33.154.434a.5.5 0 0 0 .372.154c.06 0 .114-.005.161-.016a.474.474 0 0 0 .373-.381h-.195a.358.358 0 0 1-.075.133.324.324 0 0 1-.247.099c-.111 0-.193-.035-.246-.106a.48.48 0 0 1-.085-.278h.864c0-.115-.005-.199-.017-.251a.5.5 0 0 0-.08-.201.442.442 0 0 0-.179-.148.555.555 0 0 0-.243-.057c-.167 0-.3.057-.402.171zm.161.091a.305.305 0 0 1 .228-.095c.127 0 .218.047.273.138a.485.485 0 0 1 .055.2h-.654a.361.361 0 0 1 .098-.243zm-.692-.18a.407.407 0 0 0-.114.141v-.197h-.189v1.141h.199v-.656c0-.081.026-.153.08-.215.053-.063.13-.094.23-.094l.032.001.033.004V.981l-.045-.005-.019-.001a.293.293 0 0 0-.207.082zm-.752 0a.454.454 0 0 0-.113.141v-.197h-.187v1.141h.197v-.656c0-.081.028-.153.081-.215a.284.284 0 0 1 .229-.094l.033.001a.271.271 0 0 0 .033.004V.981a.432.432 0 0 0-.046-.005L9.674.975a.3.3 0 0 0-.208.082zm-5.63 0a.432.432 0 0 0-.114.141v-.197h-.188v1.141h.198v-.656c0-.081.027-.153.081-.215.052-.063.13-.094.23-.094l.031.001.033.004V.981a.396.396 0 0 0-.045-.005L4.044.975a.297.297 0 0 0-.208.082zm.443 1.085h.202V1.006h-.202v1.136z"/>
        <path id="ai" d="M12.224.577l-.343 1.565h.198l.342-1.565h-.197zm-.501 0l-.343 1.565h.197l.344-1.565h-.198zm-1.012 0l-.952 1.565h.225l.278-.469h.638l.063.469h.239L10.958.577h-.247zm.063.232l.094.691h-.507l.413-.691zM7.959.577l-.048.217h.2l.05-.217h-.202zm-3.512 0l-.952 1.565h.224l.278-.469h.64l.061.469h.239L4.694.577h-.247zm.063.232l.093.691h-.506L4.51.809zM1.82.577l-.047.217h.201l.048-.217H1.82zm-1.225 0L.252 2.142h1.036l.042-.187H.511L.813.577H.595zm14.042.478c-.102.055-.171.153-.206.294h.186a.32.32 0 0 1 .075-.133c.056-.054.134-.081.238-.081.089 0 .155.014.197.044.041.029.055.077.04.142a.19.19 0 0 1-.028.074.149.149 0 0 1-.104.056l-.325.037a.622.622 0 0 0-.291.108.396.396 0 0 0-.157.246.262.262 0 0 0 .051.241c.056.064.138.097.247.097a.624.624 0 0 0 .262-.057.749.749 0 0 0 .204-.132c-.004.045 0 .08.011.105.021.047.064.07.132.07a.391.391 0 0 0 .14-.02l.032-.141a.161.161 0 0 1-.037.004l-.03.002c-.027 0-.043-.006-.049-.018a.092.092 0 0 1-.002-.048l.145-.656c.023-.108-.003-.189-.077-.24a.579.579 0 0 0-.321-.076.71.71 0 0 0-.333.082zm-.134.914c-.035-.032-.046-.076-.033-.132a.223.223 0 0 1 .126-.159.553.553 0 0 1 .172-.044l.123-.014c.037-.005.077-.012.117-.022a.405.405 0 0 0 .101-.037l-.033.154a.353.353 0 0 1-.221.255.541.541 0 0 1-.214.047.197.197 0 0 1-.138-.048zm1.613-.951a.736.736 0 0 0-.208.145l.035-.162h-.189l-.248 1.141h.197l.13-.598a.896.896 0 0 1 .054-.173.345.345 0 0 1 .09-.116.388.388 0 0 1 .281-.108c.093 0 .149.036.169.107a.353.353 0 0 1-.006.169l-.157.719h.201l.161-.732a.55.55 0 0 0 .009-.265c-.034-.114-.135-.17-.301-.17a.554.554 0 0 0-.218.043zm-2.479.001a.609.609 0 0 0-.185.135.267.267 0 0 0-.064-.112c-.047-.045-.118-.067-.211-.067a.47.47 0 0 0-.237.065.899.899 0 0 0-.154.123l.035-.162h-.195l-.25 1.141h.198l.132-.606c.031-.147.084-.248.159-.304a.364.364 0 0 1 .222-.085c.082 0 .132.027.151.08a.367.367 0 0 1-.009.17l-.163.745h.202l.144-.664c.027-.118.073-.202.14-.253a.356.356 0 0 1 .217-.076c.057 0 .101.015.135.043.032.029.041.081.025.157l-.174.793h.205l.166-.76a.486.486 0 0 0 .007-.241c-.033-.111-.128-.166-.287-.166a.512.512 0 0 0-.209.044zm-5.214.127a.806.806 0 0 0-.252.447c-.042.186-.023.33.056.434a.401.401 0 0 0 .339.154.78.78 0 0 0 .166-.016.594.594 0 0 0 .249-.115.656.656 0 0 0 .125-.127.526.526 0 0 0 .082-.139h-.196a.441.441 0 0 1-.104.133.398.398 0 0 1-.268.099c-.111 0-.185-.035-.223-.106a.426.426 0 0 1-.024-.278h.863a1.22 1.22 0 0 0 .039-.251.438.438 0 0 0-.035-.201.323.323 0 0 0-.147-.148.476.476 0 0 0-.231-.057.637.637 0 0 0-.439.171zm.141.091a.381.381 0 0 1 .25-.095c.127 0 .207.047.241.138a.448.448 0 0 1 .012.2h-.654a.457.457 0 0 1 .151-.243zm-1.59-.219a.726.726 0 0 0-.209.145l.035-.162h-.187l-.25 1.141h.198l.131-.598a.855.855 0 0 1 .051-.173.424.424 0 0 1 .374-.224c.092 0 .148.036.167.107a.363.363 0 0 1-.005.169l-.158.719h.202l.161-.732a.577.577 0 0 0 .009-.265c-.034-.114-.134-.17-.302-.17a.55.55 0 0 0-.217.043zm-1.253 0a.74.74 0 0 0-.209.145l.035-.162H5.36l-.25 1.141h.198l.131-.598a.915.915 0 0 1 .052-.173.373.373 0 0 1 .09-.116.4.4 0 0 1 .163-.094.507.507 0 0 1 .12-.014c.092 0 .149.036.167.107a.363.363 0 0 1-.005.169l-.157.719h.201l.161-.732a.548.548 0 0 0 .008-.265c-.034-.114-.133-.17-.301-.17a.546.546 0 0 0-.217.043zm-2.753-.017l-.532.928-.112-.928h-.229l.184 1.141h.212l.694-1.141h-.217zm4.897.005l-.25 1.136h.202l.248-1.136h-.2zm-6.139 0l-.248 1.136h.201l.248-1.136h-.201z"/>
        <path id="ak" d="M1.911.824a.898.898 0 0 0-.163.543c0 .234.064.428.191.582.141.159.337.238.586.238.266 0 .471-.091.616-.272a.919.919 0 0 0 .183-.583.84.84 0 0 0-.161-.531C3.026.622 2.815.533 2.529.533c-.272 0-.478.098-.618.291zm.2.996a.704.704 0 0 1-.136-.439c0-.217.053-.38.158-.492a.541.541 0 0 1 .41-.167c.172 0 .308.056.407.169.1.112.149.26.149.444a.837.837 0 0 1-.129.462c-.087.133-.226.201-.419.201-.203 0-.349-.06-.44-.178zM5.494.758c-.147.154-.221.363-.221.625 0 .263.076.47.226.62a.73.73 0 0 0 .494.18c.148 0 .27-.026.367-.079a.832.832 0 0 0 .196-.164l.053.202h.14v-.838H6.04v.176h.506c-.002.183-.05.316-.146.398a.538.538 0 0 1-.362.123c-.192 0-.329-.058-.414-.175a.77.77 0 0 1-.125-.455c0-.215.05-.377.152-.486a.5.5 0 0 1 .378-.163c.126 0 .231.027.315.079a.38.38 0 0 1 .163.25h.216a.559.559 0 0 0-.294-.43.851.851 0 0 0-.394-.085.71.71 0 0 0-.541.222zm-1.752 0c-.147.154-.221.363-.221.625 0 .263.075.47.225.62.14.12.303.18.494.18a.753.753 0 0 0 .367-.079.855.855 0 0 0 .198-.164l.052.202h.14v-.838h-.708v.176h.506c-.004.183-.053.316-.148.398a.536.536 0 0 1-.363.123c-.19 0-.327-.058-.412-.175a.763.763 0 0 1-.127-.455c0-.215.052-.377.154-.486a.5.5 0 0 1 .378-.163c.127 0 .231.027.313.079a.377.377 0 0 1 .164.25h.217c-.036-.204-.134-.347-.295-.43a.847.847 0 0 0-.393-.085.706.706 0 0 0-.541.222zM9.206.577v.186h.544v1.379h.223V.763h.544V.577H9.206zm-.425 0v.967a.578.578 0 0 1-.054.269c-.068.123-.194.185-.379.185-.154 0-.265-.057-.33-.171a.551.551 0 0 1-.065-.283V.577H7.73v.879c0 .192.028.34.08.444.098.189.283.283.556.283.273 0 .459-.094.556-.283.054-.104.08-.252.08-.444V.577h-.221zm-8.203 0v1.565h1.039v-.187H.799V.577H.578z"/>
        <path id="am" d="M2.89.319c-1.1 0-2.004.894-2.004 1.998V6.32c0 1.111.897 1.998 2.004 1.998h167.808c1.1 0 2.003-.895 2.003-1.998V2.317a1.995 1.995 0 0 0-2.003-1.998H2.89z"/>
        <path id="ao" d="M.108.23v23.816h369.827V.23z"/>
        <path id="aq" d="M1.391.252c-.245 0-.443.163-.443.363v6c0 .201.198.364.443.364h26.85c.243 0 .441-.163.441-.364v-6c0-.2-.198-.363-.441-.363H1.391z"/>
        <path id="as" d="M1.391.252c-.245 0-.443.163-.443.363v5.636c0 .201.198.364.443.364h26.85c.243 0 .441-.163.441-.364V.615c0-.2-.198-.363-.441-.363H1.391z"/>
        <path id="au" d="M2.372.863A2 2 0 0 0 .371 2.864v5.968a2 2 0 0 0 2.001 2h51.33a2 2 0 0 0 1.999-2V2.864A2 2 0 0 0 53.702.863H2.372z"/>
        <path id="aw" d="M2.129.863a2 2 0 0 0-2 2.001v5.968a2 2 0 0 0 2 2H53.46a2 2 0 0 0 2-2V2.864a2 2 0 0 0-2-2.001H2.129z"/>
        <path id="ay" d="M17.098.918c0 .305.257.522.607.522.356 0 .607-.217.607-.522 0-.306-.251-.517-.607-.517-.35 0-.607.211-.607.517zm-5.707 0c0 .305.257.522.607.522.357 0 .607-.217.607-.522 0-.306-.25-.517-.607-.517-.35 0-.607.211-.607.517zM35.31.544v3.713c0 .678.242 1.126.964 1.126.236 0 .414-.034.528-.081l-.128-.74c-.057.014-.085.014-.128.014-.087 0-.186-.068-.186-.279V.544h-1.05zm-30.233 0v4.758h1.022v-.828l.45-.482.8 1.31h1.135L7.149 3.321l1.242-1.385H7.249L6.127 3.272h-.028V.544H5.077zM1.935.877L.478 5.302h1.071l.286-1.052h1.421l.286 1.052h1.114L3.199.877H1.935zm.229 2.185c.128-.441.25-.956.364-1.425h.028c.122.461.25.984.378 1.425l.108.407h-.993l.115-.407zM25.71 1.039l-.121.897-.543.04v.741h.486V4.08c0 .781.343 1.303 1.222 1.303.342 0 .6-.068.785-.122l-.164-.726a1.045 1.045 0 0 1-.335.068c-.278 0-.457-.156-.457-.536v-1.35h.849v-.781h-.849v-.897h-.873zm-6.234 0l-.121.897-.544.04v.741h.486V4.08c0 .781.343 1.303 1.221 1.303.343 0 .601-.068.786-.122l-.164-.726a1.045 1.045 0 0 1-.335.068c-.279 0-.458-.156-.458-.536v-1.35h.85v-.781h-.85v-.897h-.871zm-10.414 0l-.12.897-.544.04v.741h.486V4.08c0 .781.343 1.303 1.221 1.303.343 0 .601-.068.786-.122l-.165-.726a1.04 1.04 0 0 1-.335.068c-.278 0-.457-.156-.457-.536v-1.35h.85v-.781h-.85v-.897h-.872zm33.011 1.324h-.028l-.072-.427h-.856v3.366h1.049V3.028c.229-.21.393-.326.658-.326.3 0 .436.15.436.638v1.962h1.049v-2.09c0-.842-.329-1.358-1.1-1.358-.478 0-.835.238-1.136.509zm-4.763-.067l.378.657c.343-.189.636-.305.936-.305.385 0 .536.19.557.489-1.401.135-1.993.523-1.993 1.229 0 .569.407 1.017 1.058 1.017.399 0 .728-.176 1.027-.427h.029l.071.346h.858V3.375c0-1.033-.5-1.521-1.408-1.521-.556 0-1.063.183-1.513.442zm.884 1.995c0-.258.244-.462.987-.556v.59c-.186.176-.342.284-.579.284-.25 0-.408-.101-.408-.318zm-6.02-2.023h-.028l-.072-.332h-.856v4.615h1.049v-.984l-.035-.536c.25.224.535.352.842.352.764 0 1.492-.665 1.492-1.819 0-1.038-.528-1.71-1.385-1.71-.371 0-.729.177-1.007.414zm.093 2.084V2.974c.207-.21.393-.306.607-.306.422 0 .615.306.615.91 0 .692-.293.991-.658.991a.837.837 0 0 1-.564-.217zm-4.35-1.445c0 .556.508.834.936.99.364.136.722.238.722.461 0 .177-.136.286-.451.286-.3 0-.592-.123-.913-.353l-.471.624c.356.278.892.468 1.356.468.951 0 1.457-.475 1.457-1.086 0-.617-.506-.855-.957-1.011-.364-.129-.692-.21-.692-.428 0-.169.127-.265.399-.265.25 0 .493.109.75.286l.472-.597c-.307-.218-.707-.428-1.25-.428-.821 0-1.358.428-1.358 1.053zm-6.363.711c0 1.114.779 1.765 1.793 1.765.421 0 .893-.142 1.257-.379l-.351-.604a1.475 1.475 0 0 1-.763.224c-.472 0-.829-.224-.921-.713h2.121a2.15 2.15 0 0 0 .042-.442c0-.916-.499-1.615-1.507-1.615-.85 0-1.671.672-1.671 1.764zm1.692-1.004c.422 0 .593.265.593.638h-1.278c.071-.427.358-.638.685-.638zm-6.063 2.688h1.05V1.935h-1.05v3.367zm-1.556-3.366l-.464 1.588c-.093.332-.187.686-.272 1.038h-.029c-.093-.352-.186-.706-.278-1.038l-.457-1.588h-1.058l1.193 3.366h1.214l1.157-3.366h-1.006zm-4.15 3.366h1.049V1.935h-1.049v3.367z"/>
        <path id="aA" d="M.794 2.09l.638.067.541-.235L1.175.679z"/>
        <path id="aC" d="M.598.09l1.05 6.678.393-.057L.991.035z"/>
        <path id="aE" d="M.204.147l1.051 6.677.393-.056L.598.09z"/>
        <path id="aG" d="M.811.203L1.862 6.88l.393-.056L1.204.147z"/>
        <path id="aI" d="M.884.362l-.153.678a.184.184 0 0 0 .132.219l1.129.27a.178.178 0 0 0 .212-.137l.152-.678a.182.182 0 0 0-.131-.218l-1.13-.27a.192.192 0 0 0-.041-.005.177.177 0 0 0-.17.141z"/>
        <path id="aK" d="M.207 1.463l.565.253.567-.079L.97.172z"/>
        <path id="aM" d="M.947 7.635l.377.058.997-6.939-.377-.058z"/>
        <path id="aO" d="M.568 7.577l.379.058.997-6.938-.377-.059z"/>
        <path id="aQ" d="M.191 7.519l.377.058.999-6.939-.378-.057z"/>
        <path id="aS" d="M.827.615L2.3.967 2.346.76.873.408z"/>
        <path id="aU" d="M.32 2.35l.588.191.556-.139L.951.984z"/>
        <path id="aW" d="M.934 4.064l.382.017.143-3.56-.381-.017z"/>
        <path id="aY" d="M.553 4.046l.381.018.144-3.56L.696.486z"/>
        <path id="ba" d="M.172 4.03l.381.016.142-3.56-.38-.018z"/>
        <path id="bc" d="M.486.384l.579 5.13H5.11l.58-5.13z"/>
    </defs>
    <g fill="none" fill-rule="evenodd">
        <circle cx="196" cy="196" r="196" fill="#FFF" transform="translate(39)"/>
        <g transform="translate(0 262)">
            <mask id="b" fill="#fff">
                <use xlink:href="#a"/>
            </mask>
            <path fill="#AAB0B8" d="M-4.514 51h399V-5h-399z" mask="url(#b)"/>
        </g>
        <g transform="translate(0 45)">
            <mask id="d" fill="#fff">
                <use xlink:href="#c"/>
            </mask>
            <path fill="#4F6571" d="M-4.514 222h399V-5h-399z" mask="url(#d)"/>
        </g>
        <g transform="translate(13 56)">
            <mask id="f" fill="#fff">
                <use xlink:href="#e"/>
            </mask>
            <path fill="#617180" d="M-4.514 198h373V-5h-373z" mask="url(#f)"/>
        </g>
        <path fill="#AAB0B8" d="M149.486 342h92v-35h-92z"/>
        <path fill="#AAB0B8" d="M114.486 348h162v-11h-162z"/>
        <g transform="translate(193 284)">
            <mask id="h" fill="#fff">
                <use xlink:href="#g"/>
            </mask>
            <path fill="#9498A2" d="M-4.514 12h17V-5h-17z" mask="url(#h)"/>
        </g>
        <path fill="#E4E7E6" d="M11.194 247.642h370.019V56.159H11.194z"/>
        <g transform="translate(168 143)">
            <mask id="j" fill="#fff">
                <use xlink:href="#i"/>
            </mask>
            <path fill="#C5C1BE" d="M-4.689 14.771h65.331V-4.501H-4.689z" mask="url(#j)"/>
        </g>
        <g transform="translate(109 143)">
            <mask id="l" fill="#fff">
                <use xlink:href="#k"/>
            </mask>
            <path fill="#C5C1BE" d="M-4.689 14.771h65.331V-4.501H-4.689z" mask="url(#l)"/>
        </g>
        <g transform="translate(218 145)">
            <mask id="n" fill="#fff">
                <use xlink:href="#m"/>
            </mask>
            <path fill="#3D3731" d="M-4.689 9.332H9.227V-4.501H-4.689z" mask="url(#n)"/>
        </g>
        <g transform="translate(219 146)">
            <mask id="p" fill="#fff">
                <use xlink:href="#o"/>
            </mask>
            <path fill="#3D3731" d="M-4.327 7.082H6.864V-4.585H-4.327z" mask="url(#p)"/>
        </g>
        <g transform="translate(220 148)">
            <mask id="r" fill="#fff">
                <use xlink:href="#q"/>
            </mask>
            <path fill="#3D3731" d="M-4.901 5.705H5.565V-4.752H-4.901z" mask="url(#r)"/>
        </g>
        <g transform="translate(158 145)">
            <mask id="t" fill="#fff">
                <use xlink:href="#s"/>
            </mask>
            <path fill="#3D3731" d="M-4.689 9.332H9.228V-4.501H-4.689z" mask="url(#t)"/>
        </g>
        <g transform="translate(159 146)">
            <mask id="v" fill="#fff">
                <use xlink:href="#u"/>
            </mask>
            <path fill="#3D3731" d="M-4.327 7.082H6.865V-4.585H-4.327z" mask="url(#v)"/>
        </g>
        <g transform="translate(160 148)">
            <mask id="x" fill="#fff">
                <use xlink:href="#w"/>
            </mask>
            <path fill="#3D3731" d="M-4.901 5.705H5.566V-4.752H-4.901z" mask="url(#x)"/>
        </g>
        <g transform="translate(226 143)">
            <mask id="z" fill="#fff">
                <use xlink:href="#y"/>
            </mask>
            <path fill="#C5C1BE" d="M-4.628 14.589h65.33v-19.09h-65.33z" mask="url(#z)"/>
        </g>
        <g transform="translate(284 143)">
            <mask id="B" fill="#fff">
                <use xlink:href="#A"/>
            </mask>
            <path fill="#C5C1BE" d="M-4.386 14.589h65.33v-19.09h-65.33z" mask="url(#B)"/>
        </g>
        <g transform="translate(51 143)">
            <mask id="D" fill="#fff">
                <use xlink:href="#C"/>
            </mask>
            <path fill="#C5C1BE" d="M-4.174 100.037h65.331V-4.501H-4.174z" mask="url(#D)"/>
        </g>
        <g transform="translate(101 145)">
            <mask id="F" fill="#fff">
                <use xlink:href="#E"/>
            </mask>
            <path fill="#3D3731" d="M-4.304 9.68H9.613V-4.138H-4.304z" mask="url(#F)"/>
        </g>
        <g transform="translate(103 146)">
            <mask id="H" fill="#fff">
                <use xlink:href="#G"/>
            </mask>
            <path fill="#3D3731" d="M-4.942 7.435H6.25v-11.66H-4.942z" mask="url(#H)"/>
        </g>
        <g transform="translate(103 148)">
            <mask id="J" fill="#fff">
                <use xlink:href="#I"/>
            </mask>
            <path fill="#3D3731" d="M-4.516 6.056H5.951V-4.399H-4.516z" mask="url(#J)"/>
        </g>
        <g transform="translate(53 152)">
            <mask id="L" fill="#fff">
                <use xlink:href="#K"/>
            </mask>
            <path fill="#FFF" d="M-4.718 29.041H57.7V-4.23H-4.718z" mask="url(#L)"/>
        </g>
        <g transform="translate(56 168)">
            <mask id="N" fill="#fff">
                <use xlink:href="#M"/>
            </mask>
            <path fill="#D9DC96" d="M-4.624 10.132h31.659V-4.413H-4.624z" mask="url(#N)"/>
        </g>
        <g transform="translate(53 177)">
            <mask id="P" fill="#fff">
                <use xlink:href="#O"/>
            </mask>
            <path fill="#FFF" d="M-4.718 28.948H57.7V-4.323H-4.718z" mask="url(#P)"/>
        </g>
        <g transform="translate(56 193)">
            <mask id="R" fill="#fff">
                <use xlink:href="#Q"/>
            </mask>
            <path fill="#D9DC96" d="M-4.624 10.039h31.659V-4.506H-4.624z" mask="url(#R)"/>
        </g>
        <g transform="translate(53 202)">
            <mask id="T" fill="#fff">
                <use xlink:href="#S"/>
            </mask>
            <path fill="#FFF" d="M-4.718 32.309H57.7V-4.598H-4.718z" mask="url(#T)"/>
        </g>
        <g transform="translate(56 222)">
            <mask id="V" fill="#fff">
                <use xlink:href="#U"/>
            </mask>
            <path fill="#D9DC96" d="M-4.624 9.582h31.659V-4.963H-4.624z" mask="url(#V)"/>
        </g>
        <path fill="#3F3631" d="M10.691 63.788h370.642v-7.581H10.691z"/>
        <path fill="#FFF" d="M10.94 90.23h370.216V63.869H10.94z"/>
        <path stroke="#B9B1A9" stroke-linecap="square" d="M10.986 90.122h369.856M11.528 82.247h369.447"/>
        <g transform="translate(121 85)">
            <mask id="X" fill="#fff">
                <use xlink:href="#W"/>
            </mask>
            <path fill="#3D3731" d="M-4.618 7.172h20.899V-4.92H-4.618z" mask="url(#X)"/>
        </g>
        <path fill="#3F3631" d="M133.71 85.503l1.156 1.09 1.154-1.09z"/>
        <g transform="translate(141 85)">
            <mask id="Z" fill="#fff">
                <use xlink:href="#Y"/>
            </mask>
            <path fill="#3D3731" d="M-4.407 7.139h21.432V-4.888H-4.407z" mask="url(#Z)"/>
        </g>
        <path fill="#3F3631" d="M154.114 85.503l1.155 1.09 1.154-1.09z"/>
        <g transform="translate(161 85)">
            <mask id="ab" fill="#fff">
                <use xlink:href="#aa"/>
            </mask>
            <path fill="#3D3731" d="M-4.389 7.172h34.981V-4.92H-4.389z" mask="url(#ab)"/>
        </g>
        <path fill="#3F3631" d="M188.376 85.503l1.155 1.09 1.154-1.09z"/>
        <path fill="#0066C7" d="M208.394 85.503l1.156 1.09 1.154-1.09z"/>
        <g transform="translate(194 85)">
            <mask id="ad" fill="#fff">
                <use xlink:href="#ac"/>
            </mask>
            <path fill="#0066C7" d="M-4.282 7.139h22.714V-4.888H-4.282z" mask="url(#ad)"/>
        </g>
        <path fill="#3F3631" d="M91.749 63.869h198.244v-7.636H91.749z"/>
        <g transform="translate(172 59)">
            <mask id="af" fill="#fff">
                <use xlink:href="#ae"/>
            </mask>
            <path fill="#FFF" d="M-4.332 7.609h21.913V-4.423H-4.332z" mask="url(#af)"/>
        </g>
        <g transform="translate(194 59)">
            <mask id="ah" fill="#fff">
                <use xlink:href="#ag"/>
            </mask>
            <path fill="#FFF" d="M-4.137 7.192h23.686V-4.463H-4.137z" mask="url(#ah)"/>
        </g>
        <g transform="translate(251 59)">
            <mask id="aj" fill="#fff">
                <use xlink:href="#ai"/>
            </mask>
            <path fill="#FFF" d="M-4.749 7.182h26.396V-4.423H-4.749z" mask="url(#aj)"/>
        </g>
        <path fill="#00AADF" d="M269.084 62.414h15.294v-4.363h-15.294z"/>
        <g transform="translate(271 59)">
            <mask id="al" fill="#fff">
                <use xlink:href="#ak"/>
            </mask>
            <path fill="#000" d="M-4.421 7.187h19.938V-4.466H-4.421z" mask="url(#al)"/>
        </g>
        <path fill="#FFF" d="M180.736 79.867h22.153V66.596h-22.153z"/>
        <path stroke="#3D3731" stroke-linecap="round" stroke-linejoin="round" stroke-width=".3" d="M260.144 87.71c0 .351-.24.635-.535.635-.295 0-.534-.284-.534-.635h1.07zm.974-.855v-.903c0-.598-.412-1.108-.988-1.305a.52.52 0 0 0-.526-.417c-.268 0-.489.181-.528.417-.576.197-.987.707-.987 1.305v.903c0 .272-.239.492-.534.492h4.097c-.295 0-.534-.22-.534-.492z"/>
        <g transform="translate(109 119)">
            <mask id="an" fill="#fff">
                <use xlink:href="#am"/>
            </mask>
            <path fill="#FFF" d="M-4.114 13.318h181.815v-18H-4.114z" mask="url(#an)"/>
        </g>
        <g transform="translate(11 90)">
            <mask id="ap" fill="#fff">
                <use xlink:href="#ao"/>
            </mask>
            <path fill="#C1E8F5" d="M-4.892 29.046h379.827V-4.77H-4.892z" mask="url(#ap)"/>
        </g>
        <g transform="translate(109 130)">
            <mask id="ar" fill="#fff">
                <use xlink:href="#aq"/>
            </mask>
            <path fill="#3D3731" d="M-4.052 11.979h37.734V-4.748H-4.052z" mask="url(#ar)"/>
        </g>
        <g transform="translate(109 130)">
            <mask id="at" fill="#fff">
                <use xlink:href="#as"/>
            </mask>
            <path fill="#0266C3" d="M-4.052 11.615h37.734V-4.748H-4.052z" mask="url(#at)"/>
        </g>
        <g transform="translate(226 129)">
            <mask id="av" fill="#fff">
                <use xlink:href="#au"/>
            </mask>
            <path fill="#FFF" d="M-4.628 15.832h65.33V-4.137h-65.33z" mask="url(#av)"/>
        </g>
        <g transform="translate(168 129)">
            <mask id="ax" fill="#fff">
                <use xlink:href="#aw"/>
            </mask>
            <path fill="#FFF" d="M-4.871 15.832H60.46V-4.137H-4.871z" mask="url(#ax)"/>
        </g>
        <path stroke="#3D3731" stroke-linecap="round" stroke-linejoin="round" stroke-width=".3" d="M275.486 134l1.595 1.594 1.593-1.594m-61.188 0l1.595 1.594 1.593-1.594"/>
        <g transform="translate(174 105)">
            <mask id="az" fill="#fff">
                <use xlink:href="#ay"/>
            </mask>
            <path fill="#3D3731" d="M-4.522 11.55h53.831V-4.599H-4.522z" mask="url(#az)"/>
        </g>
        <g transform="translate(166 100)">
            <mask id="aB" fill="#fff">
                <use xlink:href="#aA"/>
            </mask>
            <path fill="#E0CFB3" d="M-4.206 7.158H6.973V-4.321H-4.206z" mask="url(#aB)"/>
        </g>
        <g transform="translate(167 102)">
            <mask id="aD" fill="#fff">
                <use xlink:href="#aC"/>
            </mask>
            <path fill="#E7C161" d="M-4.402 11.768H7.041V-4.965H-4.402z" mask="url(#aD)"/>
        </g>
        <g transform="translate(167 102)">
            <mask id="aF" fill="#fff">
                <use xlink:href="#aE"/>
            </mask>
            <path fill="#D7AF5A" d="M-4.795 11.823H6.648V-4.91H-4.795z" mask="url(#aF)"/>
        </g>
        <g transform="translate(166 102)">
            <mask id="aH" fill="#fff">
                <use xlink:href="#aG"/>
            </mask>
            <path fill="#E7C161" d="M-4.189 11.88H7.254V-4.853H-4.189z" mask="url(#aH)"/>
        </g>
        <g transform="translate(169 106)">
            <mask id="aJ" fill="#fff">
                <use xlink:href="#aI"/>
            </mask>
            <path fill="#C12931" d="M-4.273 6.533H7.361V-4.779H-4.273z" mask="url(#aJ)"/>
        </g>
        <g transform="translate(171 98)">
            <mask id="aL" fill="#fff">
                <use xlink:href="#aK"/>
            </mask>
            <path fill="#E0CFB3" d="M-4.793 6.715H6.339V-4.828H-4.793z" mask="url(#aL)"/>
        </g>
        <g transform="translate(170 99)">
            <mask id="aN" fill="#fff">
                <use xlink:href="#aM"/>
            </mask>
            <path fill="#AEC7C5" d="M-4.054 12.692H7.321V-4.304H-4.054z" mask="url(#aN)"/>
        </g>
        <g transform="translate(170 99)">
            <mask id="aP" fill="#fff">
                <use xlink:href="#aO"/>
            </mask>
            <path fill="#97B2B2" d="M-4.431 12.635H6.944V-4.361H-4.431z" mask="url(#aP)"/>
        </g>
        <g transform="translate(170 99)">
            <mask id="aR" fill="#fff">
                <use xlink:href="#aQ"/>
            </mask>
            <path fill="#AEC7C5" d="M-4.809 12.577H6.566V-4.419H-4.809z" mask="url(#aR)"/>
        </g>
        <g transform="translate(169 106)">
            <mask id="aT" fill="#fff">
                <use xlink:href="#aS"/>
            </mask>
            <path fill="#525756" d="M-4.173 5.967h11.52V-4.592h-11.52z" mask="url(#aT)"/>
        </g>
        <g transform="translate(169 101)">
            <mask id="aV" fill="#fff">
                <use xlink:href="#aU"/>
            </mask>
            <path fill="#E0CFB3" d="M-4.68 7.541H6.464V-4.016H-4.68z" mask="url(#aV)"/>
        </g>
        <g transform="translate(169 103)">
            <mask id="aX" fill="#fff">
                <use xlink:href="#aW"/>
            </mask>
            <path fill="#96A847" d="M-4.066 9.081H6.458V-4.497H-4.066z" mask="url(#aX)"/>
        </g>
        <g transform="translate(169 103)">
            <mask id="aZ" fill="#fff">
                <use xlink:href="#aY"/>
            </mask>
            <path fill="#717B2D" d="M-4.446 9.064H6.078V-4.514H-4.446z" mask="url(#aZ)"/>
        </g>
        <g transform="translate(169 103)">
            <mask id="bb" fill="#fff">
                <use xlink:href="#ba"/>
            </mask>
            <path fill="#96A847" d="M-4.828 9.046H5.696V-4.532H-4.828z" mask="url(#bb)"/>
        </g>
        <g transform="translate(166 105)">
            <mask id="bd" fill="#fff">
                <use xlink:href="#bc"/>
            </mask>
            <path fill="#4F7F89" d="M-4.514 10.917H10.69V-4.616H-4.514z" mask="url(#bd)"/>
        </g>
        <path fill="#373737" d="M54.925 149.112h13.951v-1.825H54.925zM112.227 149.112h13.951v-1.825h-13.951zM171.401 149.112h22.3v-1.825h-22.3zM171.401 136.275h22.3v-1.826h-22.3zM229.31 149.112h14.009v-1.825H229.31zM287.449 149.112h14.009v-1.825h-14.009zM229.31 136.275h7.632v-1.826h-7.632z"/>
        <path fill="#7E746B" d="M57.332 157.99h28.807v-1.119H57.332z"/>
        <path fill="#373737" d="M57.332 162.133h28.807v-1.562H57.332zM57.332 164.8h31.943v-.749H57.332zM112.633 124.262h8.132v-1.288h-8.132z"/>
        <path fill="#FFF" d="M113.781 134.043h20.106v-1.288h-20.106z"/>
        <path fill="#373737" d="M124.176 124.262h4.588v-1.288h-4.588zM132.24 124.262h13.541v-1.288H132.24zM149.362 124.262h7.812v-1.288h-7.812zM62.063 171.392h10.291v-.749H62.063zM62.063 196.284h10.291v-.749H62.063zM62.063 224.716h10.291v-.749H62.063z"/>
        <path fill="#7E746B" d="M57.332 182.502h28.807v-1.119H57.332z"/>
        <path fill="#373737" d="M57.332 186.645h28.807v-1.562H57.332zM57.332 189.313h31.943v-.749H57.332z"/>
        <path fill="#7E746B" d="M56.332 206.827h28.807v-1.118H56.332z"/>
        <path fill="#373737" d="M56.332 214.604h28.807v-1.562H56.332zM56.332 210.874h15.609v-1.562H56.332zM56.332 218.052h31.943v-.748H56.332z"/>
        <g>
            <path fill="#FFCA85" d="M449.224 176.388c4.755 0 8.615 3.86 8.615 8.61v75.397a8.616 8.616 0 0 1-8.615 8.617H396.9v35.595l-45.827-35.595h-50.646a8.613 8.613 0 0 1-8.616-8.617v-75.398c0-4.75 3.856-8.609 8.616-8.609h148.797z"/>
            <path fill="#337C9B" d="M306.464 199.01H157.106c-4.328 0-7.84 3.14-7.84 7.014v83.385c0 3.876 3.512 7.01 7.84 7.01h47.214v28.986l41.69-28.987h60.454c4.333 0 7.843-3.133 7.843-7.009v-83.385c0-3.875-3.51-7.015-7.843-7.015"/>
            <g fill="#979797" transform="translate(339 217)">
                <ellipse cx="9.388" cy="9.5" rx="9.388" ry="9.5"/>
                <ellipse cx="37" cy="9.5" rx="9.388" ry="9.5"/>
                <ellipse cx="64.612" cy="9.5" rx="9.388" ry="9.5"/>
            </g>
            <g fill="#D8D8D8" transform="translate(193 242)">
                <ellipse cx="9.388" cy="9.5" rx="9.388" ry="9.5"/>
                <ellipse cx="37" cy="9.5" rx="9.388" ry="9.5"/>
                <ellipse cx="64.612" cy="9.5" rx="9.388" ry="9.5"/>
            </g>
        </g>
    </g>
</svg>
