<svg width="314" height="269" xmlns="http://www.w3.org/2000/svg" xmlns:xlink="http://www.w3.org/1999/xlink"><defs><circle id="a" cx="134.5" cy="134.5" r="134.5"/><path d="M.333 0v22.865c0 4.811 3.83 8.713 8.555 8.713h249.205c4.727 0 8.555-3.902 8.555-8.713V0H.333z" id="b"/><path d="M8.888 0C4.162 0 .333 3.85.333 8.599v140.365h266.315V8.599c0-4.75-3.828-8.599-8.555-8.599H8.888z" id="d"/><path d="M4.693 0C2.285 0 .333 1.974.333 4.406v128.082h248.515V4.406c0-2.432-1.952-4.406-4.36-4.406H4.692z" id="f"/><path d="M.333 2.403a2.399 2.399 0 0 0 2.394 2.402 2.402 2.402 0 0 0 2.398-2.402A2.401 2.401 0 0 0 2.727 0 2.399 2.399 0 0 0 .333 2.403z" id="h"/><path d="M1.584.343A1.37 1.37 0 0 0 .212 1.715v3.619a1.37 1.37 0 0 0 1.372 1.373h35.138c.76 0 1.37-.615 1.37-1.373V1.715c0-.763-.613-1.372-1.37-1.372H1.584z" id="j"/><path d="M1.583.343c-.76 0-1.37.614-1.37 1.372v3.619c0 .763.613 1.373 1.37 1.373h35.14c.759 0 1.37-.615 1.37-1.373V1.715c0-.763-.614-1.372-1.37-1.372H1.582z" id="l"/><path d="M.213 1.658a1.33 1.33 0 0 0 1.34 1.316c.74 0 1.34-.591 1.34-1.316 0-.726-.6-1.315-1.34-1.315-.739 0-1.34.59-1.34 1.315zm.116 0C.33.995.88.457 1.553.457c.676 0 1.224.538 1.224 1.2 0 .663-.548 1.201-1.224 1.201a1.214 1.214 0 0 1-1.224-1.2z" id="n"/><path d="M.46.685c0 .032.027.058.059.058A.059.059 0 0 0 .578.685.29.29 0 0 1 .868.4c.161 0 .292.129.292.286A.29.29 0 0 1 .87.971a.057.057 0 0 0-.058.057v.344a.058.058 0 0 0 .116 0v-.29a.404.404 0 0 0 .35-.397c0-.22-.182-.4-.408-.4a.405.405 0 0 0-.408.4z" id="p"/><path d="M.068.327c0 .087.071.157.159.157.089 0 .16-.07.16-.157A.159.159 0 0 0 .227.17a.158.158 0 0 0-.16.157z" id="r"/><path d="M.213 1.658c0 .725.602 1.316 1.34 1.316.74 0 1.34-.591 1.34-1.316 0-.726-.6-1.315-1.34-1.315-.738 0-1.34.59-1.34 1.315zm.116 0C.33.995.88.457 1.553.457c.675 0 1.224.538 1.224 1.2 0 .663-.549 1.201-1.224 1.201a1.214 1.214 0 0 1-1.224-1.2z" id="t"/><path d="M.46.685a.058.058 0 0 0 .117 0A.29.29 0 0 1 .87.4c.16 0 .291.129.291.286A.29.29 0 0 1 .87.971a.057.057 0 0 0-.058.057v.344a.058.058 0 0 0 .116 0v-.29a.405.405 0 0 0 .35-.397c0-.22-.184-.4-.408-.4a.405.405 0 0 0-.408.4z" id="v"/><path d="M.068.327c0 .087.071.157.16.157.088 0 .16-.07.16-.157A.159.159 0 0 0 .227.17c-.089 0-.16.071-.16.157z" id="x"/><path d="M1.625.343C.864.343.254.956.254 1.71v3.502c0 .748.613 1.369 1.37 1.369h35.14c.76 0 1.37-.613 1.37-1.369V1.711c0-.748-.614-1.368-1.37-1.368H1.624z" id="z"/><path d="M1.79.343C1.031.343.42.956.42 1.71v3.502c0 .748.614 1.369 1.37 1.369H36.93c.76 0 1.371-.613 1.371-1.369V1.711c0-.748-.613-1.368-1.371-1.368H1.79z" id="B"/><path d="M1.936.343c-.76 0-1.37.613-1.37 1.37v62.156c0 .748.613 1.37 1.37 1.37h35.14c.759 0 1.37-.613 1.37-1.37V1.712c0-.749-.614-1.37-1.37-1.37H1.935z" id="D"/><path d="M.476 1.902c0 .722.602 1.31 1.341 1.31s1.341-.588 1.341-1.31c0-.723-.602-1.311-1.341-1.311-.74 0-1.34.588-1.34 1.31zm.117 0c0-.66.55-1.196 1.224-1.196.675 0 1.225.536 1.225 1.196 0 .66-.55 1.197-1.225 1.197-.674 0-1.224-.537-1.224-1.197z" id="F"/><path d="M.04.93c0 .032.026.058.058.058A.058.058 0 0 0 .157.93c0-.157.13-.285.29-.285C.61.646.74.774.74.931c0 .156-.13.284-.291.284a.058.058 0 0 0-.058.057v.343c0 .031.026.057.058.057a.057.057 0 0 0 .058-.057v-.29A.4.4 0 0 0 .856.93.404.404 0 0 0 .448.532.404.404 0 0 0 .04.931z" id="H"/><path d="M.331.568c0 .087.072.156.16.156.088 0 .16-.07.16-.156a.158.158 0 0 0-.16-.155c-.088 0-.16.07-.16.155z" id="J"/><path d="M1.556.53C.801.53.193 1.143.193 1.903v13.224c0 .759.61 1.375 1.363 1.375h33.16c.756 0 1.363-.615 1.363-1.375V1.904c0-.759-.61-1.375-1.363-1.375H1.556z" id="L"/><path d="M1.816.403c-.863 0-1.559.698-1.559 1.56 0 .867.698 1.56 1.56 1.56h11.71c.864 0 1.559-.699 1.559-1.56 0-.868-.699-1.56-1.56-1.56H1.817z" id="N"/><path d="M1.556.465C.801.465.193 1.08.193 1.84v13.223c0 .758.61 1.376 1.363 1.376h33.16c.756 0 1.363-.617 1.363-1.376V1.84c0-.76-.61-1.376-1.363-1.376H1.556z" id="P"/><path d="M1.816.34C.953.34.257 1.037.257 1.898c0 .867.698 1.56 1.56 1.56h11.71c.864 0 1.559-.698 1.559-1.56 0-.867-.699-1.56-1.56-1.56H1.817z" id="R"/><path d="M1.556.276C.801.276.193.891.193 1.65v15.725c0 .757.61 1.372 1.363 1.372h33.16c.756 0 1.363-.615 1.363-1.372V1.65c0-.759-.61-1.374-1.363-1.374H1.556z" id="T"/><path d="M1.816.025C.953.025.257.724.257 1.585c0 .868.698 1.56 1.56 1.56h11.71c.864 0 1.559-.698 1.559-1.56 0-.867-.699-1.56-1.56-1.56H1.817z" id="V"/><path d="M5.254.743c0 .468.188.748.577.748.386 0 .577-.28.577-.748 0-.466-.193-.688-.577-.688-.387 0-.577.222-.577.688zm.235.029c0-.445.134-.516.342-.516.201 0 .339.07.339.516 0 .437-.158.529-.34.529-.19 0-.34-.092-.34-.53zM3.987.468c0 .253.245.332.459.41.158.056.275.113.275.23 0 .107-.089.185-.296.185-.115 0-.2-.022-.368-.104l-.086.182c.176.082.28.12.441.12.35 0 .541-.154.541-.418 0-.253-.269-.341-.454-.407-.2-.074-.274-.126-.274-.23 0-.086.08-.172.265-.172.102 0 .184.028.332.098l.092-.18a.834.834 0 0 0-.409-.125c-.271 0-.518.095-.518.411zM7.5.076v.626l.01.355L7.38.81 6.943.076h-.198v1.392h.225v-.62L6.96.492l.13.248.436.728h.197V.076h-.225zm-4.813 0v1.392h.222v-.56h.288l.276.56h.245L3.422.872c.169-.074.22-.234.22-.422 0-.223-.098-.374-.425-.374h-.53zm.222.197h.278c.179 0 .222.056.222.197 0 .172-.053.24-.188.24h-.312V.273zM.262.076v1.392h.222V.922h.288c.328 0 .43-.204.43-.463 0-.352-.23-.38-.474-.383H.262zm.222.199h.257c.18 0 .226.06.226.203C.967.65.91.713.776.716H.484V.275zM1.517.079v1.39h.85V1.27h-.625V.829h.508V.636h-.508V.273h.625V.079h-.85z" id="X"/><path d="M7.267.076v.197h.368v1.195h.228V.273h.37V.076h-.966zM5.644 1.468h.225V.076h-.225v1.392zM4.319.076v1.392h.221v-.56h.289l.275.56h.245L5.055.872c.168-.074.22-.234.22-.422 0-.223-.1-.374-.426-.374h-.53zm.221.197h.278c.179 0 .222.056.222.197 0 .172-.053.24-.187.24H4.54V.273zM2.934.076v1.392H3.4c.387 0 .578-.257.578-.725 0-.466-.191-.667-.578-.667h-.466zm.223.199H3.4c.2 0 .34.054.34.497 0 .435-.142.499-.34.499h-.243V.275zM.406.076v1.392h.611c.284 0 .405-.145.405-.423a.347.347 0 0 0-.225-.32.295.295 0 0 0 .174-.28C1.37.1 1.14.075.932.075H.406zm.222.191h.278c.18 0 .226.056.226.198 0 .127-.076.177-.216.175H.628V.267zm0 .562h.31c.175 0 .246.093.246.236 0 .17-.065.212-.227.212H.628V.829zm5.62-.75v1.39h.224v-.64h.466V.636h-.466V.273h.584V.079h-.808zm-4.484 0v1.39h.85V1.27h-.626V.829h.509V.636h-.509V.273h.626V.079h-.85z" id="Z"/><path d="M6.468.743c0 .468.184.746.575.746.418 0 .523-.272.518-.752h-.518V.92h.29c0 .013.002.02 0 .03-.008.284-.14.35-.29.35-.19 0-.34-.092-.34-.527 0-.445.143-.516.34-.516.13 0 .208.047.271.152l.192-.096C7.412.135 7.273.055 7.043.055c-.39 0-.575.222-.575.688zm-1.453 0c0 .468.187.748.576.748.386 0 .577-.28.577-.748 0-.466-.193-.688-.577-.688-.387 0-.576.222-.576.688zm.234.029c0-.445.133-.516.342-.516.2 0 .338.07.338.516 0 .437-.158.529-.338.529-.192 0-.342-.092-.342-.53zM8.502.468c0 .253.244.332.458.41.158.056.275.113.275.23 0 .107-.088.185-.295.185-.116 0-.2-.022-.369-.104l-.086.182c.177.082.28.12.442.12.35 0 .541-.154.541-.418 0-.253-.27-.341-.454-.407-.2-.074-.274-.126-.274-.23 0-.086.078-.172.265-.172.101 0 .183.028.331.098l.093-.18a.836.836 0 0 0-.41-.125c-.271 0-.517.095-.517.411zm8.794-.392v.626l.011.355-.132-.248-.433-.733h-.198v1.392h.224v-.62l-.01-.356.131.248.435.728h.197V.076h-.225zm-1.355 0v.626l.01.355-.132-.248-.434-.733h-.197v1.392h.223v-.62l-.01-.356.132.248.434.728h.197V.076h-.223zm-1.353 0v.98c0 .125-.08.243-.267.243-.185 0-.261-.118-.261-.244V.076h-.23v.958c0 .275.174.457.493.457.318 0 .493-.182.493-.457V.076h-.228zm-2.478 0l-.361.728-.362-.728h-.209l-.049 1.392h.225l.026-.62.004-.356.12.248.179.333h.131l.181-.337.121-.244.002.356.025.62h.227L12.318.076h-.208zm-1.942 0l-.452 1.392h.238l.089-.293h.485l.09.293h.233l-.45-1.392h-.233zm.025.611l.092-.347.092.347.094.302h-.37l.092-.302zM3.908.077l-.238.76-.093.348-.094-.348-.243-.76h-.237l.457 1.391h.232L4.151.076h-.243zm-1.773 0l-.453 1.391h.239l.088-.293h.486l.09.293h.232L2.367.076h-.232zm.024.61L2.252.34l.092.347.093.302h-.37l.092-.302zm-.988-.61v.625l.01.355L1.05.81.616.076H.42v1.392h.224v-.62L.633.492.765.74l.432.728h.198V.076h-.224zM12.74.078v1.39h.224v-.64h.466V.636h-.466V.273h.584V.079h-.808z" id="ab"/><path d="M8.953.076l-.239.761-.091.348-.095-.348-.243-.76h-.237l.457 1.391h.232L9.196.076h-.243zm-1.773 0l-.454 1.392h.24l.088-.293h.485l.091.293h.232L7.412.076H7.18zm.024.611L7.297.34l.093.347.091.302h-.37l.093-.302zm-.988-.61v.625l.01.355L6.094.81 5.66.076h-.197v1.392h.224v-.62l-.01-.356.132.248.434.728h.197V.076h-.224zm-2.638 0v.196h.368v1.195h.229V.273h.369V.076h-.966zm-1.18 0v.196h.369v1.195h.228V.273h.37V.076h-.966zm-.521 1.391H2.1V.076h-.224v1.392zM.492.076v1.392h.466c.388 0 .579-.257.579-.725 0-.466-.191-.667-.579-.667H.492zm.224.199h.242c.2 0 .34.054.34.497 0 .435-.142.499-.34.499H.716V.275z" id="ad"/><path d="M3.26.396V1.47h.13v-.294l.114-.101.251.395h.173L3.602.98l.31-.293h-.174l-.348.333V.396h-.13zm-2.076 0V.84H.609V.396H.457V1.47H.61V.968h.575v.502h.152V.396h-.152zm7.164.072v.22h-.11v.106h.11v.519c0 .05.011.09.033.122.023.031.066.048.129.048a.442.442 0 0 0 .103-.013v-.103h-.026l-.022.001a.122.122 0 0 1-.052-.007c-.019-.01-.029-.029-.029-.056v-.51h.13V.686h-.13V.468h-.136zm-2.571 0v.22h-.11v.106h.11v.519c0 .05.01.09.033.122.023.031.066.048.129.048a.46.46 0 0 0 .103-.013v-.103h-.026l-.02.001a.125.125 0 0 1-.054-.007c-.02-.01-.028-.029-.028-.056v-.51h.128V.686h-.128V.468h-.137zM2.173.761A.385.385 0 0 0 1.91.663a.325.325 0 0 0-.278.13.489.489 0 0 0-.094.295c0 .061.006.114.02.16a.403.403 0 0 0 .058.12l-.097.099.045.038.09-.094a.285.285 0 0 0 .105.066.446.446 0 0 0 .148.023.35.35 0 0 0 .279-.122.465.465 0 0 0 .104-.312A.45.45 0 0 0 2.21.8l.096-.105-.04-.036-.093.103zm-.487.436a.443.443 0 0 1-.011-.1.37.37 0 0 1 .065-.23.207.207 0 0 1 .176-.088c.037 0 .072.007.103.021a.164.164 0 0 1 .068.053l-.379.413a.782.782 0 0 1-.022-.069zm.136.174a.195.195 0 0 1-.08-.056l.373-.413a.39.39 0 0 1 .032.173.431.431 0 0 1-.036.18.208.208 0 0 1-.202.13.293.293 0 0 1-.087-.014zm2.26-.59a.464.464 0 0 0-.103.315c0 .122.032.22.098.293.065.073.153.11.264.11.133 0 .23-.042.295-.124a.5.5 0 0 0 .095-.313c0-.131-.037-.23-.108-.297a.373.373 0 0 0-.264-.101.356.356 0 0 0-.277.117zm.093.521a.361.361 0 0 1-.057-.208c0-.087.018-.161.057-.223.037-.061.098-.092.18-.092.094 0 .16.037.198.108a.492.492 0 0 1-.014.4c-.034.065-.096.098-.185.098-.082 0-.142-.027-.18-.083zM7.604.735a.222.222 0 0 0-.081.18c0 .063.028.112.087.148.032.02.082.039.151.055l.108.026a.567.567 0 0 1 .116.037c.03.018.046.044.046.078 0 .044-.019.076-.057.097a.26.26 0 0 1-.132.033c-.085 0-.144-.022-.178-.064a.186.186 0 0 1-.035-.1H7.5a.3.3 0 0 0 .08.196c.05.052.135.079.256.079.111 0 .193-.025.248-.076a.239.239 0 0 0 .082-.18c0-.073-.026-.126-.079-.16a.71.71 0 0 0-.196-.066L7.8.997a.335.335 0 0 1-.088-.032c-.035-.02-.053-.048-.053-.082 0-.031.013-.056.04-.076A.197.197 0 0 1 7.816.78c.077 0 .131.017.162.052a.15.15 0 0 1 .032.081h.129a.228.228 0 0 0-.05-.142C8.035.7 7.948.667 7.826.667a.336.336 0 0 0-.222.068zm-.812-.01c-.062.037-.094.104-.097.201h.127a.182.182 0 0 1 .032-.091c.03-.037.08-.056.151-.056.06 0 .108.01.141.03.033.02.05.053.05.098 0 .022-.004.039-.01.05-.01.022-.032.034-.063.04l-.216.024a.345.345 0 0 0-.183.075.211.211 0 0 0-.07.168c0 .066.024.122.071.166a.259.259 0 0 0 .183.067.37.37 0 0 0 .17-.04.35.35 0 0 0 .12-.09.19.19 0 0 0 .023.072c.022.032.055.048.102.048a.268.268 0 0 0 .093-.014v-.097a.099.099 0 0 1-.024.003l-.02.001c-.019 0-.03-.004-.036-.012a.057.057 0 0 1-.01-.033v-.45A.18.18 0 0 0 7.24.72a.459.459 0 0 0-.231-.052.41.41 0 0 0-.216.056zm.047.627a.108.108 0 0 1-.044-.091c0-.05.021-.086.063-.11a.312.312 0 0 1 .11-.03l.082-.009a.64.64 0 0 0 .078-.015.241.241 0 0 0 .063-.025v.105c0 .081-.037.14-.112.175a.324.324 0 0 1-.14.033.159.159 0 0 1-.1-.033zm-.45-.626a.296.296 0 0 0-.079.096V.687h-.129v.783h.136v-.45c0-.056.018-.105.055-.147.037-.044.09-.065.158-.065h.022a.212.212 0 0 0 .022.003V.673A.27.27 0 0 0 6.543.67H6.53a.203.203 0 0 0-.143.056zM5.14.699a.371.371 0 0 0-.12.1V.686h-.13v.783h.136v-.41c0-.052.004-.09.01-.119a.193.193 0 0 1 .044-.08.206.206 0 0 1 .098-.064.314.314 0 0 1 .08-.01c.063 0 .106.025.13.074.015.03.022.067.022.116v.493h.138V.968a.393.393 0 0 0-.034-.182c-.04-.078-.117-.117-.231-.117A.33.33 0 0 0 5.14.7zM2.995.687l-.217.637-.217-.637h-.153l.298.805a2.886 2.886 0 0 1-.033.08l-.028.061a.123.123 0 0 1-.03.03.104.104 0 0 1-.055.012c-.008 0-.017 0-.028-.002a.695.695 0 0 1-.051-.012v.12c.014.004.027.006.038.008l.044.002c.078 0 .134-.022.166-.066.031-.044.087-.166.166-.365a29.612 29.612 0 0 0 .25-.673h-.15z" id="af"/><path d="M.731.461A.306.306 0 0 0 .628.7c0 .09.035.156.105.202.041.025.11.05.208.07l.15.033c.082.018.141.04.18.064.037.025.056.066.056.125 0 .078-.045.132-.134.162a.47.47 0 0 1-.154.024c-.125 0-.213-.036-.263-.107a.29.29 0 0 1-.044-.149H.59a.342.342 0 0 0 .114.276.473.473 0 0 0 .323.102.613.613 0 0 0 .312-.077c.088-.05.133-.135.133-.255a.253.253 0 0 0-.105-.218.485.485 0 0 0-.173-.068L1.039.848A1.061 1.061 0 0 1 .838.79.122.122 0 0 1 .771.675c0-.049.018-.09.057-.127.039-.035.102-.053.19-.053.11 0 .188.027.234.084.024.03.04.075.048.132h.14c0-.12-.04-.206-.121-.26a.516.516 0 0 0-.295-.082A.422.422 0 0 0 .73.46zM3.335.448a.227.227 0 0 0-.03.12V.69h-.11v.103h.11v.676h.135V.794h.136V.691h-.135a.61.61 0 0 1 .012-.158C3.461.51 3.486.5 3.527.5h.019a.39.39 0 0 1 .03.002v-.12L3.545.382h-.027c-.09 0-.151.022-.183.067zM8.16 1.47h.135V.396H8.16V1.47zM2.93.545h.138V.396h-.139v.15zM1.641.396V1.47h.13v-.294l.113-.101.252.395h.173L1.985.98l.308-.293H2.12l-.348.333V.396h-.13zm3.286.072v.22h-.11v.106h.11v.519c0 .05.01.09.033.122.023.031.065.048.13.048a.45.45 0 0 0 .102-.013v-.103h-.026l-.021.001a.125.125 0 0 1-.053-.007c-.02-.01-.028-.029-.028-.056v-.51h.128V.686h-.128V.468h-.137zm-1.2 0v.22h-.11v.106h.11v.519c0 .05.01.09.033.122.024.031.067.048.13.048a.448.448 0 0 0 .103-.013v-.103h-.027l-.02.001a.123.123 0 0 1-.054-.007c-.02-.01-.028-.029-.028-.056v-.51h.129V.686h-.13V.468h-.136zm2.225.293a.386.386 0 0 0-.264-.098.323.323 0 0 0-.277.13.552.552 0 0 0-.075.455.437.437 0 0 0 .058.12l-.096.099.044.038.091-.094a.282.282 0 0 0 .105.066.449.449 0 0 0 .147.023.35.35 0 0 0 .28-.122.465.465 0 0 0 .104-.312A.486.486 0 0 0 5.99.8l.096-.105-.04-.036-.093.103zm-.488.436a.443.443 0 0 1 .054-.33.208.208 0 0 1 .176-.088c.038 0 .072.007.104.021.03.015.053.033.067.053l-.378.413a.604.604 0 0 1-.023-.069zm.137.174a.202.202 0 0 1-.08-.056l.373-.413a.46.46 0 0 1 .031.173.431.431 0 0 1-.036.18.208.208 0 0 1-.202.13.292.292 0 0 1-.086-.014zM8.554.735a.224.224 0 0 0-.083.18c0 .063.03.112.088.148.033.02.083.039.152.055l.108.026a.606.606 0 0 1 .115.037c.031.018.046.044.046.078a.104.104 0 0 1-.057.097.263.263 0 0 1-.133.033c-.084 0-.143-.022-.178-.064a.186.186 0 0 1-.032-.1h-.13a.29.29 0 0 0 .08.196c.049.052.134.079.254.079.111 0 .195-.025.249-.076a.238.238 0 0 0 .081-.18c0-.073-.026-.126-.078-.16a.692.692 0 0 0-.197-.066L8.75.997a.326.326 0 0 1-.089-.032C8.626.945 8.61.917 8.61.883a.09.09 0 0 1 .039-.076c.026-.019.065-.028.116-.028.077 0 .13.017.162.052.019.024.03.051.032.081h.129A.224.224 0 0 0 9.039.77C8.985.7 8.897.667 8.776.667a.334.334 0 0 0-.222.068zm-4.37 0a.223.223 0 0 0-.082.18c0 .063.029.112.088.148a.54.54 0 0 0 .151.055l.108.026a.618.618 0 0 1 .116.037c.03.018.046.044.046.078a.104.104 0 0 1-.057.097.26.26 0 0 1-.133.033c-.085 0-.143-.022-.177-.064a.18.18 0 0 1-.034-.1h-.13a.29.29 0 0 0 .08.196c.05.052.135.079.254.079.112 0 .195-.025.25-.076a.24.24 0 0 0 .081-.18c0-.073-.026-.126-.079-.16a.709.709 0 0 0-.196-.066L4.38.997a.318.318 0 0 1-.088-.032C4.257.945 4.24.917 4.24.883c0-.031.014-.056.039-.076A.2.2 0 0 1 4.396.78c.077 0 .13.017.161.052a.15.15 0 0 1 .033.081h.128A.216.216 0 0 0 4.669.77C4.616.7 4.528.667 4.406.667a.335.335 0 0 0-.222.068zm5.147.052a.44.44 0 0 0-.106.307c0 .127.034.226.104.297.07.071.155.106.255.106a.49.49 0 0 0 .11-.01.324.324 0 0 0 .22-.167.266.266 0 0 0 .036-.095h-.133a.246.246 0 0 1-.052.091.222.222 0 0 1-.17.068c-.075 0-.13-.024-.167-.073a.33.33 0 0 1-.058-.19h.591a.753.753 0 0 0-.013-.173.303.303 0 0 0-.176-.24.379.379 0 0 0-.166-.039.351.351 0 0 0-.275.118zm.11.062a.208.208 0 0 1 .156-.065c.087 0 .15.032.186.095.02.035.034.08.038.137h-.447A.245.245 0 0 1 9.44.849zM7.359.787a.44.44 0 0 0-.106.307c0 .127.035.226.105.297.07.071.154.106.255.106a.487.487 0 0 0 .11-.01.324.324 0 0 0 .22-.167.266.266 0 0 0 .036-.095h-.134a.246.246 0 0 1-.051.091.222.222 0 0 1-.17.068c-.075 0-.132-.024-.168-.073a.33.33 0 0 1-.058-.19h.591a.866.866 0 0 0-.011-.173.344.344 0 0 0-.055-.138.303.303 0 0 0-.122-.102.379.379 0 0 0-.167-.039.35.35 0 0 0-.275.118zm.11.062a.208.208 0 0 1 .156-.065c.087 0 .15.032.187.095.02.035.033.08.038.137h-.448A.248.248 0 0 1 7.47.849zM6.995.726a.279.279 0 0 0-.078.096V.687h-.129v.783h.136v-.45c0-.056.018-.105.055-.147.036-.044.089-.065.157-.065h.022a.204.204 0 0 0 .023.003V.673L7.15.67h-.014a.2.2 0 0 0-.142.056zm-.514 0a.312.312 0 0 0-.078.096V.687h-.128v.783h.135v-.45c0-.056.02-.105.056-.147a.194.194 0 0 1 .156-.065h.023c.006.002.014.003.022.003V.673A.295.295 0 0 0 6.636.67h-.013a.205.205 0 0 0-.142.056zm-3.855 0a.296.296 0 0 0-.078.096V.687H2.42v.783h.136v-.45c0-.056.018-.105.055-.147.036-.044.09-.065.158-.065h.021a.204.204 0 0 0 .023.003V.673A.27.27 0 0 0 2.78.67h-.012a.203.203 0 0 0-.143.056zm.303.744h.139V.69h-.139v.78z" id="ah"/><path d="M8.369.396L8.134 1.47h.135L8.504.396h-.135zm-.343 0L7.79 1.47h.135L8.16.396h-.135zm-.693 0L6.68 1.47h.154l.19-.322h.437l.043.322h.164L7.502.396h-.17zm.043.16l.064.474h-.347l.283-.475zM5.449.395l-.033.15h.137l.034-.15H5.45zm-2.405 0L2.393 1.47h.153l.19-.322h.439l.041.322h.164L3.214.396h-.17zm.044.16l.063.474h-.346l.283-.475zM1.246.395l-.032.15h.137l.033-.15h-.138zm-.839 0L.173 1.47h.709l.029-.128H.35L.557.396h-.15zm9.614.328c-.07.038-.117.105-.141.202h.127a.22.22 0 0 1 .051-.091c.039-.037.092-.056.163-.056.061 0 .106.01.135.03.028.02.038.053.028.098a.131.131 0 0 1-.02.05.102.102 0 0 1-.07.04l-.223.024a.425.425 0 0 0-.2.075.272.272 0 0 0-.107.168.18.18 0 0 0 .035.166c.038.044.094.067.169.067a.427.427 0 0 0 .18-.04.512.512 0 0 0 .139-.09.15.15 0 0 0 .008.072c.014.032.043.048.09.048a.267.267 0 0 0 .096-.014l.022-.097a.11.11 0 0 1-.026.003l-.02.001c-.019 0-.03-.004-.034-.012a.063.063 0 0 1-.001-.033l.1-.45c.015-.074-.003-.13-.054-.165a.396.396 0 0 0-.22-.052c-.08 0-.157.02-.227.056zm-.092.628c-.024-.022-.032-.053-.023-.091a.153.153 0 0 1 .087-.11.378.378 0 0 1 .117-.03l.085-.009a.74.74 0 0 0 .08-.015.277.277 0 0 0 .069-.025l-.023.105a.242.242 0 0 1-.151.175.37.37 0 0 1-.147.033.134.134 0 0 1-.094-.033zm1.104-.653a.504.504 0 0 0-.142.1l.024-.112h-.13l-.17.783h.136l.089-.41a.616.616 0 0 1 .036-.119.237.237 0 0 1 .062-.08.265.265 0 0 1 .192-.074c.064 0 .102.025.116.074a.243.243 0 0 1-.004.116l-.107.493h.137l.11-.502a.379.379 0 0 0 .007-.182c-.024-.078-.093-.117-.206-.117a.379.379 0 0 0-.15.03zm-1.697 0a.417.417 0 0 0-.127.093.183.183 0 0 0-.043-.077C9.133.685 9.085.67 9.02.67a.321.321 0 0 0-.162.045.616.616 0 0 0-.106.084l.024-.11h-.133l-.171.782h.135l.09-.416c.022-.1.058-.17.11-.208.05-.039.1-.059.152-.059.056 0 .09.019.103.055a.252.252 0 0 1-.006.117l-.112.511h.138l.1-.455c.018-.081.049-.14.095-.174a.243.243 0 0 1 .148-.052c.04 0 .07.01.093.03.022.02.028.055.017.107l-.12.544h.141L9.671.95a.335.335 0 0 0 .005-.166C9.653.707 9.588.67 9.479.67a.35.35 0 0 0-.143.03zm-3.57.088a.553.553 0 0 0-.172.307c-.029.127-.016.226.038.297.054.071.132.106.232.106.041 0 .08-.003.114-.01a.406.406 0 0 0 .17-.08.45.45 0 0 0 .142-.182h-.134a.303.303 0 0 1-.071.091.272.272 0 0 1-.184.068c-.076 0-.126-.024-.152-.073a.293.293 0 0 1-.017-.19h.591A.84.84 0 0 0 6.35.947.302.302 0 0 0 6.326.81a.222.222 0 0 0-.1-.102.325.325 0 0 0-.159-.039.436.436 0 0 0-.3.118zm.097.062a.26.26 0 0 1 .171-.065c.087 0 .142.032.165.095.013.035.015.08.008.137H5.76a.314.314 0 0 1 .103-.167zM4.775.7a.497.497 0 0 0-.144.1l.024-.112h-.128l-.17.783h.135l.09-.41A.588.588 0 0 1 4.615.94.29.29 0 0 1 4.79.797a.346.346 0 0 1 .082-.01c.063 0 .102.025.115.074a.25.25 0 0 1-.004.116l-.108.493h.138l.11-.502A.397.397 0 0 0 5.13.786C5.107.708 5.038.669 4.923.669a.375.375 0 0 0-.148.03zm-.858 0a.506.506 0 0 0-.143.1l.024-.112H3.67l-.172.783h.136l.09-.41A.63.63 0 0 1 3.759.94a.256.256 0 0 1 .062-.08.274.274 0 0 1 .111-.064.346.346 0 0 1 .083-.01c.063 0 .102.025.114.074a.25.25 0 0 1-.004.116l-.107.493h.138l.11-.502A.377.377 0 0 0 4.27.786c-.023-.078-.09-.117-.206-.117a.373.373 0 0 0-.148.03zM2.032.687l-.364.637L1.59.687h-.157l.126.783h.145L2.18.687h-.148zm3.353.004l-.172.78h.139l.17-.78h-.138zm-4.203 0l-.17.78h.137l.17-.78h-.137z" id="aj"/><path d="M1.308.566a.618.618 0 0 0-.111.372c0 .161.044.294.13.4.097.11.231.163.402.163a.509.509 0 0 0 .421-.186.632.632 0 0 0 .126-.4.577.577 0 0 0-.11-.365C2.071.427 1.926.366 1.73.366a.49.49 0 0 0-.423.2zm.137.683a.484.484 0 0 1-.093-.301c0-.149.036-.26.108-.338a.37.37 0 0 1 .281-.114.35.35 0 0 1 .279.116.44.44 0 0 1 .102.304c0 .12-.03.226-.089.318-.06.09-.154.138-.287.138-.139 0-.238-.042-.3-.123zM3.761.52a.597.597 0 0 0-.151.43c0 .18.052.322.155.425a.5.5 0 0 0 .338.124.518.518 0 0 0 .251-.055.57.57 0 0 0 .134-.112l.037.138h.095V.895h-.485v.121h.346c0 .126-.034.217-.1.273a.368.368 0 0 1-.247.085c-.132 0-.226-.04-.284-.12A.53.53 0 0 1 3.765.94c0-.147.034-.259.104-.333a.342.342 0 0 1 .259-.112c.086 0 .158.018.215.054a.26.26 0 0 1 .112.171h.148A.384.384 0 0 0 4.4.426a.581.581 0 0 0-.27-.058.485.485 0 0 0-.37.152zm-1.2 0a.597.597 0 0 0-.15.43c0 .18.05.322.154.425a.5.5 0 0 0 .338.124.514.514 0 0 0 .251-.055.586.586 0 0 0 .136-.112l.035.138h.096V.895h-.485v.121h.347c-.003.126-.037.217-.102.273a.366.366 0 0 1-.248.085c-.13 0-.224-.04-.282-.12A.525.525 0 0 1 2.564.94c0-.147.035-.259.105-.333a.342.342 0 0 1 .26-.112c.086 0 .157.018.213.054a.259.259 0 0 1 .113.171h.148a.384.384 0 0 0-.202-.295.579.579 0 0 0-.269-.058.483.483 0 0 0-.37.152zM6.304.396v.128h.372v.946h.153V.524H7.2V.396h-.897zm-.291 0v.664c0 .077-.013.14-.037.185-.047.084-.133.127-.26.127-.105 0-.181-.04-.226-.118a.38.38 0 0 1-.044-.194V.396h-.153V1c0 .132.02.234.055.305.067.13.194.195.38.195.187 0 .315-.065.381-.195A.677.677 0 0 0 6.163 1V.396h-.151zm-5.616 0V1.47h.711v-.128h-.56V.396H.396z" id="al"/><path d="M1.979.219C1.225.219.607.833.607 1.591v2.747c0 .763.614 1.372 1.372 1.372h114.883c.754 0 1.372-.614 1.372-1.372V1.591c0-.764-.614-1.372-1.372-1.372H1.98z" id="an"/><path id="ap" d="M.074.158v16.349h253.19V.157z"/><path d="M.952.173C.785.173.65.285.65.423V4.54c0 .138.136.25.303.25h18.382c.167 0 .302-.112.302-.25V.422c0-.137-.135-.249-.302-.249H.952z" id="ar"/><path d="M.952.173C.785.173.65.285.65.423V4.29c0 .138.136.25.303.25h18.382c.167 0 .302-.112.302-.25V.422c0-.137-.135-.249-.302-.249H.952z" id="at"/><path d="M1.624.592c-.757 0-1.37.615-1.37 1.374v4.097a1.37 1.37 0 0 0 1.37 1.373h35.141a1.37 1.37 0 0 0 1.369-1.373V1.966A1.37 1.37 0 0 0 36.765.592H1.624z" id="av"/><path d="M1.458.592a1.37 1.37 0 0 0-1.37 1.374v4.097a1.37 1.37 0 0 0 1.37 1.373H36.6c.755 0 1.369-.615 1.369-1.373V1.966c0-.76-.614-1.374-1.37-1.374H1.459z" id="ax"/><path d="M11.706.63c0 .21.176.359.415.359.244 0 .416-.15.416-.359 0-.21-.172-.355-.416-.355-.24 0-.415.145-.415.355zm-3.908 0c0 .21.176.359.416.359.244 0 .416-.15.416-.359 0-.21-.172-.355-.416-.355-.24 0-.416.145-.416.355zM24.174.373v2.55c0 .465.165.772.66.772a.983.983 0 0 0 .361-.055l-.087-.508c-.04.01-.059.01-.088.01-.06 0-.127-.047-.127-.192V.373h-.72zm-20.698 0V3.64h.7V3.07l.308-.33.547.899h.777l-.914-1.36.85-.951h-.781l-.768.917h-.02V.373h-.7zM1.325.602L.327 3.64h.733l.196-.723h.973l.196.723h.763L2.19.602h-.865zm.157 1.5c.087-.303.17-.656.249-.978h.019c.083.316.171.675.259.978l.074.28h-.68l.079-.28zM17.602.713l-.083.616-.372.027v.51h.333V2.8c0 .536.234.894.836.894.234 0 .411-.046.538-.083l-.113-.499a.714.714 0 0 1-.229.047c-.19 0-.313-.107-.313-.368v-.927h.581V1.33h-.58V.713H17.6zm-4.268 0l-.083.616-.373.027v.51h.333V2.8c0 .536.235.894.836.894.235 0 .411-.046.538-.083l-.112-.499a.714.714 0 0 1-.23.047c-.19 0-.313-.107-.313-.368v-.927h.582V1.33h-.582V.713h-.596zm-7.13 0l-.082.616-.373.027v.51h.333V2.8c0 .536.235.894.836.894.235 0 .411-.046.538-.083l-.113-.499a.71.71 0 0 1-.23.047c-.19 0-.312-.107-.312-.368v-.927h.582V1.33H6.8V.713h-.597zm22.6.91h-.02l-.049-.294h-.586v2.31h.718V2.08c.157-.145.27-.224.451-.224.205 0 .298.103.298.438V3.64h.719V2.205c0-.578-.226-.932-.753-.932-.328 0-.572.163-.778.35zm-3.261-.047l.259.451c.235-.13.435-.21.64-.21.264 0 .368.131.382.336-.96.093-1.365.36-1.365.844 0 .39.28.698.725.698.273 0 .498-.12.703-.293h.02l.048.238h.588V2.317c0-.71-.343-1.044-.964-1.044-.38 0-.728.125-1.036.303zm.605 1.37c0-.177.167-.318.676-.382v.405c-.127.12-.234.195-.396.195-.172 0-.28-.07-.28-.218zm-4.121-1.39h-.02l-.049-.227h-.586v3.168h.718v-.675l-.023-.368a.859.859 0 0 0 .576.241c.523 0 1.021-.456 1.021-1.248 0-.713-.361-1.174-.948-1.174-.254 0-.499.121-.69.284zm.063 1.432v-.946c.142-.145.27-.21.416-.21.289 0 .421.21.421.624 0 .475-.2.68-.45.68a.572.572 0 0 1-.387-.148zm-2.978-.992c0 .381.348.572.641.68.25.093.494.163.494.316 0 .121-.093.196-.308.196-.206 0-.406-.084-.625-.242l-.323.428c.244.19.61.321.929.321.65 0 .997-.326.997-.745 0-.424-.346-.587-.655-.694-.25-.089-.474-.144-.474-.294 0-.116.087-.182.273-.182.171 0 .338.075.514.196l.323-.41a1.433 1.433 0 0 0-.856-.293c-.562 0-.93.294-.93.723zm-4.356.488c0 .764.534 1.211 1.228 1.211.288 0 .611-.097.86-.26l-.24-.415c-.175.103-.341.154-.522.154-.324 0-.568-.154-.63-.49h1.451a1.48 1.48 0 0 0 .029-.303c0-.628-.342-1.108-1.032-1.108-.582 0-1.144.461-1.144 1.21zm1.159-.69c.288 0 .406.182.406.438h-.875c.048-.293.245-.438.469-.438zM11.764 3.64h.719V1.328h-.72V3.64zm-1.066-2.311l-.317 1.09c-.064.228-.128.471-.186.713h-.02c-.064-.242-.128-.485-.19-.713l-.313-1.09h-.725l.817 2.31h.831l.792-2.31h-.689zm-2.84 2.31h.717V1.33h-.718v2.31z" id="az"/><path id="aB" d="M.544 1.435l.436.046.37-.162L.805.466z"/><path id="aD" d="M.41.062l.718 4.584.27-.04L.677.025z"/><path id="aF" d="M.14.1l.72 4.584.268-.038L.41.062z"/><path id="aH" d="M.555.14l.72 4.583.269-.039L.824.101z"/><path d="M.605.249L.5.714a.126.126 0 0 0 .09.15l.774.186a.122.122 0 0 0 .145-.094L1.613.49a.125.125 0 0 0-.09-.15L.75.155A.13.13 0 0 0 .722.152a.122.122 0 0 0-.117.097z" id="aJ"/><path id="aL" d="M.142 1.004l.387.174.388-.054L.664.118z"/><path id="aN" d="M.648 5.241l.258.04L1.59.518l-.258-.04z"/><path id="aP" d="M.389 5.201l.26.04L1.33.478l-.258-.04z"/><path id="aR" d="M.13 5.162l.259.04.684-4.764-.259-.04z"/><path id="aT" d="M.566.422l1.009.242.031-.142L.598.28z"/><path id="aV" d="M.22 1.613l.402.131.38-.095-.35-.974z"/><path id="aX" d="M.64 2.79L.9 2.8.999.358.738.346z"/><path id="aZ" d="M.379 2.777l.26.013L.738.346.476.334z"/><path id="bb" d="M.118 2.766l.26.011L.477.334.216.32z"/><path id="bd" d="M.333.264l.396 3.521H3.5L3.894.264z"/><path id="bf" d="M1 2.055V.033H.025v2.022H1z"/></defs><g fill="none" fill-rule="evenodd"><use fill="#EFEFEF" xlink:href="#a" transform="translate(27)"/><g transform="translate(0 179.964)"><mask id="c" fill="#fff"><use xlink:href="#b"/></mask><path fill="#AAB0B8" mask="url(#c)" d="M-3.09 35.01H270.07V-3.432H-3.09z"/></g><g transform="translate(0 31)"><mask id="e" fill="#fff"><use xlink:href="#d"/></mask><path fill="#4F6571" mask="url(#e)" d="M-3.09 152.396H270.07V-3.432H-3.09z"/></g><g transform="translate(8.9 38.551)"><mask id="g" fill="#fff"><use xlink:href="#f"/></mask><path fill="#617180" mask="url(#g)" d="M-3.09 135.92H252.27V-3.431H-3.09z"/></g><path fill="#AAB0B8" d="M102.34 234.881h62.985v-24.026H102.34z"/><path fill="#AAB0B8" d="M78.379 239h110.908v-7.551H78.379z"/><g transform="translate(132.13 195.066)"><mask id="i" fill="#fff"><use xlink:href="#h"/></mask><path fill="#9498A2" mask="url(#i)" d="M-3.09 8.238H8.548v-11.67H-3.09z"/></g><path fill="#E4E7E6" d="M7.664 170.107h253.32V38.66H7.664z"/><g transform="translate(115.015 98.274)"><mask id="k" fill="#fff"><use xlink:href="#j"/></mask><path fill="#C5C1BE" mask="url(#k)" d="M-3.21 10.14h44.726V-3.09H-3.21z"/></g><g transform="translate(74.623 98.274)"><mask id="m" fill="#fff"><use xlink:href="#l"/></mask><path fill="#C5C1BE" mask="url(#m)" d="M-3.21 10.14h44.726V-3.09H-3.21z"/></g><g transform="translate(149.246 99.647)"><mask id="o" fill="#fff"><use xlink:href="#n"/></mask><path fill="#3D3731" mask="url(#o)" d="M-3.21 6.406h9.527V-3.09H-3.21z"/></g><g transform="translate(149.93 100.333)"><mask id="q" fill="#fff"><use xlink:href="#p"/></mask><path fill="#3D3731" mask="url(#q)" d="M-2.962 4.862h7.661v-8.01h-7.661z"/></g><g transform="translate(150.615 101.706)"><mask id="s" fill="#fff"><use xlink:href="#r"/></mask><path fill="#3D3731" mask="url(#s)" d="M-3.355 3.916H3.81v-7.178h-7.165z"/></g><g transform="translate(108.17 99.647)"><mask id="u" fill="#fff"><use xlink:href="#t"/></mask><path fill="#3D3731" mask="url(#u)" d="M-3.21 6.406h9.528V-3.09H-3.21z"/></g><g transform="translate(108.854 100.333)"><mask id="w" fill="#fff"><use xlink:href="#v"/></mask><path fill="#3D3731" mask="url(#w)" d="M-2.962 4.862H4.7v-8.01h-7.662z"/></g><g transform="translate(109.538 101.706)"><mask id="y" fill="#fff"><use xlink:href="#x"/></mask><path fill="#3D3731" mask="url(#y)" d="M-3.355 3.916H3.81v-7.178h-7.166z"/></g><g transform="translate(154.723 98.274)"><mask id="A" fill="#fff"><use xlink:href="#z"/></mask><path fill="#C5C1BE" mask="url(#A)" d="M-3.168 10.015h44.726V-3.09H-3.168z"/></g><g transform="translate(194.43 98.274)"><mask id="C" fill="#fff"><use xlink:href="#B"/></mask><path fill="#C5C1BE" mask="url(#C)" d="M-3.003 10.015h44.726V-3.09H-3.003z"/></g><g transform="translate(34.915 98.274)"><mask id="E" fill="#fff"><use xlink:href="#D"/></mask><path fill="#C5C1BE" mask="url(#E)" d="M-2.858 68.672H41.87V-3.09H-2.858z"/></g><g transform="translate(69.146 99.647)"><mask id="G" fill="#fff"><use xlink:href="#F"/></mask><path fill="#3D3731" mask="url(#G)" d="M-2.947 6.645h9.528v-9.486h-9.528z"/></g><g transform="translate(70.515 100.333)"><mask id="I" fill="#fff"><use xlink:href="#H"/></mask><path fill="#3D3731" mask="url(#I)" d="M-3.383 5.104h7.662V-2.9h-7.662z"/></g><g transform="translate(70.515 101.706)"><mask id="K" fill="#fff"><use xlink:href="#J"/></mask><path fill="#3D3731" mask="url(#K)" d="M-3.092 4.157h7.166V-3.02h-7.166z"/></g><g transform="translate(36.285 104.452)"><mask id="M" fill="#fff"><use xlink:href="#L"/></mask><path fill="#FFF" mask="url(#M)" d="M-3.23 19.936h42.732v-22.84H-3.23z"/></g><g transform="translate(38.338 115.436)"><mask id="O" fill="#fff"><use xlink:href="#N"/></mask><path fill="#D9DC96" mask="url(#O)" d="M-3.166 6.955H18.51v-9.984H-3.166z"/></g><g transform="translate(36.285 121.614)"><mask id="Q" fill="#fff"><use xlink:href="#P"/></mask><path fill="#FFF" mask="url(#Q)" d="M-3.23 19.872h42.732v-22.84H-3.23z"/></g><g transform="translate(38.338 132.597)"><mask id="S" fill="#fff"><use xlink:href="#R"/></mask><path fill="#D9DC96" mask="url(#S)" d="M-3.166 6.891H18.51v-9.984H-3.166z"/></g><g transform="translate(36.285 138.776)"><mask id="U" fill="#fff"><use xlink:href="#T"/></mask><path fill="#FFF" mask="url(#U)" d="M-3.23 22.18h42.732V-3.157H-3.23z"/></g><g transform="translate(38.338 152.505)"><mask id="W" fill="#fff"><use xlink:href="#V"/></mask><path fill="#D9DC96" mask="url(#W)" d="M-3.166 6.578H18.51v-9.985H-3.166z"/></g><path fill="#3F3631" d="M7.32 43.897h253.746v-5.204H7.32z"/><path fill="#FFF" d="M7.49 62.049h253.455V43.953H7.49z"/><path d="M7.521 61.975h253.21M7.891 56.569h252.93" stroke="#B9B1A9" stroke-linecap="square"/><g transform="translate(82.838 58.459)"><mask id="Y" fill="#fff"><use xlink:href="#X"/></mask><path fill="#3D3731" mask="url(#Y)" d="M-3.162 4.923h14.308v-8.3H-3.162z"/></g><path fill="#3F3631" d="M91.54 58.804l.791.749.79-.749z"/><g transform="translate(96.53 58.459)"><mask id="aa" fill="#fff"><use xlink:href="#Z"/></mask><path fill="#3D3731" mask="url(#aa)" d="M-3.017 4.9h14.673v-8.255H-3.017z"/></g><path fill="#3F3631" d="M105.509 58.804l.79.749.79-.749z"/><g transform="translate(110.223 58.459)"><mask id="ac" fill="#fff"><use xlink:href="#ab"/></mask><path fill="#3D3731" mask="url(#ac)" d="M-3.005 4.923h23.949v-8.3H-3.005z"/></g><path fill="#3F3631" d="M128.965 58.804l.79.749.79-.749z"/><path fill="#0066C7" d="M142.67 58.804l.79.749.791-.749z"/><g transform="translate(132.815 58.459)"><mask id="ae" fill="#fff"><use xlink:href="#ad"/></mask><path fill="#0066C7" mask="url(#ae)" d="M-2.932 4.9h15.55v-8.255h-15.55z"/></g><path fill="#3F3631" d="M62.813 43.953h135.72v-5.242H62.814z"/><g transform="translate(117.754 40.61)"><mask id="ag" fill="#fff"><use xlink:href="#af"/></mask><path fill="#FFF" mask="url(#ag)" d="M-2.966 5.223h15.002v-8.26H-2.966z"/></g><g transform="translate(132.815 40.61)"><mask id="ai" fill="#fff"><use xlink:href="#ah"/></mask><path fill="#FFF" mask="url(#ai)" d="M-2.832 4.937h16.216v-8H-2.832z"/></g><g transform="translate(171.838 40.61)"><mask id="ak" fill="#fff"><use xlink:href="#aj"/></mask><path fill="#FFF" mask="url(#ak)" d="M-3.251 4.93h18.07v-7.966H-3.25z"/></g><path fill="#00AADF" d="M184.219 42.954h10.47V39.96h-10.47z"/><g transform="translate(185.53 40.61)"><mask id="am" fill="#fff"><use xlink:href="#al"/></mask><path fill="#000" mask="url(#am)" d="M-3.027 4.934h13.65v-8h-13.65z"/></g><path fill="#FFF" d="M123.735 54.935H138.9v-9.11h-15.166z"/><path d="M178.099 60.32c0 .24-.165.435-.367.435-.202 0-.365-.195-.365-.436h.732zm.666-.588v-.62c0-.41-.282-.76-.676-.895a.357.357 0 0 0-.36-.287.358.358 0 0 0-.362.287c-.394.135-.675.485-.675.896v.62c0 .186-.164.337-.366.337h2.805c-.202 0-.366-.15-.366-.338z" stroke="#3D3731" stroke-width=".3" stroke-linecap="round" stroke-linejoin="round"/><g transform="translate(74.623 81.799)"><mask id="ao" fill="#fff"><use xlink:href="#an"/></mask><path fill="#FFF" mask="url(#ao)" d="M-2.817 9.142h124.474V-3.214H-2.817z"/></g><g transform="translate(7.53 61.891)"><mask id="aq" fill="#fff"><use xlink:href="#ap"/></mask><path fill="#C1E8F5" mask="url(#aq)" d="M-3.35 19.94h260.036V-3.275H-3.349z"/></g><g transform="translate(74.623 89.35)"><mask id="as" fill="#fff"><use xlink:href="#ar"/></mask><path fill="#3D3731" mask="url(#as)" d="M-2.774 8.223h25.833V-3.259H-2.774z"/></g><g transform="translate(74.623 89.35)"><mask id="au" fill="#fff"><use xlink:href="#at"/></mask><path fill="#0266C3" mask="url(#au)" d="M-2.774 7.973h25.833V-3.259H-2.774z"/></g><g transform="translate(154.723 88.663)"><mask id="aw" fill="#fff"><use xlink:href="#av"/></mask><path fill="#FFF" mask="url(#aw)" d="M-3.168 10.868h44.726V-2.84H-3.168z"/></g><g transform="translate(115.015 88.663)"><mask id="ay" fill="#fff"><use xlink:href="#ax"/></mask><path fill="#FFF" mask="url(#ay)" d="M-3.335 10.868h44.727V-2.84H-3.335z"/></g><path d="M188.602 92.096l1.092 1.094 1.09-1.094m-41.89 0l1.092 1.094 1.09-1.094" stroke="#3D3731" stroke-width=".3" stroke-linecap="round" stroke-linejoin="round"/><g transform="translate(119.123 72.188)"><mask id="aA" fill="#fff"><use xlink:href="#az"/></mask><path fill="#3D3731" mask="url(#aA)" d="M-3.096 7.929h36.854V-3.157H-3.096z"/></g><g transform="translate(113.646 68.756)"><mask id="aC" fill="#fff"><use xlink:href="#aB"/></mask><path fill="#E0CFB3" mask="url(#aC)" d="M-2.88 4.914h7.654v-7.88H-2.88z"/></g><g transform="translate(114.33 70.129)"><mask id="aE" fill="#fff"><use xlink:href="#aD"/></mask><path fill="#E7C161" mask="url(#aE)" d="M-3.014 8.078H4.82V-3.408h-7.834z"/></g><g transform="translate(114.33 70.129)"><mask id="aG" fill="#fff"><use xlink:href="#aF"/></mask><path fill="#D7AF5A" mask="url(#aG)" d="M-3.283 8.116h7.834V-3.37h-7.834z"/></g><g transform="translate(113.646 70.129)"><mask id="aI" fill="#fff"><use xlink:href="#aH"/></mask><path fill="#E7C161" mask="url(#aI)" d="M-2.868 8.155h7.834V-3.33h-7.834z"/></g><g transform="translate(115.7 72.875)"><mask id="aK" fill="#fff"><use xlink:href="#aJ"/></mask><path fill="#C12931" mask="url(#aK)" d="M-2.925 4.485h7.964v-7.766h-7.964z"/></g><g transform="translate(117.07 67.383)"><mask id="aM" fill="#fff"><use xlink:href="#aL"/></mask><path fill="#E0CFB3" mask="url(#aM)" d="M-3.281 4.61h7.62v-7.924h-7.62z"/></g><g transform="translate(116.385 68.07)"><mask id="aO" fill="#fff"><use xlink:href="#aN"/></mask><path fill="#AEC7C5" mask="url(#aO)" d="M-2.775 8.713h7.787V-2.955h-7.787z"/></g><g transform="translate(116.385 68.07)"><mask id="aQ" fill="#fff"><use xlink:href="#aP"/></mask><path fill="#97B2B2" mask="url(#aQ)" d="M-3.034 8.674h7.788V-2.994h-7.788z"/></g><g transform="translate(116.385 68.07)"><mask id="aS" fill="#fff"><use xlink:href="#aR"/></mask><path fill="#AEC7C5" mask="url(#aS)" d="M-3.292 8.634h7.787V-3.034h-7.787z"/></g><g transform="translate(115.7 72.875)"><mask id="aU" fill="#fff"><use xlink:href="#aT"/></mask><path fill="#525756" mask="url(#aU)" d="M-2.857 4.096H5.03v-7.248h-7.887z"/></g><g transform="translate(115.7 69.442)"><mask id="aW" fill="#fff"><use xlink:href="#aV"/></mask><path fill="#E0CFB3" mask="url(#aW)" d="M-3.204 5.177h7.63v-7.934h-7.63z"/></g><g transform="translate(115.7 70.815)"><mask id="aY" fill="#fff"><use xlink:href="#aX"/></mask><path fill="#96A847" mask="url(#aY)" d="M-2.784 6.234h7.205v-9.321h-7.205z"/></g><g transform="translate(115.7 70.815)"><mask id="ba" fill="#fff"><use xlink:href="#aZ"/></mask><path fill="#717B2D" mask="url(#ba)" d="M-3.044 6.222h7.205v-9.32h-7.205z"/></g><g transform="translate(115.7 70.815)"><mask id="bc" fill="#fff"><use xlink:href="#bb"/></mask><path fill="#96A847" mask="url(#bc)" d="M-3.305 6.21H3.9v-9.321h-7.205z"/></g><g transform="translate(113.646 72.188)"><mask id="be" fill="#fff"><use xlink:href="#bd"/></mask><path fill="#4F7F89" mask="url(#be)" d="M-3.09 7.494H7.319V-3.169h-10.41z"/></g><path fill="#373737" d="M37.603 102.47h9.55v-1.253h-9.55zM76.832 102.47h9.551v-1.253h-9.55zM117.344 102.47h15.267v-1.253h-15.267zM117.344 93.657h15.267v-1.253h-15.267zM156.99 102.47h9.59v-1.253h-9.59zM196.792 102.47h9.59v-1.253h-9.59zM156.99 93.657h5.224v-1.253h-5.225z"/><path fill="#7E746B" d="M39.25 108.564h19.722v-.768H39.25z"/><path fill="#373737" d="M39.25 111.408h19.722v-1.072H39.25zM39.25 113.239H61.12v-.514H39.25zM77.11 85.41h5.568v-.883H77.11z"/><path fill="#FFF" d="M77.896 92.125h13.765v-.884H77.896z"/><path fill="#373737" d="M85.013 85.41h3.14v-.883h-3.14zM90.534 85.41h9.27v-.883h-9.27zM102.256 85.41h5.348v-.883h-5.348zM42.49 117.764h7.045v-.514h-7.046zM42.49 134.852h7.045v-.514h-7.046zM42.49 154.37h7.045v-.515h-7.046z"/><path fill="#7E746B" d="M39.25 125.39h19.722v-.767H39.25z"/><path fill="#373737" d="M39.25 128.235h19.722v-1.072H39.25zM39.25 130.066H61.12v-.514H39.25z"/><path fill="#7E746B" d="M38.566 142.09h19.721v-.768H38.566z"/><path fill="#373737" d="M38.566 147.428h19.721v-1.072H38.566zM38.566 144.867h10.686v-1.072H38.566zM38.566 149.795h21.868v-.514H38.566z"/><g><path d="M131.59 53.997c-2.08 0-3.768-1.79-3.768-3.998 0-2.209 1.687-3.999 3.768-3.999 2.081 0 3.769 1.79 3.769 3.999 0 2.208-1.688 3.998-3.769 3.998zM126 51.745l.77-2.023h.74l-.769 2.023zM135.504 51.745l.76-2.023h.404l-.76 2.023z" fill="#C30000"/><g transform="translate(136.974 49.69)"><mask id="bg" fill="#fff"><use xlink:href="#bf"/></mask><path fill="#C30000" mask="url(#bg)" d="M.025 2.055L.785.033H1L.24 2.055z"/></g><path d="M134.804 49.722h-.67s-.046 0-.062.043l-.37 1.205-.371-1.205c-.017-.043-.063-.043-.063-.043h-1.288c-.028 0-.051.025-.051.054v.41c0-.325-.326-.464-.516-.464-.427 0-.712.298-.801.752-.005-.301-.028-.409-.105-.52a.503.503 0 0 0-.14-.136c-.114-.071-.216-.096-.436-.096h-.257s-.047 0-.063.043l-.234.616v-.605c0-.03-.023-.054-.051-.054h-.596s-.046 0-.063.043l-.243.64s-.025.065.031.065h.229v1.22c0 .03.023.055.051.055h.59c.029 0 .052-.024.052-.055v-1.22h.23c.132 0 .16.004.211.03a.149.149 0 0 1 .074.066c.032.062.04.137.04.357v.767c0 .03.022.055.05.055h.567s.064 0 .089-.067l.125-.33c.167.249.442.397.783.397h.074s.065 0 .09-.067l.219-.574v.586c0 .03.023.055.051.055h.578s.064 0 .09-.067l.231-.614c.01-.05-.051-.05-.051-.05h-.206v-1.045l.649 1.709c.025.067.089.067.089.067h.682s.065 0 .09-.067l.72-1.89c.024-.066-.048-.066-.048-.066zm-2.875 1.292h-.388c-.155 0-.28-.133-.28-.297 0-.164.125-.298.28-.298h.108c.154 0 .28.134.28.298v.297z" fill="#FEFEFE"/></g><g><path d="M307.979 121.267c3.262 0 5.91 2.65 5.91 5.911v51.773a5.914 5.914 0 0 1-5.91 5.917H272.08v24.442l-31.442-24.442h-34.747a5.912 5.912 0 0 1-5.911-5.917v-51.773a5.913 5.913 0 0 1 5.91-5.911H307.98z" fill="#FFCA85"/><path d="M210.034 136.8H107.56c-2.97 0-5.379 2.156-5.379 4.816v57.258c0 2.662 2.41 4.813 5.38 4.813h32.392v19.904l28.603-19.904h41.477c2.972 0 5.38-2.151 5.38-4.813v-57.258c0-2.66-2.408-4.816-5.38-4.816" fill="#337C9B"/><g transform="translate(232.356 149.153)" fill="#979797"><ellipse cx="6.441" cy="6.523" rx="6.441" ry="6.523"/><ellipse cx="25.385" cy="6.523" rx="6.441" ry="6.523"/><ellipse cx="44.329" cy="6.523" rx="6.441" ry="6.523"/></g><g transform="translate(132.188 166.32)" fill="#D8D8D8"><ellipse cx="6.441" cy="6.523" rx="6.441" ry="6.523"/><ellipse cx="25.385" cy="6.523" rx="6.441" ry="6.523"/><ellipse cx="44.329" cy="6.523" rx="6.441" ry="6.523"/></g></g></g></svg>