<?xml version="1.0" encoding="UTF-8"?>
<svg width="16px" height="16px" viewBox="0 0 16 16" version="1.1" xmlns="http://www.w3.org/2000/svg" xmlns:xlink="http://www.w3.org/1999/xlink">
    <!-- Generator: Sketch 49 (51002) - http://www.bohemiancoding.com/sketch -->
    <title>Check circle</title>
    <desc>Created with Sketch.</desc>
    <defs>
        <path d="M15.7473333,0.144666667 C16.036,0.374 16.084,0.792666667 15.856,1.08133333 L6.856,12.4146667 C6.73733333,12.5633333 6.56133333,12.654 6.37133333,12.6646667 C6.35866667,12.666 6.346,12.6666667 6.33333333,12.6666667 C6.15666667,12.6666667 5.98666667,12.5966667 5.862,12.4713333 L2.52866667,9.13733333 C2.268,8.878 2.268,8.45666667 2.52866667,8.19533333 C2.78866667,7.93466667 3.21066667,7.93466667 3.47133333,8.19533333 L6.276,11 L14.8113333,0.252 C15.04,-0.036 15.4586667,-0.0853333333 15.7473333,0.144666667 Z M12.3666667,7.34666667 C12.726,7.26333333 13.0833333,7.48866667 13.1653333,7.84733333 C13.2766667,8.33466667 13.3333333,8.83466667 13.3333333,9.33333333 C13.3333333,13.0093333 10.3426667,16 6.66666667,16 C2.99066667,16 4.4408921e-16,13.0093333 4.4408921e-16,9.33333333 C4.4408921e-16,5.65666667 2.99066667,2.66666667 6.66666667,2.66666667 C7.70666667,2.66666667 8.70333333,2.9 9.63,3.36066667 C9.96,3.524 10.0946667,3.92466667 9.93066667,4.254 C9.76666667,4.584 9.366,4.71866667 9.03666667,4.554 C8.296,4.18666667 7.49866667,4 6.66666667,4 C3.726,4 1.33333333,6.39266667 1.33333333,9.33333333 C1.33333333,12.274 3.726,14.6666667 6.66666667,14.6666667 C9.60733333,14.6666667 12,12.274 12,9.33333333 C12,8.934 11.9546667,8.53466667 11.8653333,8.14466667 C11.7833333,7.786 12.008,7.42866667 12.3666667,7.34666667 Z" id="path-1"></path>
    </defs>
    <g id="Check-circle" stroke="none" stroke-width="1" fill="none" fill-rule="evenodd">
        <g id="icon/fill/status/-check-circle-1">
            <mask id="mask-2" fill="white">
                <use xlink:href="#path-1"></use>
            </mask>
            <use id="Mask" fill="#0067C5" fill-rule="nonzero" xlink:href="#path-1"></use>
            <g id="⚙️/-interaksjonsfarge/-interaksjon" mask="url(#mask-2)" fill="#0067C5" fill-rule="evenodd">
                <g transform="translate(7.999985, 8.000000) scale(1, -1) translate(-7.999985, -8.000000) translate(-0.000015, 0.000000)" id="Rectangle-3">
                    <rect x="0" y="0" width="16" height="16"></rect>
                </g>
            </g>
        </g>
    </g>
</svg>