<svg role="img" width="116" height="116" xmlns="http://www.w3.org/2000/svg" xmlns:xlink="http://www.w3.org/1999/xlink"><defs><path id="a" d="M4.362 5.734l1.35 1.202 3.295-1.413 3.08-.124-1.416-2.128-1.759-.97v-.66L6.975.204H4.362v5.53z"/><path id="c" d="M.31 4.469l1.773 1.578 3.295-1.412 3.08-.124-1.416-2.13-1.759-.969v-.66l-.59-.437H.31v4.154z"/><path id="e" d="M.05 2.806l2.197 1.955 3.295-1.412 3.08-.124-1.417-2.13L5.447.127V.028H.049v2.778z"/></defs><g transform="translate(0 -6)" fill="none" fill-rule="evenodd"><circle fill="#CCDEE6" cx="57" cy="65" r="57"/><path d="M66.425 71.245l6.702 38.006c.239 1.355 1.514 2.263 2.848 2.027l32.34-5.702c1.332-.235 2.22-1.524 1.98-2.879l-7.693-43.636c-.24-1.355-1.514-2.263-2.847-2.028l-26.35 4.646-6.98 9.566z" fill="#E4E4DB"/><path d="M73.482 61.666l.993 5.634a2.484 2.484 0 0 1-2.004 2.885l-6.045 1.066 7.056-9.585z" fill="#C9C9C9"/><g fill="#8F9395"><path d="M75.177 80.628l23.264-4.102-.36-2.037-23.263 4.102zM75.91 84.79l23.265-4.102-.36-2.038-23.264 4.102zM76.767 89.644l23.178-4.087-.36-2.038-23.178 4.087zM77.5 93.804l23.179-4.087-.36-2.037-23.178 4.087zM78.356 98.659l23.179-4.087-.36-2.038-23.178 4.087zM74.321 75.774l23.264-4.102-.36-2.037-23.263 4.102z"/></g><g transform="rotate(-10 516.801 -463.54)"><path d="M23.5 10.537l.47-1.108a1.027 1.027 0 0 1 1.345-.545l.148.063c.523.22.767.822.545 1.344l-.47 1.108a1.027 1.027 0 0 1-1.345.544l-.148-.062a1.024 1.024 0 0 1-.545-1.344" fill="#C4252A"/><path fill="#E9D8BD" d="M4.483.077H.307l2.906 2.997L4.288 1.69z"/><mask id="b" fill="#fff"><use xlink:href="#a"/></mask><path fill="#EEC65C" mask="url(#b)" d="M24.389 9.67l.423-.999L4.785.205l-.423.999z"/><g mask="url(#b)"><g transform="translate(3.63 .889)"><mask id="d" fill="#fff"><use xlink:href="#c"/></mask><path fill="#E3B854" mask="url(#d)" d="M.31 1.314L20.335 9.78l.424-.998L.733.315z"/></g></g><g mask="url(#b)"><g transform="translate(3.466 2.175)"><mask id="f" fill="#fff"><use xlink:href="#e"/></mask><path fill="#EEC65C" mask="url(#f)" d="M20.5 8.494L.472.028l-.423.999 20.027 8.466z"/></g></g><path d="M4.13.313c-.079.189.107.416 0 .667a.308.308 0 0 1-.065.098l.297.126.423-1-.277-.117s-.297.038-.377.226" fill="#EEC65C" mask="url(#b)"/><path d="M4.065 1.078c-.132.137-.356.125-.469.391-.112.266.052.418.046.608l.296.126.424-1-.297-.125z" fill="#E3B854" mask="url(#b)"/><path d="M3.642 2.077a.335.335 0 0 1-.026.115c-.106.251-.399.277-.478.464-.08.189.1.428.1.428l.277.117.423-.999-.296-.125z" fill="#EEC65C" mask="url(#b)"/><path fill="#5D5D5B" mask="url(#b)" d="M.307.078l1.028 1.06.45-1.06z"/><g mask="url(#b)" fill="#5D5D5B"><path d="M23.542 11.668l1.27-2.997.408.173-1.27 2.996z"/></g></g><g><path d="M113.317 88.996l.27-1.173a1.027 1.027 0 0 1 1.23-.77l.157.036c.553.126.898.677.77 1.228l-.27 1.173a1.027 1.027 0 0 1-1.23.77l-.157-.035a1.024 1.024 0 0 1-.77-1.23" fill="#C4252A"/><path d="M92.773 81.997l-4.113.726 3.382 2.445.819-1.548z" fill="#E9D8BD"/><path d="M114.042 87.988l.243-1.058-21.193-4.86-.243 1.057z" fill="#EEC65C"/><path d="M92.605 84.184l21.193 4.86.244-1.056-21.193-4.86z" fill="#E3B854"/><path d="M113.798 89.045l-21.193-4.86-.243 1.057 21.192 4.86zM92.467 82.29c-.046.2.176.391.115.657a.308.308 0 0 1-.047.108l.314.072.243-1.057-.293-.068s-.286.09-.332.289" fill="#EEC65C"/><path d="M92.535 83.055c-.106.158-.329.185-.394.467-.065.281.124.402.15.59l.314.073.244-1.058-.314-.072z" fill="#E3B854"/><path d="M92.292 84.112a.335.335 0 0 1-.005.118c-.062.266-.346.342-.39.54-.048.2.171.404.171.404l.294.068.243-1.057-.313-.073z" fill="#EEC65C"/><path d="M88.66 82.723l1.197.865.259-1.122zM113.554 90.102l.73-3.172.433.1-.73 3.171z" fill="#5D5D5B"/></g><g fill="#D8D8D8"><path d="M30.195 10.346l-13.056 3.498-10.707 2.869-5.217 1.398 1.387 5.177 9.794 36.55 1.388 5.18L19 63.618l10.707-2.869 13.056-3.498c2.882-.772 4.597-3.716 3.83-6.576L36.8 14.126c-.766-2.86-3.724-4.552-6.605-3.78" fill="#84748A"/><path fill="#38363A" d="M36.733 60.093l1.99-.534-13.089-48.851-1.99.533z"/><path fill="#CE2128" d="M23.503 66.9l-1.315-.65-.813 1.22-1.004-3.747 2.128-.57z"/></g><g><path d="M94.74 21.127l.833.5c2.113 1.27 2.847 3.93 1.639 5.94l-2.323 3.865c-1.208 2.01-3.9 2.611-6.013 1.341l-.834-.5c-4.312 2.443-9.929 2.49-14.652-.348-6.842-4.11-9.217-12.72-5.306-19.23 3.911-6.508 12.628-8.453 19.47-4.343 4.723 2.839 7.318 7.82 7.185 12.775z" fill="#FFD399"/><path d="M102.612 27.11l-5.61 9.337c-.3.5-.969.648-1.494.333l-1.008-.606c-.525-.316-.707-.976-.407-1.475l5.61-9.338c.3-.499.969-.648 1.494-.333l1.008.606c.525.316.707.976.407 1.475M106.173 29.249l-5.61 9.337c-.3.5-.968.65-1.494.334l-1.009-.607c-.524-.315-.707-.975-.407-1.475l5.61-9.337c.3-.5.97-.649 1.494-.333l1.01.606c.525.315.706.976.406 1.475M105.14 32.446l-2.221 3.695c-.335.557.258 1.257.881 1.034a4.06 4.06 0 0 0 2.136-1.736 4.057 4.057 0 0 0 .53-2.7c-.096-.656-.992-.85-1.327-.293" fill="#5A5C5D"/></g><g><path d="M6.95 112.536c-.953-1.002-1-2.681-.109-3.75l9.524-11.43c.891-1.07 2.384-1.124 3.337-.122.95 1.001 1 2.68.108 3.748l-9.524 11.43c-.891 1.069-2.384 1.126-3.336.124" fill="#C52D35"/><path d="M35.438 79.664c-3.987-4.074-10.268-3.848-14 .501-3.735 4.348-3.53 11.2.457 15.273 3.988 4.074 10.27 3.85 14.004-.5 3.732-4.348 3.526-11.2-.461-15.274M20.799 96.717c-4.634-4.734-4.873-12.697-.535-17.75 4.34-5.053 11.639-5.314 16.271-.581 4.633 4.733 4.874 12.696.534 17.75-4.338 5.054-11.637 5.313-16.27.58" fill="#303339"/><path d="M17.871 99.435c-.69-.69-1.004-1.53-.356-2.268l2.161-2.462a1.639 1.639 0 0 1 2.423-.086c.69.69.725 1.847.078 2.584l-2.162 2.463c-.647.739-1.453.459-2.144-.23" fill="#303339"/><path d="M17.503 98.907L8.605 109.41a.927.927 0 0 0 .035 1.218.728.728 0 0 0 1.102-.04l8.515-10.053c-.517-.555-.736-1.14-.754-1.628" fill="#DA4D57"/></g></g></svg>