<svg xmlns="http://www.w3.org/2000/svg" width="163" height="131" viewBox="0 0 163 131">
    <g fill="none" fill-rule="evenodd">
        <path fill="#CCDEE6" d="M-93-186.007c0-4.414 3.581-7.993 8-7.993h374c4.418 0 8 3.58 8 7.993v309.014c0 4.414-3.581 7.993-8 7.993H-85c-4.418 0-8-3.58-8-7.993v-309.014z"/>
        <path fill="#FFF" d="M57 79.532h77.317V0H57z"/>
        <path fill="#838688" d="M65.931 5.934a3.004 3.004 0 0 1-6.006 0 3.005 3.005 0 0 1 3.002-3.007 3.008 3.008 0 0 1 3.004 3.007M132.23 5.934a3.002 3.002 0 1 1-6.005 0 3.004 3.004 0 0 1 3.002-3.007 3.006 3.006 0 0 1 3.002 3.007"/>
        <path fill="#E9C264" d="M90.655 58.804c2.71.528-18.983-.373-21.977 0C65.686 59.18 67.069 40 67.069 40h21.977s-1.106 18.282 1.61 18.804"/>
        <path fill="#DAB25B" d="M88.9 55.61H66.75c.288 1.936.77 3.228 1.566 3.131 2.994-.375 24.687.525 21.977 0-.68-.13-1.114-1.36-1.393-3.131"/>
        <path fill="#E9C264" d="M122.829 47.098c2.707.523-18.983-.374-21.976 0-2.993.375-1.608-18.805-1.608-18.805h21.974s-1.102 18.282 1.61 18.805"/>
        <path fill="#DAB25B" d="M122.05 43.902H99.9c.288 1.94.77 3.234 1.568 3.135 2.992-.376 24.682.522 21.975 0-.68-.134-1.117-1.36-1.393-3.135"/>
        <path fill="#E9C264" d="M96.502 28.563c2.713.522-18.98-.376-21.974 0-2.992.37-1.609-18.807-1.609-18.807h21.975s-1.104 18.282 1.608 18.807"/>
        <path fill="#DAB25B" d="M94.75 25.366H72.6c.288 1.936.77 3.231 1.566 3.132 2.994-.376 24.687.522 21.974 0-.676-.131-1.114-1.362-1.39-3.132"/>
        <g fill="#D8D8D8">
            <path fill="#337C9B" d="M144.66 63.517l-14.145 3.79-11.6 3.108-5.65 1.514 1.515 5.657 10.7 39.935 1.516 5.657 5.652-1.514 11.6-3.108 14.143-3.79a5.855 5.855 0 0 0 4.137-7.172l-10.7-39.935a5.855 5.855 0 0 0-7.169-4.142"/>
            <path fill="#38363A" d="M151.861 117.854l2.157-.578-14.302-53.375-2.157.578z"/>
            <path fill="#CE2128" d="M137.536 125.257l-1.426-.714-.88 1.332-1.096-4.095 2.305-.618z"/>
        </g>
        <g>
            <path fill="#374351" d="M.959 130.858h79.708V116.05H.959z"/>
            <path fill="#FFF" d="M5.051 113.129h71.526v-4.977H5.05zM5.051 106.907h71.526v-4.976H5.05zM5.051 100.686h71.526v-4.977H5.05z"/>
            <path fill="#8F9395" d="M5.051 100.686h71.526v-1.718H5.05z"/>
            <path fill="#FFF" d="M1.629 94.588h71.525V89.61H1.629z"/>
            <path fill="#8F9395" d="M1.629 94.588h71.525v-1.719H1.629z"/>
            <path fill="#FFF" d="M14.291 88.607h71.525V83.63H14.291z"/>
            <path fill="#8F9395" d="M14.291 88.607h71.525V86.89H14.291zM5.051 106.907h71.526v-1.718H5.05zM5.051 113.361h71.526v-1.718H5.05z"/>
        </g>
    </g>
</svg>
