<svg xmlns="http://www.w3.org/2000/svg" width="110" height="137" viewBox="0 0 110 137">
    <g fill="none" fill-rule="evenodd">
        <path fill="#FFF" fill-rule="nonzero" d="M28.214 82.363c-2.27-.463-5.583-1.579-7.48-.21-.395.273.25-.506.126-.043-1.375 5.41-5.98 3.242-7.625 8.253-2.813-.105-9.084 4.231-9.792 6.989-.709 2.758.708 5.916 3.229 7.2a10.756 10.756 0 0 1-3.688 1.052c-1.083 5.81-4.458 9.179-2.25 14.653.375.947 4.834 1.578 2.709 4-.667.757-1.563 1.43-2.5 1.052-1.042.484-.021 4.568.708 5.452 9.292 11.39 15.542 4.232 22.209 1.495s5.021-9.536 6.667-10.736l.625 4c.125.168 3.125-.211 3.75 2.105.25.947 2.625-3.158 2.917-4 1.042-2.926.042-2.295 1.458-5.053 2.917-5.684.854-7.957 3.334-13.052 2.229-4.59-3.48-13.515-1.667-19.157.458-1.41.333-5.347 1.5-6.253.75-.568 2.73-3.326 3.5-3.852 3.334-2.358 7.084 1.263 4.167-5.684-2.354-5.6 2.167-10.694 3.75-13.684 2.021-3.81 2.167-6.442 3.542-10.526.73-2.168 1-4.42 1.875-6.526.875-2.105 2.667-4.126 4.917-4.337-.98-1.6.896-3.515 2.687-4.02 1.792-.506 3.938-.59 5.042-2.085.604-.82.75-1.894 1.125-2.863 1.23-3.179 5.375-4.778 8.396-3.242 1.75.906 1.375 3.684 3.021 4.758 2.834 1.853 4.771 1.432 7.292-.842l4.167.842c.938-2.59 1.646-5.516 1.042-8.21-.5-2.21-.854-5.032 1.396-5.242 3.375-.316 5.48 5.242 8.188 5.242 1.458-3.79 3.75-5.474 3.416-6.168-.666-1.348-3.104.779-5.5-.569-.562-.316-.937-3.284-.312-3.494 2.708-.906 5.979-2.4 3.208-4.716-1.625-1.347-3.25-2.779-5.354-2.695-1.125.042-2.396.506-2.73 1.58-1.104.168-1.562-1.895-.479-2.211-.416-1.18-1.854-1.874-3.02-1.432-1.167.442-1.792 1.937-1.313 3.095-1.438-.716-2.959-1.432-4.563-1.432-1.604 0-3.333.99-3.646 2.59-.708-.295-1.48-.59-2.208-.4-.75.19-1.334 1.094-.938 1.747-2-1.263-5.104.274-5.313 2.653.646.926 2.188.568 2.938.926.583 1.073-1.23 1.579-2.333 2.063-3.063 1.326-6.355 2.695-9.647 2.147-.333-.063-.708-.126-1.02-.02-.771.23-.938 1.22-1.209 2-.75 2.146-2.958 3.304-4.833 4.567-1.875 1.263-1.146 1.895-3.23 4.21-1.708-1.157-4.166.527-5.854 1.706-1.708 1.179.73 1.179-.396 2.926 1.792.442.063 2.463 1.917 2.442-3.917 1.18-4.292 3.221-7.125 6.19 2.77.231 5.417-5.474 8.958-4 2.584 1.073 2.5-1.264 1.042.631-4.25.842-6.459 5.747-6.146 10.105-3 3.39-5.292 7.39-6.73 11.705-.583 1.768-1.062 3.663-2.25 5.095-.708.884-1.666 1.557-2.25 2.526-.583.968-.604 2.442.355 3.052-1.438.063-2.938.148-4.209.842-1.27.695-2.23 2.21-1.833 3.6.166.569-.604-.442-.709.148-.104.61.396.947-.208 1.052-2.292.421-3.333 1.263-5.625 7.579 1.312.631 1.854.947 3.125.21 1.27-.736 2.5-3.578 3.125-1.684-3.458 1.306 5.646 4.548-5 3.158l-.396.842c-.02-.042-.02-.042-.042-.042z"/>
        <path fill="#C52D35" d="M92.846 107.844c1.471-1.616 1.545-4.325.168-6.05l-14.708-18.44c-1.377-1.725-3.682-1.814-5.153-.197-1.469 1.616-1.545 4.323-.168 6.047l14.708 18.441c1.377 1.725 3.683 1.816 5.153.2"/>
        <path fill="#303339" d="M47.408 55.432c6.236-6.491 16.063-6.132 21.902.798 5.842 6.928 5.52 17.847-.716 24.338-6.24 6.49-16.066 6.133-21.907-.797-5.84-6.93-5.516-17.849.72-24.34m22.901 27.173c7.25-7.543 7.624-20.23.837-28.284-6.788-8.05-18.207-8.466-25.454-.925-7.248 7.543-7.624 20.23-.835 28.284 6.786 8.053 18.205 8.466 25.452.925"/>
        <path fill="#303339" d="M74.833 86.883c1.135-1.153 1.649-2.559.585-3.794l-3.55-4.12c-1.063-1.235-2.842-1.297-3.98-.144-1.131 1.154-1.19 3.09-.127 4.323l3.55 4.121c1.064 1.236 2.388.767 3.522-.386"/>
        <path fill="#DA4D57" d="M77.147 86l13.532 16.694c.449.553.423 1.417-.054 1.935-.478.519-1.226.489-1.674-.062L76 88.587c.786-.882 1.119-1.81 1.147-2.587"/>
    </g>
</svg>
