<?xml version="1.0" encoding="UTF-8"?>
<svg width="116px" height="116px" viewBox="0 0 116 116" version="1.1" xmlns="http://www.w3.org/2000/svg" xmlns:xlink="http://www.w3.org/1999/xlink">
    <!-- Generator: Sketch 50.2 (55047) - http://www.bohemiancoding.com/sketch -->
    <title>Oppdag dine muligheter</title>
    <desc>Created with Sketch.</desc>
    <defs></defs>
    <g id="Veien-til-Arbeid" stroke="none" stroke-width="1" fill="none" fill-rule="evenodd">
        <g id="FO-1102---22.06.18" transform="translate(-206.000000, -900.000000)">
            <rect id="Rectangle-11-Copy" fill="#EFEFEF" x="1" y="788" width="1250" height="772"></rect>
            <g id="Group-12-Copy" transform="translate(145.000000, 863.000000)" fill="#FFFFFF">
                <rect id="Rectangle-4-Copy" x="0" y="0" width="960" height="187"></rect>
            </g>
            <g id="Group-23" transform="translate(206.000000, 900.000000)" fill="#CCDEE6">
                <circle id="Oval-2-Copy-2" cx="57" cy="57" r="57"></circle>
            </g>
            <g id="Group-31-Copy" transform="translate(235.000000, 926.000000)">
                <g id="Group-29">
                    <path d="M1.5703282,61.4766342 C-0.00458798983,59.8357411 -0.0834433206,57.0854776 1.39071328,55.3348666 L17.1398752,36.6145444 C18.6140318,34.8639334 21.0826417,34.7737209 22.6575579,36.4146139 C24.2302837,38.055507 24.3113294,40.8033323 22.8371728,42.5539433 L7.08801093,61.2742655 C5.61385433,63.0248765 3.14524439,63.1175272 1.5703282,61.4766342" id="Fill-33" fill="#C52D35"></path>
                    <path d="M48.6793121,7.63847846 C42.0867647,0.966989436 31.6995917,1.33642042 25.5271796,8.45943621 C19.3525326,15.5800374 19.6922164,26.8030128 26.2847638,33.4745018 C32.879546,40.1459909 43.266719,39.7789744 49.4413659,32.6559587 C55.6137781,25.5329429 55.2718595,14.3099675 48.6793121,7.63847846 M24.472372,35.5679441 C16.8093737,27.8147225 16.4138208,14.7735672 23.5874063,6.49638135 C30.7632265,-1.77838987 42.8331752,-2.20577082 50.4939387,5.54503619 C58.1547023,13.2982578 58.5524899,26.3394131 51.3766696,34.6165989 C44.2030842,42.8937847 32.1331355,43.3187511 24.472372,35.5679441" id="Fill-34" fill="#303339"></path>
                </g>
                <path d="M19.7006208,39 L4.36342655,55.694186 C3.85497381,56.2471262 3.88435108,57.1110953 4.42444088,57.6294767 C4.96679046,58.1478582 5.81421168,58.1179072 6.32266442,57.5672709 L21,41.5872993 C20.1096428,40.7048989 19.7322579,39.7764202 19.7006208,39" id="Fill-36" fill="#DA4D57" transform="translate(12.500000, 48.500000) rotate(-2.000000) translate(-12.500000, -48.500000) "></path>
                <path d="M19.1665617,40.8830853 C18.0320209,39.7297877 17.5180431,38.3242063 18.5815271,37.0885303 L22.1320004,32.9696102 C23.1954844,31.7339342 24.9742739,31.6721504 26.1111833,32.825448 C27.2433555,33.9787456 27.3025696,35.9146381 26.2390856,37.1477397 L22.6886123,41.2692341 C21.6251283,42.5049101 20.3011025,42.036383 19.1665617,40.8830853" id="Fill-35" fill="#303339"></path>
            </g>
        </g>
    </g>
</svg>