<svg role="img" viewBox="0 0 116 116" xmlns="http://www.w3.org/2000/svg" width="116" height="116" ><g fill="none" fill-rule="evenodd"><path fill="#EFEFEF" d="M-205-112h1250v772H-205z"/><path d="M-61-37h960v187H-61z" fill="#FFF"/><circle cx="57" cy="57" r="57" fill="#CCDEE6"/><path d="M30.57 87.477c-1.575-1.641-1.653-4.392-.18-6.142l15.75-18.72c1.474-1.751 3.943-1.841 5.518-.2 1.572 1.64 1.653 4.388.18 6.139l-15.75 18.72c-1.474 1.75-3.943 1.844-5.518.203" fill="#C52D35"/><path d="M77.68 33.638c-6.593-6.671-16.98-6.302-23.153.821-6.174 7.121-5.835 18.344.758 25.016 6.595 6.671 16.982 6.304 23.156-.819 6.173-7.123 5.83-18.346-.762-25.018m-24.207 27.93c-7.663-7.753-8.058-20.794-.885-29.072 7.176-8.274 19.246-8.702 26.907-.951 7.66 7.753 8.058 20.794.883 29.072-7.174 8.277-19.244 8.702-26.905.95" fill="#303339"/><path d="M48.365 64.754l-14.746 17.22c-.488.57-.429 1.433.129 1.932.56.499 1.406.44 1.895-.129l14.11-16.482c-.92-.85-1.33-1.766-1.388-2.54" fill="#DA4D57"/><path d="M48.167 66.883c-1.135-1.153-1.649-2.559-.585-3.794l3.55-4.12c1.063-1.235 2.842-1.297 3.98-.144 1.131 1.154 1.19 3.09.127 4.323l-3.55 4.121c-1.064 1.236-2.388.767-3.522-.386" fill="#303339"/></g></svg>