<svg xmlns="http://www.w3.org/2000/svg" width="116" height="101" viewBox="0 0 116 101" role="img">
    <g fill="none" fill-rule="evenodd">
        <path fill="#CCC8C4" d="M69.928 69.539c0 1.648-1.29 2.983-2.882 2.983H25.494c-1.591 0-2.881-1.335-2.881-2.983 0-1.646 1.29-2.983 2.881-2.983h41.552c1.592 0 2.882 1.337 2.882 2.983M73.504 62.992c0 1.646-1.289 2.982-2.882 2.982H29.075c-1.594 0-2.882-1.336-2.882-2.982 0-1.649 1.288-2.984 2.882-2.984h41.547c1.593 0 2.882 1.335 2.882 2.984M76.109 56.44c0 1.648-1.292 2.984-2.884 2.984h-41.55c-1.592 0-2.88-1.336-2.88-2.984 0-1.647 1.288-2.983 2.88-2.983h41.55c1.592 0 2.884 1.336 2.884 2.983M72.705 49.89c0 1.647-1.293 2.984-2.883 2.984H39.805c-1.594 0-2.882-1.337-2.882-2.984 0-1.649 1.288-2.984 2.882-2.984h30.017c1.59 0 2.883 1.335 2.883 2.984"/>
        <path fill="#CCC8C4" d="M17.559 69.145h3.581c.98 0 1.796 1.766 1.796 1.766l28.76-3.675V49.889l-9.444-2.983s-.216-.731.867-1.46c1.089-.732 6.19-2.921 6.19-2.921s6.02-2.919 4.937-5.619c-1.084-2.691-5.045-1.457-5.045-1.457s-6.248 1.373-9.226 2.135c-3.769.961-7.6 3.2-10.423 5.054-2.82 1.853-6.94 5.39-6.94 6.625l-5.053.283v19.599z"/>
        <path fill="#BDD1D0" d="M.8 72.694H17.56V46.153H.8z"/>
        <path fill="#6998A5" d="M9.815 72.694h7.744V46.153H9.815z"/>
        <path fill="#38363A" d="M13.631 69.927c.9 0 1.628-.756 1.628-1.687 0-.929-.728-1.683-1.628-1.683-.9 0-1.629.754-1.629 1.683 0 .931.73 1.687 1.63 1.687"/>
        <path fill="#515658" d="M110.54 9.607H49.035c-2.539 0-4.593 2.152-4.593 4.811v81.243c0 .496.072.978.206 1.427a4.865 4.865 0 0 0 1.143 1.974c.1.104.21.213.327.308a4.461 4.461 0 0 0 2.917 1.1h61.503c2.539 0 4.595-2.154 4.595-4.81V14.419c0-2.659-2.056-4.81-4.595-4.81"/>
        <path fill="#FFF" d="M50.132 27.366v62.506c0 2.233 1.727 4.035 3.854 4.035h51.603c2.129 0 3.855-1.802 3.855-4.035V18.106c0-2.229-1.726-4.034-3.855-4.034H63.548L50.132 27.366z"/>
        <path fill="#C0C0BE" d="M63.548 14.072v9.256c0 2.23-1.726 4.039-3.854 4.039h-9.562l13.416-13.295z"/>
        <path fill="#2F3237" d="M79.79 11.866c-.822 0-1.487-.693-1.487-1.553s.665-1.558 1.487-1.558c.818 0 1.486.697 1.486 1.558 0 .86-.668 1.553-1.486 1.553m9.18-6.36h-5.532v-1.07c0-2.11-1.635-3.82-3.648-3.82-2.02 0-3.651 1.71-3.651 3.82v1.07h-5.532c-2.727 0-4.94 2.316-4.94 5.171v6.22H93.91v-6.22c0-2.855-2.213-5.171-4.94-5.171"/>
        <g fill="#515658">
            <path d="M86.094 77.445V52.891H69.042v4.82h3.772v19.734h-3.772v4.822h20.823v-4.822zM79.454 48.78c4.428 0 8.02-3.757 8.02-8.39 0-4.633-3.592-8.389-8.02-8.389-4.429 0-8.02 3.756-8.02 8.39 0 4.632 3.591 8.388 8.02 8.388"/>
        </g>
        <path fill="#CCC8C4" d="M17.559 69.145h3.581c.98 0 1.796 1.766 1.796 1.766l18.51-4.354-.354-15.158 1.16-4.493s-.216-.731.867-1.46c1.089-.732 6.19-2.921 6.19-2.921s6.02-2.919 4.937-5.619c-1.084-2.691-5.045-1.457-5.045-1.457s-6.248 1.373-9.226 2.135c-3.769.961-7.6 3.2-10.423 5.054-2.82 1.853-6.94 5.39-6.94 6.625l-5.053.283v19.599z"/>
    </g>
</svg>
