<svg xmlns="http://www.w3.org/2000/svg" xmlns:xlink="http://www.w3.org/1999/xlink" width="100" height="100"><defs><circle id="a" cx="50" cy="50" r="50"/><path id="c" d="M54.537 4.109C62.867 8.487 75 19.17 75 29.099V51c0 6.627-5.373 12-12 12H0V29.1C0 19.567 10.99 9.34 19.155 4.664c1.498 2.533 5.453 12.632 17.488 12.632 11.947 0 17.65-10.68 17.894-13.187z"/><path id="e" d="M56.72 32.707c-5.318-6.463-9.04-15.52-9.04-15.52-16.923-5.172-38.112.161-38.253.668C7.507 24.757.402 33.29.402 33.29.51 16.343 9.401-.034 28.541 0 48.174-.07 56.2 14.936 56.72 32.707z"/><path id="g" d="M28.31 25.91c-6.483 0-11.739-2.138-11.739-4.774 0-2.635 5.256-4.772 11.739-4.772 6.482 0 11.738 2.137 11.738 4.772 0 2.636-5.256 4.773-11.738 4.773m11.64-9.83c-4.944-1.819-6.918-2.407-11.013-2.407-4.096 0-6.88.024-12.255 2.727C4.257 22.646 0 .587 0 .587 0 35.754 17.692 45 28.75 45 39.98 45 58 36.926 58 0c0 0-5.314 20.765-18.05 16.079"/></defs><g fill="none" fill-rule="evenodd"><mask id="b" fill="#fff"><use xlink:href="#a"/></mask><g mask="url(#b)"><path fill="#99BDCD" d="M-8 100h126V0H-8z"/></g><g mask="url(#b)"><path fill="#E7E5E2" d="M32.154 76.925c1.412 2.246 5.377 41.7 17.28 41.7 11.905 0 17.28-40.188 17.28-42.28-18.227-10.386-34.56.58-34.56.58z"/><g transform="translate(12.801 71.875)"><mask id="d" fill="#fff"><use xlink:href="#c"/></mask><use fill="#D8A25D" xlink:href="#c"/><g mask="url(#d)"><path fill="#5C4378" d="M-45.833 100.37h175v-128h-175z"/></g></g><path fill="#E7E5E2" d="M78.069 55.76C74.616 69.927 63.415 80.307 50.13 80.307c-13.286 0-24.487-10.382-27.938-24.55a3.156 3.156 0 0 1-1.097.193c-1.525 0-2.765-1.06-2.765-2.373V44c0-1.314 1.24-2.375 2.765-2.375.102 0 .202.005.301.014C23.433 25.3 35.521 12.75 50.131 12.75c14.609 0 26.698 12.55 28.734 28.888a3.25 3.25 0 0 1 .29-.013c1.528 0 2.764 1.061 2.764 2.375v9.577c0 1.313-1.236 2.373-2.765 2.373-.385 0-.752-.068-1.085-.19z"/><path fill="#635E59" d="M41.028 43.28c-2.012.108-2.575-2-1.969-3.376.114-.262.78-1.45 1.96-1.45 1.177 0 1.697.65 1.769.762.866 1.342.442 3.946-1.76 4.063m21.062.001c2.01.108 2.574-2 1.97-3.376-.116-.262-.782-1.45-1.961-1.45-1.178 0-1.698.65-1.77.762-.866 1.342-.44 3.946 1.76 4.063"/><path stroke="#D1BFA3" stroke-linecap="round" d="M52.786 46.935c1.202-.183 2.374-.14 2.925.531 1.341 1.636.956 3.524-1.303 4.919-1.129.696-2.727.982-3.708.552"/><path stroke="#593A32" stroke-linecap="round" stroke-width="1.013" d="M43.49 60.697s1.026 1.173 3.883 1.151l2.858-.022"/><g transform="translate(21.054 7.25)"><mask id="f" fill="#fff"><use xlink:href="#e"/></mask><g fill="#3E3832" mask="url(#f)"><path d="M-18.773-40.226h93v110h-93z"/></g></g><g transform="translate(20.957 40.25)"><mask id="h" fill="#fff"><use xlink:href="#g"/></mask><g fill="#3E3832" mask="url(#h)"><path d="M-17.952-32.727h95v108h-95z"/></g></g></g></g></svg>