<svg xmlns="http://www.w3.org/2000/svg" xmlns:xlink="http://www.w3.org/1999/xlink" width="207" height="188" viewBox="0 0 207 188">
    <defs>
        <path id="a" d="M0 20.815v97.868C0 122.172 2.676 125 5.978 125h80.047c3.299 0 5.975-2.828 5.975-6.317V6.317C92 2.828 89.324 0 86.025 0h-65.22L0 20.815z"/>
    </defs>
    <g fill="none" fill-rule="evenodd">
        <circle cx="94" cy="94" r="94" fill="#99BDCD"/>
        <g transform="translate(48 31)">
            <mask id="b" fill="#fff">
                <use xlink:href="#a"/>
            </mask>
        </g>
        <path fill="#C9C9C9" d="M68.995 31v14.507c0 3.493-2.7 6.323-6.033 6.323H48L68.995 31z"/>
        <g fill="#8F9395">
            <path d="M65.007 79.007h57.457v-5.23H65.007zM65.007 89.689h57.457v-5.232H65.007zM65.007 102.147h57.246v-5.23H65.007zM65.007 112.827h57.246v-5.23H65.007zM65.007 125.287h57.246v-5.23H65.007zM65.007 66.547h57.457v-5.23H65.007z"/>
        </g>
        <g>
            <path fill="#C5232A" d="M190.401 65.746l-13.116-13.72c-2.16-2.257-2.16-5.919 0-8.177l6.406-6.7c2.16-2.259 5.66-2.259 7.818 0l13.119 13.719c2.157 2.258 2.157 5.92 0 8.178l-6.408 6.7c-2.16 2.259-5.66 2.259-7.819 0"/>
            <path fill="#E9D8BD" d="M135.559 87.496l-14.243 36.792 35.178-14.895-7.988-14.414z"/>
            <path fill="#EEC85D" d="M183.439 52.01l-6.979-7.299-38.795 40.582 6.979 7.299z"/>
            <path fill="#E2B954" d="M151.62 99.89l38.796-40.581-6.978-7.3-38.796 40.582z"/>
            <path fill="#EEC85D" d="M190.417 59.31L151.62 99.89l6.979 7.3 38.795-40.582zM136.348 91.443c1.316 1.377 3.862.55 5.618 2.388.284.296.472.605.607.924l2.07-2.165-6.979-7.297-1.932 2.02s-.7 2.753.616 4.13"/>
            <path fill="#E2B954" d="M142.573 94.756c.705 1.654-.16 3.58 1.696 5.524 1.86 1.945 3.7 1.037 5.282 1.775l2.07-2.165-6.979-7.3-2.07 2.166z"/>
            <path fill="#EEC85D" d="M149.55 102.054a2.9 2.9 0 0 1 .886.637c1.754 1.835.967 4.498 2.283 5.875 1.317 1.377 3.95.641 3.95.641l1.93-2.018-6.979-7.3-2.07 2.165z"/>
            <path fill="#5C5B5A" d="M121.317 124.289l12.448-5.271-7.41-7.75zM197.395 66.608L176.46 44.711l2.848-2.975 20.933 21.895z"/>
        </g>
    </g>
</svg>
