<svg width="274" height="130" viewBox="0 0 274 130" xmlns="http://www.w3.org/2000/svg" xmlns:xlink="http://www.w3.org/1999/xlink"><defs><path id="a" d="M0 0h333v141H0z"/><path d="M63.87 31.359c2.253 9.55.116 26.633-5.724 39.403-10.493-4.847-41.51-2.904-50.454-.367 0 0-8.493-11.826-7.63-33.812 0 0 3.054-36.942 32.132-36.58C61.268.365 63.87 31.359 63.87 31.359" id="c"/><path d="M53.492.244c8.292 4.013 21.186 14.883 21.186 24.962v33.308H0V25.206C0 15.48 11.798 5.02 19.995.692c-.415.25-.634.4-.634.4 1.412 2.302 5.208 12.516 17.116 12.516 11.91 0 17.457-10.966 17.457-13.11a37.03 37.03 0 0 0-.442-.254z" id="e"/><path d="M56.345.26C65.079 4.527 78.66 16.087 78.66 26.806V62.23H0V26.806C0 16.464 12.427 5.34 21.061.736c-.437.266-.667.426-.667.426 1.487 2.447 5.486 13.31 18.028 13.31C50.967 14.472 56.811 2.81 56.811.53c-.156-.092-.311-.182-.466-.27z" id="g"/><path d="M18.442 13.187c4.267 0 6.1 1.342 11.473 2.588C49.156 20.241 53.246 3.838 54.451 3.061c2.005-1.832 2.914 1.136 2.636 2.316-6.216 26.358-27.64 29.577-38.84 29.577C6.73 34.954-1.654 19.007.278 0c.74 3.946 2.058 17.294 9.797 14.677 6.078-2.056 4.102-1.49 8.368-1.49zM9.14 21.09c0 2.472 4.121 4.476 9.205 4.476 5.085 0 9.206-2.004 9.206-4.476s-4.121-5.92-9.206-5.92c-5.084 0-9.205 3.448-9.205 5.92z" id="i"/><path d="M29.295 12.425c-.973 0-1.83-.407-2.333-1.023a2.013 2.013 0 0 1-.474-1.28c0-.611.294-1.161.766-1.573.512-.448 1.234-.732 2.041-.732 1.55 0 2.806 1.032 2.806 2.304 0 1.273-1.255 2.304-2.806 2.304m-.25-8.627c-.45 0-.888.038-1.316.1L28.13 0H0l2.729 26.693h22.67l1.1-10.77a9.074 9.074 0 0 0 2.545.367c4.202 0 7.609-2.796 7.609-6.246 0-3.449-3.407-6.246-7.609-6.246" id="k"/></defs><g transform="translate(-18 -11)" fill="none" fill-rule="evenodd"><mask id="b" fill="#fff"><use xlink:href="#a"/></mask><g mask="url(#b)"><g transform="translate(222.02 11.263)"><mask id="d" fill="#fff"><use xlink:href="#c"/></mask><use fill="#38383A" xlink:href="#c"/><g mask="url(#d)" fill="#3E3832"><path d="M-14.838-1.36h93.293v107.502h-93.293z"/></g></g><path d="M277.679 61.273c-.158-.294-6.662-3.375-9.415-21.933-12.57 9.31-38.018 5.363-43.216 10.367-.019.36-3.886 19.218 8.764 29.818 2.053 1.72 5.145 2.58 4.938 3.187-1.701.755-4.208 2.512-4.208 2.512s5.962 32.73 19.653 32.73c13.737 0 19.14-34.067 19.14-34.067s-3.816-1.61-3.507-3.02c.31-1.41 5.918-8.502 5.918-8.502s4.23-1.54 6.576-3.44c2.347-1.9 1.881-5.991 0-7.24-1.895-1.257-4.58-.432-4.643-.412z" fill="#E7E5E2"/><g transform="translate(217.229 82.73)"><mask id="f" fill="#fff"><use xlink:href="#e"/></mask><use fill="#D8A25D" xlink:href="#e"/><g mask="url(#f)" fill="#A2AD00"><path d="M-45.637 97.182h174.47V-38.102h-174.47z"/></g></g><g fill="#FFF"><path d="M273.33 84.063c-13.036 16.324-25.744 35.385-38.123 57.18h42.87V87.25c-1.533-1.125-2.752-2.143-4.746-3.186z"/><path d="M235.327 84.408l19.24 56.836h-6.576l-12.967-56.665z"/></g><g><path d="M251.707 68.64a3.485 3.485 0 0 1-.254.488 5.666 5.666 0 0 1-.933 1.162c-1.36 1.304-3.295 1.957-5.97 1.6-1.329-.177-2.266-.812-2.91-1.78a5.044 5.044 0 0 1-.745-1.863.67.67 0 0 0-.755-.562.654.654 0 0 0-.586.723c.081.62.354 1.505.947 2.397.845 1.273 2.118 2.136 3.862 2.368 3.103.415 5.457-.38 7.112-1.967.815-.781 1.29-1.567 1.5-2.12a.64.64 0 0 0-.401-.83.684.684 0 0 0-.867.384z" fill="#D19E9C" fill-rule="nonzero"/><path d="M237.253 57.93c1.444.459 2.487-2.112 2.457-3.946-.006-.348-.138-1.954-1.002-2.142-.864-.19-1.439.546-1.525.677-1.038 1.554-1.508 4.909.07 5.412M252.135 58.193c1.784.284 2.523-2.396 2.139-4.214-.074-.346-.534-1.926-1.585-2.01-1.053-.085-1.59.715-1.665.855-.925 1.67-.84 5.058 1.111 5.37" fill="#635E59"/><path d="M241.912 58.58a3.283 3.283 0 0 1-2.851.714c-1.076-.145-1.805-.034-2.072.28-1.048 1.234-.712 2.541 1.086 3.615.945.564 2.247.762 2.935.47a.679.679 0 0 1 .88.326.63.63 0 0 1-.34.844c-1.138.483-2.89.216-4.18-.553-2.444-1.46-3.003-3.64-1.415-5.51.652-.767 1.792-.94 3.29-.74.107.021.145.03.191.037.409.065.855.02 1.271-.214.108-.06.213-.134.313-.22a.687.687 0 0 1 .942.047.621.621 0 0 1-.05.904z" fill="#D1BFA3" fill-rule="nonzero"/></g><g><g fill="#E7E5E2"><path d="M95.749 69.365c.454-.12.712-.626.574-1.137L93.351 57.19c-.352-1.306-1.596-2.117-2.765-1.805-1.174.313-1.84 1.63-1.488 2.938l2.58 9.58c.353 1.313 1.593 2.123 2.77 1.81l1.3-.348z"/><path d="M100.56 83.284c-1.514 1.107 2.781 25.541 20.094 25.562 16.697.02 17.365-23.847 17.32-24.97-.766-.414-1.84-.765-2.823-1.134 1.288-.241 3.514-.39 5.201-2.26 5.298-5.87 9.05-21.47 9.05-30.592 0-19.05-10.89-34.498-27.903-34.498-17.01 0-30.799 15.448-30.799 34.498 0 9.738 2.88 16.817 8.142 22.104 1.623 1.63 4.385 5.546 4.325 9.846-.874.541-1.698.902-2.607 1.444z"/></g><g transform="matrix(-1 0 0 1 158.207 82.523)"><mask id="h" fill="#fff"><use xlink:href="#g"/></mask><use fill="#D8A25D" xlink:href="#g"/><g mask="url(#h)" fill="#005B82"><path d="M-48.07 103.715h184.495V-40.522H-48.07z"/></g></g><path d="M103.588 34.602c.578 3.976-2.694 12.085-9.818 24.327-.238-.165-.564-.208-.976-.131-.023-1.697-1.228-2.796-3.616-3.3-.243-16.385 5.076-28.151 15.957-35.298 7.593-5.62 24.814-8.713 35.232 4.338 5.994 6.336 8.991 15.787 8.991 28.35-1.486-8.255-3.152-14.35-4.996-18.286-17.054-4.008-22.582-4.014-40.774 0z" fill="#333"/><path d="M126.255 66.56c.035.097.125.294.277.558.259.451.596.904 1.016 1.327 1.483 1.49 3.59 2.236 6.506 1.828 1.448-.202 2.47-.928 3.17-2.034.297-.47.516-.977.665-1.485.089-.301.134-.529.148-.643a.737.737 0 1 1 1.461.185c-.088.707-.386 1.718-1.031 2.738-.921 1.454-2.309 2.44-4.21 2.705-3.38.474-5.946-.435-7.75-2.247-.888-.892-1.404-1.79-1.635-2.421a.741.741 0 0 1 .438-.95.735.735 0 0 1 .945.44z" fill="#593A32" fill-rule="nonzero"/><path d="M139.098 52.864c-1.573.524-2.71-2.413-2.677-4.509.006-.397.15-2.232 1.092-2.447.94-.216 1.567.625 1.662.774 1.13 1.776 1.643 5.608-.077 6.182M125.788 53.164c-1.944.324-2.75-2.738-2.33-4.814.08-.395.581-2.2 1.727-2.297 1.147-.096 1.731.817 1.814.977 1.008 1.907.916 5.779-1.21 6.134" fill="#635E59"/><path d="M136.928 53.606c.183.165.376.307.579.426a3.436 3.436 0 0 0 2.529.389c1.173-.165 1.966-.038 2.257.32 1.142 1.41.777 2.904-1.183 4.13-1.03.645-2.448.872-3.199.537a.725.725 0 0 0-.959.373c-.162.37.004.8.37.964 1.242.552 3.15.247 4.556-.632 2.663-1.668 3.273-4.158 1.542-6.294-.71-.877-1.953-1.075-3.586-.846-.116.024-.157.033-.208.042a2.03 2.03 0 0 1-1.725-.496.724.724 0 0 0-1.026.055.734.734 0 0 0 .053 1.032z" fill="#D1BFA3" fill-rule="nonzero"/><g><g transform="matrix(-1 0 0 1 149.401 48.96)"><mask id="j" fill="#fff"><use xlink:href="#i"/></mask><use fill="#85817F" xlink:href="#i"/><g mask="url(#j)" fill="#3E3832"><path d="M-16.112-46.449H85.207V68.022h-101.32z"/></g></g></g></g><g><path d="M157.62 128.673h-24.965c-1.114 0-2.017-.995-2.017-2.224v-14.801c0-1.229.903-2.225 2.017-2.225h24.966c1.114 0 2.017.996 2.017 2.225v14.801c0 1.229-.903 2.224-2.017 2.224" fill="#D2242A"/><path d="M151.363 119.937c0 3.635-2.726 6.586-6.09 6.586-3.369 0-6.096-2.95-6.096-6.586 0-3.635 2.727-6.585 6.097-6.585 3.363 0 6.09 2.95 6.09 6.585M137.38 122.84h-1.189l1.27-3.365h1.191zM152.358 122.84h-.737l1.27-3.365h.737zM154.39 122.84h-.311l1.267-3.365h.312z" fill="#FFF"/><path d="M140.645 122.824h.935c.049 0 .086-.04.086-.091v-3.149c0-.05-.037-.09-.086-.09h-.945c-.063 0-.109.052-.109.118l-.372.99c-.022.052.015.114.065.114h.267c.04 0 .075.032.075.08v1.937c0 .05.037.09.084.09" fill="#C52D35"/><path d="M142.677 122.824h.938c.049 0 .09-.04.09-.091v-3.149a.091.091 0 0 0-.09-.09h-1.459c-.061 0-.11.052-.11.118l-.373.99-.129.114h.747c.166 0 .302.142.302.324v1.693c0 .05.037.09.084.09M146.872 119.494h-.938a.088.088 0 0 0-.086.09v3.149c0 .05.039.091.086.091h.948c.063 0 .11-.052.11-.119l.37-.99c.024-.055-.012-.113-.07-.113h-.258c-.043 0-.073-.037-.073-.08v-1.937a.092.092 0 0 0-.089-.091" fill="#C52D35"/><path d="M143.014 122.824h.616c.06 0 .109-.054.109-.118l.371-.993c.022-.053-.014-.113-.068-.113h-.26l-.768 1.224zM149.383 119.494h1.115c.055 0 .093.055.07.11l-1.18 3.17a.068.068 0 0 1-.07.05h-1.01l1.002-3.276a.08.08 0 0 1 .073-.054" fill="#C52D35"/><path d="M147.984 119.494h-1.577c-.112 0 .453.117.493.227l1.116 2.998a.15.15 0 0 0 .143.105h.956l-.983-3.218a.153.153 0 0 0-.148-.112M145.924 120.561c0 .671-.078.711-.078.711s-.089-.643-.548-.643c-.45 0-.553.285-.553.497 0 .245.23.476.359.476h.82l-.484 1.16a.099.099 0 0 1-.09.062h-.374c-.39 0-1.41-.553-1.41-1.624 0-1.073.758-1.706 1.39-1.706.522 0 .968.387.968 1.067z" fill="#C52D35"/><path d="M146.639 112.478h-2.588c-.191 0-.346-.167-.346-.374v-.471c0-.206.155-.374.346-.374h2.588c.191 0 .346.168.346.374v.471c0 .207-.155.374-.346.374" fill="#5A1F57"/><path fill="#C2B5CF" d="M144.596 112.048h1.499v-4.375h-1.499z"/></g><g><g transform="translate(180.873 108.955)"><mask id="l" fill="#fff"><use xlink:href="#k"/></mask><use fill="#50808B" xlink:href="#k"/></g></g><path d="M97.753 128.174H35.38c-2.354 0-4.262-2.011-4.262-4.493V87.122c0-2.48 1.908-4.492 4.262-4.492h62.372c2.354 0 4.262 2.011 4.262 4.492v36.56c0 2.48-1.908 4.492-4.262 4.492M100.456 134.649H34.608c-1.394 0-2.523-1.191-2.523-2.659v-.04c0-1.467 1.13-2.658 2.523-2.658h65.848c1.393 0 2.523 1.19 2.523 2.658v.04c0 1.468-1.13 2.659-2.523 2.659" fill="#585B5C"/><path d="M20.492 138.04h205.619" stroke="#585B5C" stroke-width="4.536" stroke-linecap="round" stroke-linejoin="round"/></g></g></svg>
