<svg width="321" height="146" viewBox="0 0 321 146" xmlns="http://www.w3.org/2000/svg"><g fill="none" fill-rule="evenodd"><path d="M253 140.873l-.117-40.067c-.005-1.555-1.287-2.81-2.862-2.806l-31.119.09-9.902 9.308.1 33.602" fill="#EBEBEB"/><path d="M219.156 98l.02 6.775c.005 1.632-1.302 2.958-2.919 2.962l-7.257.023L219.156 98z" fill="#BBBCBC"/><path fill="#8F9395" d="M247.075 122.94l-30.859.091-.008-2.448 30.86-.092zm.015 5.547l-30.858.092-.007-2.452 30.86-.091zm-.225 5.963l-30.859.092-.006-2.45 30.859-.092zm0 5.963l-30.859.092-.006-2.45 30.859-.092z"/><path d="M198.995 61.16h-.07c-.065-22.237-16.22-40.217-36.081-40.16-19.861.059-35.91 18.133-35.844 40.371.056 18.715.02 41.025 34.484 41.602.26.01.535.01.802.013.271.003.524.015.8.014h.07c.276 0 .529-.016.8-.02.267-.006.543-.007.8-.018 34.462-.777 34.295-23.086 34.239-41.802" fill="#303339"/><path d="M130.082 57.61c.19-1.138 1.16-2.008 2.338-2.011.306-.002.595.06.861.165.035.005.066.006.103.011 8.808-12.199 26.09-1.022 39.22-12.681 1.682-1.823 2.558-3.092 2.789-3.094 0 0 12.8 11.15 14.938 15.428 0 0 .152.304.344.166.266-.105.554-.168.858-.17a2.393 2.393 0 0 1 2.356 1.996c.048.192.081.39.083.598l.028 9.75c.005 1.334-1.063 2.42-2.383 2.422a2.359 2.359 0 0 1-1.41-.47c-2.062 9.657-7.592 17.664-14.926 22.117 2.048.857 5.202 2.532 5.202 2.532-1.493 2.23-5.721 12.593-18.348 12.63-12.627.037-16.927-10.299-18.434-12.52 0 0 2.744-1.533 5.058-2.639-7.297-4.426-12.822-12.365-14.925-21.953-.394.297-.88.476-1.408.478-1.32.005-2.393-1.074-2.396-2.408l-.03-9.75c0-.208.033-.406.082-.598" fill="#E7E5E2"/><path d="M175.115 68.515c-4.14.013-7.518-3.364-7.53-7.529-.014-4.164 3.345-7.562 7.488-7.573 4.138-.013 7.515 3.363 7.528 7.53.012 4.163-3.346 7.56-7.486 7.572m-24.184.072c-4.143.011-7.522-3.366-7.535-7.529-.011-4.166 3.349-7.562 7.489-7.575 4.142-.011 7.52 3.365 7.53 7.53.014 4.163-3.345 7.561-7.484 7.574M175.065 51c-5.055.014-9.177 3.863-9.761 8.787l-4.614.013c-.615-4.92-4.76-8.744-9.812-8.728-5.462.016-9.895 4.498-9.878 9.993.014 5.494 4.473 9.95 9.935 9.935 5.053-.014 9.177-3.864 9.763-8.786l4.612-.014c.615 4.918 4.76 8.744 9.813 8.728 5.463-.016 9.893-4.5 9.877-9.993-.016-5.494-4.471-9.95-9.935-9.935" fill="#303339"/><path d="M176.33 91c-.946.46-2.948 1.08-3.95 1.432-1.772 2.98-8.727 15.394-8.727 15.394l-1.447.005s-6.762-12.028-8.705-15.303c-1.04-.36-2.952-.902-3.934-1.372-5.828 1.505-23.6 13.278-23.567 24.209l.089 30.635 73.911-.218-.089-30.635C199.878 104.216 182.394 92.32 176.33 91" fill="#5EADC7"/><path d="M169.61 93.71c-.582.834-6.603 11.238-6.603 11.238l-1.054.003s-5.736-9.88-6.59-11.186a29.38 29.38 0 0 1-2.363-.672c1.958 3.19 8.76 14.907 8.76 14.907l1.457-.005s7-12.093 8.783-14.995c-.783.27-1.58.503-2.395.708l.005.001z" fill="#6A98A5"/><path d="M163.511 104.997s5.916-10.179 6.489-10.995l-.005-.002c-2.25.562-4.597.897-7.03.905-2.406.006-4.731-.308-6.965-.849.838 1.277 6.476 10.944 6.476 10.944l1.035-.003z" fill="#E7E5E2"/><path d="M146.197 110c-5.56-8.98-2.571-14.674-.675-16.052L147.95 93c-3.54 3.635-4.227 9.734.05 16.167l-1.803.833z" fill="#FFF"/><path d="M143.357 109.415c2.654-1.567 4.058-2.087 6.277-2.352 2.799-.336 5.42.698 7.735 2.318 1.186.827 1.959 1.906 2.31 3.34.983 4.037 2.047 8.056 3.077 12.083.658 2.562-.018 4.728-1.99 6.515a.863.863 0 0 0-.247.456c-.26 1.289-1.272 2.175-2.522 2.19-1.31.012-2.373-.843-2.626-2.113-.245-1.217.418-2.41 1.634-2.887.789-.31 1.558-.193 2.344.231.955-1.01 1.351-2.18 1.01-3.54-.684-2.749-1.4-5.488-2.103-8.232-.367-1.433-.755-2.86-1.09-4.298-.154-.653-.501-1.142-1.008-1.555-3.471-2.82-8.618-2.678-11.904.33-.965.883-1.801 1.867-2.369 3.056-.329.692-.41 1.38-.21 2.145 1.075 4.097 2.112 8.198 3.169 12.298.358 1.392 1.245 2.302 2.642 2.755.528-.781 1.214-1.277 2.185-1.32 1.227-.05 2.332.741 2.655 1.913.315 1.144-.222 2.355-1.299 2.937-1.059.575-2.397.35-3.183-.572-.224-.262-.463-.397-.795-.487-2.335-.615-3.948-2.06-4.574-4.363-1.18-4.338-2.26-8.7-3.363-13.058-.262-1.024-.035-2.017.368-2.971.826-1.97 2.181-3.545 3.877-4.819m38.623 3.58l-1.906.005L180 93l1.91.79z" fill="#FFF"/><path d="M186 116.484a5.5 5.5 0 0 1-5.486 5.516 5.5 5.5 0 1 1 5.486-5.516" fill="#DEDED9"/><path fill="#78706A" d="M0 146h321v-5H0z"/><path d="M86.502 91l-12.888.036s-5.938.02-12.889.04c-6.949.02-29.764 12.268-29.725 25.672.04 13.404.084 28.936.084 28.936l85.377-.25-.084-28.936C116.337 103.096 93.451 90.98 86.502 91" fill="#8E9738"/><path d="M107.671 40.535a2.775 2.775 0 0 0-1.003.196c-.191.024-.373.035-.563.056C103.125 22.649 89.493 8.953 73.128 9c-16.14.05-29.535 13.453-32.658 31.24-.098.164-.218.343-.292.493 0 0-.174.354-.4.194a2.73 2.73 0 0 0-1.002-.19A2.783 2.783 0 0 0 36 43.53l.033 11.23a2.782 2.782 0 0 0 2.794 2.773 2.762 2.762 0 0 0 1.635-.549c2.292 10.34 8.08 19.005 15.779 24.254.696 3.127.97 7.58-1.6 11.233 0 0 17.7 12.868 36.646-.107 0 0-3.505-3.71-2.055-10.433 8.27-5.19 14.496-14.25 16.843-25.138a2.796 2.796 0 0 0 1.644.54 2.781 2.781 0 0 0 2.772-2.791l-.031-11.232a2.782 2.782 0 0 0-2.789-2.775" fill="#E7E5E2"/><path d="M106.544 32.49C104.22 12.696 91.417-.048 74.524 0 57.077.05 40.601 15.013 39.516 35.115a39.292 39.292 0 0 0-.397 9.394C40.924 67.4 49.895 66.887 57.5 80.638c5.508-1.332 9.315-2.772 15.826-2.79 6.51-.021 8.69.746 14.203 2.701 6.329-13.18 17.77-9.202 19.747-36.24a44.035 44.035 0 0 0-.732-11.818" fill="#231F20"/><path d="M40.174 101.542c.955 1.55 2.993 3.045 5.245 4.111 2.286 1.074 4.818 1.862 7.425 2.41 5.228 1.091 10.747 1.264 16.188.707 5.446-.567 10.866-1.862 15.984-4.004 5.136-2.098 9.937-5.074 14.186-8.766a51.915 51.915 0 0 1-13.513 10.196c-5.04 2.69-10.526 4.57-16.184 5.703-5.663 1.118-11.517 1.506-17.401.852-2.939-.338-5.89-.936-8.81-1.988-2.886-1.103-5.888-2.568-8.294-5.58l5.174-3.641z" fill="#FFF"/><path d="M73.217 109.36c-15.072-7.06-2.209-16.954 0 0m.783.031c15.029-7.147 2.11-16.966 0 0m-.427-.391c-.307 3.287-2.306 8.486-3.573 10.292M74 109c.327 3.284 2.357 8.471 3.635 10.27" stroke="#FFF"/><path fill="#E2D1B6" d="M267.842 102.378l-3.45-5.607-1.644 6.369 2.755.307z"/><path fill="#E9C264" d="M270.757 133.272l1.7-.256-4.539-30.127-1.698.253z"/><path fill="#DAB25B" d="M264.523 103.397l4.536 30.126 1.698-.251-4.537-30.13z"/><path fill="#E9C264" d="M269.06 133.523l-4.537-30.126-1.701.253 4.54 30.126zm-1.83-31.423c-.319.047-.473.486-.895.548a.54.54 0 0 1-.19-.008l.075.502 1.698-.253-.071-.468s-.295-.368-.616-.321"/><path d="M266.145 102.64c-.294-.064-.463-.373-.913-.308-.452.067-.521.413-.785.563l.076.502 1.697-.255-.075-.502z" fill="#DAB25B"/><path d="M264.448 102.895a.512.512 0 0 1-.179.06c-.427.063-.7-.306-1.021-.26-.318.046-.49.488-.49.488l.064.467 1.701-.253-.075-.502z" fill="#E9C264"/><path fill="#545757" d="M264.394 96.77l-.581 2.255 1.8-.269z"/><path d="M277.658 120.414l5.085 1.173a.783.783 0 0 1 .59.948l-.683 2.944a.796.796 0 0 1-.951.592l-5.084-1.173a.793.793 0 0 1-.595-.947l.687-2.945a.79.79 0 0 1 .95-.592" fill="#C52C35"/><path fill="#E2D1B6" d="M287.753 91.796l-1.659-6.364-3.435 5.607 2.546 1.096z"/><path fill="#50808B" d="M281.49 122.19l1.697.25 4.489-30.135-1.698-.251z"/><path fill="#0C576F" d="M284.279 91.802l-4.488 30.136 1.698.252 4.49-30.135z"/><path fill="#50808B" d="M279.79 121.939l4.49-30.136-1.7-.251-4.49 30.136zm7.46-30.587c-.318-.049-.595.324-1.022.262a.47.47 0 0 1-.175-.062l-.075.502 1.697.25.072-.467s-.177-.438-.496-.485"/><path d="M286.051 91.552c-.26-.146-.329-.494-.781-.56-.455-.067-.623.245-.914.311l-.077.501 1.699.25.073-.502z" fill="#0C576F"/><path d="M284.354 91.303a.48.48 0 0 1-.185.004c-.428-.062-.581-.495-.902-.547-.321-.045-.616.324-.616.324l-.071.47 1.7.248.074-.5z" fill="#50808B"/><path fill="#545757" d="M286.094 85.432l-1.214 1.985 1.8.268zm-9.434 35.774l6.628 1.528-.209.901-6.627-1.531z"/><path fill="#E2D1B6" d="M279.318 108.149l-2.306-6.161-2.839 5.934 2.645.827z"/><path fill="#97AB48" d="M276.934 124.056l1.717.073.643-15.466-1.714-.075z"/><path fill="#727D31" d="M275.865 108.513l-.643 15.465 1.712.077.646-15.466z"/><path fill="#97AB48" d="M275.22 123.978l.643-15.465-1.714-.077-.644 15.47zm3.553-16.22c-.323-.015-.557.386-.988.365a.549.549 0 0 1-.183-.04l-.024.506 1.716.074.024-.47s-.222-.421-.545-.435"/><path d="M277.602 108.082c-.278-.122-.382-.457-.838-.476-.457-.02-.592.307-.877.399l-.021.51 1.714.074.022-.507z" fill="#727D31"/><path d="M275.887 108.005a.463.463 0 0 1-.185.028c-.433-.017-.631-.44-.955-.45-.324-.013-.579.381-.579.381l-.018.472 1.716.08.021-.51z" fill="#97AB48"/><path fill="#545757" d="M277.012 101.988l-1.007 2.1 1.825.081z"/><path fill="#78706A" d="M284.832 116.756h-23.415l2.806 24.032h17.798z"/><g><path d="M150.989 64.096c-2.171.152-2.778-2.834-2.124-4.784.123-.37.841-2.053 2.113-2.053 1.27 0 1.832.92 1.91 1.078.934 1.902.475 5.59-1.9 5.759m24.225 0c2.17.152 2.778-2.834 2.124-4.784-.123-.37-.842-2.053-2.114-2.053-1.27 0-1.831.92-1.91 1.078-.934 1.902-.475 5.59 1.9 5.759" fill="#635E59"/><path d="M163.789 67.529c1.276-.184 2.148-.068 2.46.29 1.179 1.35.802 2.781-1.22 3.955-1.063.617-2.526.834-3.3.514-.38-.156-.822.004-.99.357-.168.354.004.767.382.923 1.28.53 3.25.237 4.7-.605 2.748-1.596 3.377-3.981 1.592-6.029-.756-.865-2.093-1.042-3.852-.789-.41.059-.69.416-.627.798.063.383.446.645.855.586z" fill="#D1BFA3" fill-rule="nonzero"/><path d="M172.338 77.736a6.263 6.263 0 0 1-.472.786 10.104 10.104 0 0 1-1.596 1.814c-1.918 1.72-4.415 2.714-7.592 2.623-3.099-.088-5.584-1.068-7.533-2.647-.716-.58-1.306-1.2-1.779-1.82a6.315 6.315 0 0 1-.528-.785c-.183-.347-.632-.49-1.004-.32-.372.171-.525.59-.342.938.11.209.325.55.652.98a12.167 12.167 0 0 0 2.017 2.064c2.2 1.783 5.012 2.89 8.47 2.99 3.603.103 6.482-1.044 8.679-3.014a11.52 11.52 0 0 0 1.82-2.07c.294-.43.485-.77.583-.98.166-.354-.008-.766-.387-.92-.38-.156-.822.006-.988.36z" fill="#D19E9C" fill-rule="nonzero"/></g></g></svg>
