<svg role="img" viewBox="0 0 114 114" xmlns="http://www.w3.org/2000/svg" width="114" height="114"><g fill="none" fill-rule="evenodd"><path fill="#FFF" d="M-60-42h960v187H-60z"/><circle cx="57" cy="57" r="57" fill="#CCDEE6"/><path fill="#0C576F" d="M30.174 51.854c-.791-.797-4.534-3.533-3.742-4.33l-1.27-4.04 29.974-25.842a2.018 2.018 0 0 1 2.867 0l29.972 25.841-6.789 14.786c.79.796-24.823 13.988-25.614 14.786l-25.398-21.2z"/><path fill="#DCDCD2" d="M81.844 71.032H31.296a.633.633 0 0 1-.63-.632V36.098c0-.35.281-.634.63-.634h50.548a.63.63 0 0 1 .628.634V70.4a.632.632 0 0 1-.628.632"/><path fill="#8F9395" d="M40.731 51.237h31.676v-2.509H40.73zm0 5.673h31.676v-2.507H40.73zm0 5.677h31.676v-2.51H40.73zm0 5.674h31.676v-2.507H40.73z"/><path fill="#D94C56" d="M27.533 85.608h51.135c1.31 0-53.506-42.125-53.506-42.125v39.738a2.38 2.38 0 0 0 2.371 2.387"/><path fill="#C52C35" d="M85.605 85.608H34.471c-1.31 0 53.506-42.125 53.506-42.125v39.738a2.38 2.38 0 0 1-2.372 2.387"/></g></svg>