<?xml version="1.0" encoding="UTF-8"?>
<svg width="116px" height="116px" viewBox="0 0 116 116" version="1.1" xmlns="http://www.w3.org/2000/svg" xmlns:xlink="http://www.w3.org/1999/xlink" role="img">
    <!-- Generator: Sketch 49.3 (51167) - http://www.bohemiancoding.com/sketch -->
    <title>Blibedrejobbsok</title>
    <desc>Created with Sketch.</desc>
    <defs>
        <polygon id="path-1" points="4.3618594 5.73442107 5.71216611 6.93550116 9.0073674 5.52343989 12.0877274 5.39948584 10.670936 3.27052077 8.9122856 2.30063474 8.9122856 1.64027138 6.97469275 0.204796568 4.3618594 0.204796568 4.3618594 5.73442107"></polygon>
        <polygon id="path-3" points="0.309052139 4.46894448 2.0830898 6.0469277 5.37829109 4.63486642 8.45865106 4.51091238 7.04185967 2.3819473 5.28320929 1.41206127 5.28320929 0.751697917 4.69370281 0.314959252 0.309052139 0.314959252 0.309052139 4.46894448"></polygon>
        <polygon id="path-5" points="0.0492716202 2.80636984 2.24660474 4.76086881 5.54180603 3.34880754 8.62216601 3.22485349 7.20537461 1.09588842 5.44672423 0.126002389 5.44672423 0.0279264698 0.0492716202 0.0279264698 0.0492716202 2.80636984"></polygon>
    </defs>
    <g id="FO-838_Plassering-infomoduler" stroke="none" stroke-width="1" fill="none" fill-rule="evenodd">
        <g id="FO-838_1" transform="translate(-206.000000, -860.000000)">
            <g id="Blibedrejobbsok" transform="translate(206.000000, 854.000000)">
                <g id="Group-26">
                    <circle id="Oval-2" fill="#CCDEE6" cx="57" cy="65" r="57"></circle>
                    <g id="Group" transform="translate(92.484187, 83.700926) rotate(-10.000000) translate(-92.484187, -83.700926) translate(68.984187, 58.700926)">
                        <g id="innhold">
                            <g id="farger/-ark/-lys-grå" fill="#E4E4DB">
                                <path d="M-1.13686838e-13,8.20812396 L-1.13686838e-13,46.8007315 C-1.13686838e-13,48.1763751 1.09782705,49.2916667 2.45262182,49.2916667 L35.2911571,49.2916667 C36.6445666,49.2916667 37.7423936,48.1763751 37.7423936,46.8007315 L37.7423936,2.49093518 C37.7423936,1.1152916 36.6445666,0 35.2911571,0 L8.53534559,0 L-1.13686838e-13,8.20812396 Z" id="Mask"></path>
                            </g>
                            <path d="M8.61295401,0 L8.61295401,5.72065 C8.61295401,7.098 7.50514486,8.21410417 6.1380315,8.21410417 L0,8.21410417 L8.61295401,0 Z" id="Fill-59" fill="#C9C9C9"></path>
                            <g id="Group" transform="translate(6.989332, 11.970833)" fill="#8F9395">
                                <polygon id="Fill-60" points="0 6.99800833 23.6225448 6.99800833 23.6225448 4.92916667 0 4.92916667"></polygon>
                                <polygon id="Fill-61" points="0 11.2237125 23.6225448 11.2237125 23.6225448 9.15416667 0 9.15416667"></polygon>
                                <polygon id="Fill-62" points="0 16.152175 23.5358771 16.152175 23.5358771 14.0833333 0 14.0833333"></polygon>
                                <polygon id="Fill-63" points="0 20.377175 23.5358771 20.377175 23.5358771 18.3083333 0 18.3083333"></polygon>
                                <polygon id="Fill-64" points="0 25.3063417 23.5358771 25.3063417 23.5358771 23.2375 0 23.2375"></polygon>
                                <polygon id="Fill-65" points="0 2.06884167 23.6225448 2.06884167 23.6225448 0 0 0"></polygon>
                            </g>
                        </g>
                        <g id="Group-254" transform="translate(19.597012, 23.294788)">
                            <g id="Group-231" transform="translate(23.226088, 8.698529)" fill="#C4252A">
                                <path d="M0.273632354,1.83852537 L0.743234828,0.730187744 C0.964608483,0.20827598 1.56630934,-0.0345579665 2.08889632,0.185804779 L2.23696264,0.248144239 C2.75954963,0.469231862 3.00342355,1.07088015 2.7820499,1.59206703 L2.31244742,2.70040466 C2.09107377,3.22159154 1.48937292,3.46587524 0.966785929,3.24478762 L0.818719615,3.18244816 C0.296132627,2.96136054 0.0522586989,2.35971225 0.273632354,1.83852537" id="Fill-229"></path>
                            </g>
                            <polygon id="Fill-232" fill="#E9D8BD" points="4.48321571 0.0770006732 0.306874693 0.0777255507 3.213039 3.07364406 4.2879714 1.69130276"></polygon>
                            <mask id="mask-2" fill="white">
                                <use xlink:href="#path-1"></use>
                            </mask>
                            <g id="Clip-235"></g>
                            <polygon id="Fill-234" fill="#EEC65C" mask="url(#mask-2)" points="24.3885541 9.67024632 24.8117044 8.6713652 4.7850097 0.204796568 4.3618594 1.2036777"></polygon>
                            <g id="Group-239" mask="url(#mask-2)">
                                <g transform="translate(3.629076, 0.888573)">
                                    <mask id="mask-4" fill="white">
                                        <use xlink:href="#path-3"></use>
                                    </mask>
                                    <g id="Clip-238" stroke="none" fill="none"></g>
                                    <polygon id="Fill-237" stroke="none" fill="#E3B854" fill-rule="evenodd" mask="url(#mask-4)" points="0.309052139 1.31384038 20.3364727 9.78040901 20.759623 8.78152788 0.732928252 0.314959252"></polygon>
                                </g>
                            </g>
                            <g id="Group-242" mask="url(#mask-2)">
                                <g transform="translate(3.465561, 2.174632)">
                                    <mask id="mask-6" fill="white">
                                        <use xlink:href="#path-5"></use>
                                    </mask>
                                    <g id="Clip-241" stroke="none" fill="none"></g>
                                    <polygon id="Fill-240" stroke="none" fill="#EEC65C" fill-rule="evenodd" mask="url(#mask-6)" points="20.4998424 8.4944951 0.472421918 0.0279264698 0.0492716202 1.0268076 20.0759663 9.49337622"></polygon>
                                </g>
                            </g>
                            <path d="M4.13090498,0.31338321 C4.0510653,0.501851347 4.23687401,0.728737989 4.13017917,0.979545587 C4.11348542,1.02013872 4.09025933,1.05203333 4.06485579,1.07812892 L4.36171424,1.20353272 L4.78486453,0.204651592 L4.50832892,0.0872214453 C4.50832892,0.0872214453 4.21074466,0.124915073 4.13090498,0.31338321" id="Fill-243" fill="#EEC65C" mask="url(#mask-2)"></path>
                            <path d="M4.06500096,1.0782739 C3.93290258,1.21527573 3.70935148,1.20295282 3.5961243,1.46898284 C3.48362293,1.73501287 3.648383,1.88651225 3.64185066,2.07715502 L3.93798329,2.20255882 L4.3618594,1.2036777 L4.06500096,1.0782739 Z" id="Fill-245" fill="#E3B854" mask="url(#mask-2)"></path>
                            <path d="M3.64185066,2.07708254 C3.64039903,2.11332641 3.63314088,2.15174491 3.61644712,2.19233805 C3.50975228,2.44314565 3.21724873,2.46851636 3.13813487,2.65625962 C3.05756937,2.84472776 3.23757156,3.08393732 3.23757156,3.08393732 L3.51483299,3.20136746 L3.93798329,2.20248634 L3.64185066,2.07708254 Z" id="Fill-247" fill="#EEC65C" mask="url(#mask-2)"></path>
                            <polygon id="Fill-249" fill="#5D5D5B" mask="url(#mask-2)" points="0.306947274 0.0780155017 1.3354275 1.13778634 1.78470715 0.0780155017"></polygon>
                            <g id="Group-253" mask="url(#mask-2)" fill="#5D5D5B">
                                <g transform="translate(23.226088, 8.137348)" id="Fill-251">
                                    <polygon points="0.315439313 3.53058811 1.58561602 0.53394473 1.9935242 0.706465564 0.72334749 3.70310895"></polygon>
                                </g>
                            </g>
                        </g>
                        <g id="Group-296" transform="translate(19.597012, 22.733607)">
                            <path d="M23.4997207,11.0982362 L23.9693232,9.98989859 C24.1906969,9.46798683 24.7923977,9.22515288 25.3149847,9.44551562 L25.463051,9.50785509 C25.985638,9.72894271 26.2295119,10.330591 26.0081383,10.8517779 L25.5385358,11.9601155 C25.3171622,12.4813024 24.7154613,12.7255861 24.1928743,12.5044985 L24.044808,12.442159 C23.522221,12.2210714 23.2783471,11.6194231 23.4997207,11.0982362" id="Fill-268" fill="#C4252A"></path>
                            <g id="Group-272" transform="translate(0.000000, 0.561181)" fill="#E9D8BD">
                                <polygon id="Fill-270" points="4.48321571 0.0770006732 0.306874693 0.0777255507 3.213039 3.07364406 4.2879714 1.69130276"></polygon>
                            </g>
                            <g id="Group-275" transform="translate(4.277264, 0.549020)" fill="#EEC65C">
                                <polygon id="Fill-273" points="20.1112898 9.68240815 20.5344401 8.68352702 0.507745425 0.216958395 0.0845951273 1.21583952"></polygon>
                            </g>
                            <g id="Group-278" transform="translate(3.838670, 1.424020)" fill="#E3B854">
                                <polygon id="Fill-276" points="0.0994584265 1.33957567 20.1268789 9.8061443 20.5500292 8.80726317 0.52333454 0.340694547"></polygon>
                            </g>
                            <g id="Group-281" transform="translate(3.400076, 2.736520)" fill="#EEC65C">
                                <polygon id="Fill-279" points="20.565328 8.49378928 0.537907513 0.0272206495 0.114757215 1.02610178 20.1414519 9.4926704"></polygon>
                            </g>
                            <g id="Group-284" transform="translate(3.629076, 0.437500)" fill="#EEC65C">
                                <path d="M0.501828672,0.437064645 C0.421988993,0.625532782 0.6077977,0.852419424 0.501102857,1.10322702 C0.484409106,1.14382016 0.461183017,1.17571477 0.435779483,1.20181036 L0.732637925,1.32721415 L1.15578822,0.328333027 L0.879252608,0.21090288 C0.879252608,0.21090288 0.581668351,0.248596507 0.501828672,0.437064645" id="Fill-282"></path>
                            </g>
                            <g id="Group-287" transform="translate(3.465561, 1.449755)" fill="#E3B854">
                                <path d="M0.599439589,0.189700429 C0.467341211,0.326702267 0.24379011,0.31437935 0.13056293,0.580409375 C0.018061564,0.8464394 0.182821628,0.997938787 0.176289291,1.18858156 L0.472421918,1.31398536 L0.896298031,0.315104228 L0.599439589,0.189700429 Z" id="Fill-285"></path>
                            </g>
                            <g id="Group-290" transform="translate(2.903261, 2.612132)" fill="#EEC65C">
                                <path d="M0.738589611,0.0261316176 C0.73713798,0.0623754902 0.729879827,0.100793995 0.713186076,0.141387132 C0.606491233,0.39219473 0.313987682,0.417565441 0.234873819,0.605308701 C0.154308325,0.793776838 0.33431051,1.0329864 0.33431051,1.0329864 L0.61157194,1.15041654 L1.03472224,0.151535417 L0.738589611,0.0261316176 Z" id="Fill-288"></path>
                            </g>
                            <g id="Group-293" transform="translate(0.000000, 0.437500)" fill="#5D5D5B">
                                <polygon id="Fill-291" points="0.306947274 0.201696936 1.3354275 1.26146777 1.78470715 0.201696936"></polygon>
                            </g>
                            <polygon id="Fill-294" fill="#5D5D5B" points="23.5415277 12.2291175 24.8117044 9.23247414 25.2196126 9.40499498 23.9494359 12.4016384"></polygon>
                        </g>
                    </g>
                    <g id="gjenstander/-ovenfra/-notatbok" fill="#D8D8D8" transform="translate(25.390097, 38.854916) rotate(-15.000000) translate(-25.390097, -38.854916) translate(7.407732, 11.729916)">
                        <path d="M30.0022326,0.830769231 L16.4854884,0.830769231 L5.40083721,0.830769231 L0,0.830769231 L0,6.19089231 L0,44.0307692 L0,49.3917231 L5.40083721,49.3917231 L16.4854884,49.3917231 L30.0022326,49.3917231 C32.9852093,49.3917231 35.403907,46.9916308 35.403907,44.0307692 L35.403907,6.19089231 C35.403907,3.23086154 32.9852093,0.830769231 30.0022326,0.830769231" id="Fill-309" fill="#84748A"></path>
                        <polygon id="Fill-311" fill="#38363A" points="23.4418605 50.5747385 25.5030698 50.5747385 25.5030698 0 23.4418605 0"></polygon>
                        <polygon id="Fill-313" fill="#CE2128" points="8.9012093 53.7258462 7.79944186 52.7571692 6.69767442 53.7258462 6.69767442 49.8461538 8.9012093 49.8461538"></polygon>
                    </g>
                    <g id="Group" transform="translate(87.235027, 24.187343) rotate(-59.000000) translate(-87.235027, -24.187343) translate(73.235027, 1.687343)">
                        <path d="M20.4883487,27.3559817 L20.4883487,28.3284831 C20.4883487,30.7937321 18.5869252,32.7921885 16.2413735,32.7921885 L11.7323301,32.7921885 C9.38677847,32.7921885 7.48535495,30.7937321 7.48535495,28.3284831 L7.48535495,27.3560342 C3.16992676,24.9179758 0.236432912,20.1282678 0.236432912,14.6176483 C0.236432912,6.63583605 6.3921793,0.165951676 13.98726,0.165951676 C21.5807079,0.165951676 27.7372707,6.63583605 27.7372707,14.6176483 C27.7372707,20.1282283 24.8034299,24.9179071 20.4883487,27.3559817 Z" id="Combined-Shape" fill="#FFD399"></path>
                        <path d="M19.4153384,37.1857033 L8.52195325,37.1857033 C7.93903509,37.1857033 7.46714896,36.6897361 7.46714896,36.0770706 L7.46714896,34.90065 C7.46714896,34.2879846 7.93903509,33.7920173 8.52195325,33.7920173 L19.4153384,33.7920173 C19.9974401,33.7920173 20.4701427,34.2879846 20.4701427,34.90065 L20.4701427,36.0770706 C20.4701427,36.6897361 19.9974401,37.1857033 19.4153384,37.1857033" id="Fill-152" fill="#5A5C5D"></path>
                        <path d="M19.4153384,41.3403301 L8.52195325,41.3403301 C7.93903509,41.3403301 7.46714896,40.8443629 7.46714896,40.2316974 L7.46714896,39.0544187 C7.46714896,38.4426114 7.93903509,37.945786 8.52195325,37.945786 L19.4153384,37.945786 C19.9974401,37.945786 20.4701427,38.4426114 20.4701427,39.0544187 L20.4701427,40.2316974 C20.4701427,40.8443629 19.9974401,41.3403301 19.4153384,41.3403301" id="Fill-153" fill="#5A5C5D"></path>
                        <path d="M16.142506,42.100327 L11.8310343,42.100327 C11.1811704,42.100327 10.8872621,42.9686988 11.3991524,43.3882974 C12.1135129,43.9743625 13.0091168,44.324457 13.9871784,44.324457 C14.9652399,44.324457 15.8600275,43.9743625 16.574388,43.3882974 C17.0870947,42.9686988 16.79237,42.100327 16.142506,42.100327" id="Fill-154" fill="#5A5C5D"></path>
                    </g>
                    <g id="Group-15" transform="translate(6.000000, 75.000000)">
                        <g id="Group-8">
                            <path d="M0.949626969,37.5356357 C-0.00277450209,36.5337597 -0.0504608066,34.8545382 0.841008164,33.785672 L10.3650229,22.3556514 C11.2564918,21.2867852 12.7493381,21.2317043 13.7017396,22.2335803 C14.6528164,23.2354563 14.7018273,24.9131892 13.8103584,25.9820554 L4.28634366,37.412076 C3.39487469,38.4809422 1.90202844,38.5375117 0.949626969,37.5356357" id="Fill-33" fill="#C52D35"></path>
                            <path d="M29.4379147,4.66380681 C25.4511934,0.590412336 19.1697425,0.815974897 15.4370902,5.16505694 C11.7030866,9.51266473 11.9085041,16.3650489 15.8952253,20.4384434 C19.883298,24.5118379 26.164749,24.2877496 29.8987526,19.9386675 C33.6314049,15.5895855 33.4246359,8.73720128 29.4379147,4.66380681 M14.7992148,21.7166312 C10.1651582,16.982766 9.9259549,9.02026018 14.2640482,3.96647942 C18.6034929,-1.08582708 25.9025714,-1.34677201 30.5352766,3.38561897 C35.1679818,8.11948421 35.4085365,16.08199 31.0690918,21.1357708 C26.7309985,26.1895515 19.4319201,26.4490222 14.7992148,21.7166312" id="Fill-34" fill="#303339"></path>
                            <path d="M11.8710003,24.435215 C11.1803053,23.7459061 10.8674017,22.9058108 11.5148382,22.1672656 L13.6763243,19.705448 C14.3237608,18.9669028 15.4066668,18.9299755 16.0988038,19.6192844 C16.7880569,20.3085933 16.8241057,21.4656476 16.1766692,22.2026542 L14.0151831,24.6660104 C13.3677466,25.4045556 12.5616954,25.1245239 11.8710003,24.435215" id="Fill-35" fill="#303339"></path>
                            <path d="M11.5028091,23.9074079 L2.60509974,34.4104268 C2.31012632,34.7583048 2.32716923,35.3018643 2.64049655,35.628 C2.95513487,35.9541357 3.44675724,35.9352923 3.74173066,35.5888637 L12.2566301,25.5351874 C11.7400989,24.980032 11.521163,24.3958867 11.5028091,23.9074079" id="Fill-36" fill="#DA4D57"></path>
                        </g>
                    </g>
                </g>
            </g>
        </g>
    </g>
</svg>