<svg xmlns="http://www.w3.org/2000/svg" xmlns:xlink="http://www.w3.org/1999/xlink" width="114" height="114" viewBox="0 0 114 114" role="img">
    <defs>
        <path id="a" d="M3.207.22C1.567.22.24 1.591.24 3.281c0 1.692 1.328 3.063 2.968 3.063 0 0 7.562 1.554 11.394 1.554 10.436 0 31.408-1.554 31.408-1.554 1.64 0 2.968-1.37 2.968-3.063 0-1.69-1.329-3.063-2.968-3.063H3.207z"/>
        <path id="c" d="M3.019.04A2.969 2.969 0 0 0 .05 3.014 2.97 2.97 0 0 0 3.02 5.986h42.797a2.97 2.97 0 0 0 2.968-2.972A2.97 2.97 0 0 0 45.816.04H3.02z"/>
        <path id="e" d="M3.229.204C1.589.204.262 1.462.262 3.013c0 1.55 1.327 2.808 2.967 2.808H46.03c1.638 0 2.97-1.258 2.97-2.808 0-1.55-1.332-2.809-2.97-2.809H3.23z"/>
        <path id="g" d="M3.195.041C1.526.041.177 1.371.177 3.014c0 1.642 1.35 2.974 3.018 2.974H34.64c1.667 0 3.02-1.332 3.02-2.974 0-1.642-1.353-2.973-3.02-2.973H3.195z"/>
        <path id="i" d="M32.55.622S26.189 1.99 23.153 2.75c-3.839.958-7.741 3.19-10.618 5.037-2.873 1.846-7.069 5.372-7.069 6.603l-5.147.281v19.534h3.648c.998 0 1.83 1.76 1.83 1.76l29.296-3.663V15.014l-9.62-2.973s-.22-.729.884-1.456c1.11-.728 6.306-2.911 6.306-2.911s6.133-2.908 5.028-5.6C37.114.676 35.74.342 34.558.342c-1.084 0-2.007.28-2.007.28z"/>
        <path id="k" d="M3.86.163C1.911.163.331 1.782.331 3.78v45.416c0 1.997 1.58 3.616 3.529 3.616h22.405c1.949 0 3.53-1.619 3.53-3.616V3.78c0-1.998-1.581-3.617-3.53-3.617H3.86z"/>
        <path id="m" d="M1.566.18L.634 1.526l-.263-.47C.348 1.015.308 1.012.282 1.05A.159.159 0 0 0 .28 1.2l.304.545c.012.02.028.032.044.033.015.001.031-.007.044-.025L1.649.337A.16.16 0 0 0 1.656.19c-.013-.024-.03-.036-.048-.036-.015 0-.03.008-.042.026z"/>
        <path id="o" d="M.258 1.434a1.264 1.264 0 0 0 1.216 1.308 1.265 1.265 0 0 0 1.308-1.216A1.264 1.264 0 0 0 1.566.218h-.047C.844.217.283.753.259 1.433zm1.766-.343a.053.053 0 0 1 .069.08l-.815.707a.054.054 0 0 1-.036.013.052.052 0 0 1-.037-.017l-.253-.272a.053.053 0 0 1 .077-.072l.218.235.777-.674z"/>
        <path id="q" d="M1.566.303L.634 1.65.371 1.18c-.023-.042-.063-.045-.089-.005a.158.158 0 0 0-.003.148l.304.545c.012.022.028.033.044.035.015 0 .031-.008.044-.027L1.649.462a.16.16 0 0 0 .007-.149C1.643.29 1.626.277 1.608.277c-.015 0-.03.008-.042.026z"/>
        <path id="s" d="M.258 1.496a1.263 1.263 0 1 0 2.525.09 1.263 1.263 0 0 0-2.525-.09zm1.766-.343a.052.052 0 0 1 .075.006.052.052 0 0 1-.006.074l-.815.707a.053.053 0 0 1-.073-.004l-.253-.272a.053.053 0 0 1 .002-.075.053.053 0 0 1 .075.003l.218.235.777-.674z"/>
        <path id="u" d="M1.537.357L.604 1.369l-.262-.353C.318.984.278.982.252 1.01a.095.095 0 0 0-.002.112l.304.409a.058.058 0 0 0 .044.024.056.056 0 0 0 .043-.018L1.62.476a.093.093 0 0 0 .006-.111.057.057 0 0 0-.048-.027.056.056 0 0 0-.041.019z"/>
        <path id="w" d="M.233 1.405c-.025.783.52 1.444 1.217 1.472.695.028 1.282-.586 1.307-1.368C2.782.726 2.237.066 1.541.038a.98.98 0 0 0-.047-.001C.82.037.258.64.234 1.405zM2 1.02a.049.049 0 0 1 .074.006.064.064 0 0 1-.005.083l-.815.796a.052.052 0 0 1-.037.015.053.053 0 0 1-.037-.02l-.253-.305A.065.065 0 0 1 .93 1.51a.05.05 0 0 1 .074.004l.219.264L2 1.02z"/>
        <path id="y" d="M.947.225C.795.42.668.475.43.517v.436h.322v1.42h-.52v.516h1.65v-.516h-.52V.225H.947z"/>
        <path id="A" d="M32.511.544s-6.363 1.369-9.398 2.128c-3.84.958-7.741 3.19-10.618 5.037-2.873 1.847-7.07 5.372-7.07 6.603l-5.146.281v19.534h3.647c.999 0 1.83 1.76 1.83 1.76l18.855-4.34-.359-15.107 1.18-4.478s-.22-.728.884-1.455c1.11-.728 6.307-2.911 6.307-2.911s6.133-2.908 5.028-5.6C37.075.598 35.701.264 34.519.264a7.704 7.704 0 0 0-2.008.28z"/>
        <path id="C" d="M6.234.36L1.967 4.22.68 2.97a.306.306 0 0 0-.422 0 .283.283 0 0 0 0 .41l1.492 1.447a.304.304 0 0 0 .415.007L6.642.783a.284.284 0 0 0 .014-.41A.301.301 0 0 0 6.44.28a.302.302 0 0 0-.205.079z"/>
    </defs>
    <g fill="none" fill-rule="evenodd">
        <circle cx="57" cy="57" r="57" fill="#CCDEE6"/>
        <path fill="#99BDCD" d="M4.82 78.974A56.804 56.804 0 0 1 0 56c0-1.279.042-2.547.125-3.805h15.182v26.78H4.82z"/>
        <g transform="translate(28 72)">
            <mask id="b" fill="#fff">
                <use xlink:href="#a"/>
            </mask>
            <path fill="#CCC8C4" d="M-2.333 10.552h53.882V-2.433H-2.333z" mask="url(#b)"/>
        </g>
        <g transform="translate(32 67)">
            <mask id="d" fill="#fff">
                <use xlink:href="#c"/>
            </mask>
            <path fill="#CCC8C4" d="M-2.522 8.56h53.879V-2.533H-2.522z" mask="url(#d)"/>
        </g>
        <g transform="translate(35 60)">
            <mask id="f" fill="#fff">
                <use xlink:href="#e"/>
            </mask>
            <path fill="#CCC8C4" d="M-2.31 8.253h53.882v-10.48H-2.311z" mask="url(#f)"/>
        </g>
        <g transform="translate(43 53)">
            <mask id="h" fill="#fff">
                <use xlink:href="#g"/>
            </mask>
            <path fill="#CCC8C4" d="M-2.44 8.563h42.715V-2.534H-2.44z" mask="url(#h)"/>
        </g>
        <g transform="translate(23 41)">
            <mask id="j" fill="#fff">
                <use xlink:href="#i"/>
            </mask>
            <path fill="#CCC8C4" d="M-2.225 38.54h42.592V-2.235H-2.225z" mask="url(#j)"/>
        </g>
        <g transform="translate(48 32)">
            <mask id="l" fill="#fff">
                <use xlink:href="#k"/>
            </mask>
            <path fill="#627382" d="M-2.185 55.39H32.31V-2.415H-2.185z" mask="url(#l)"/>
        </g>
        <path fill="#FFF" d="M51 77h24V37H51z"/>
        <path fill="#E7E9E9" d="M51 40h26v-3H51z"/>
        <path fill="#E7E9E9" d="M51 40h26v-3H51z"/>
        <path fill="#D4E4F6" d="M54.562 58.913l16.693.067c.845.003 1.538-.631 1.542-1.41l.014-3.035c.004-.778-.684-1.418-1.529-1.422l-16.692-.066c-.844-.004-1.538.63-1.542 1.41l-.014 3.034c-.004.779.684 1.419 1.528 1.422"/>
        <path fill="#2972C5" d="M71.181 53.133l-16.49-.066c-.89-.003-1.618.662-1.622 1.483l-.013 2.848c-.002.396.165.77.47 1.053.304.284.708.44 1.138.442l16.49.066c.43.002.835-.152 1.142-.432.308-.281.478-.654.48-1.05l.013-2.848c.004-.733-.571-1.347-1.328-1.472a1.755 1.755 0 0 0-.28-.024M53.494 58.48a1.46 1.46 0 0 1-.482-1.082l.014-2.848c.003-.844.75-1.527 1.665-1.523l16.49.066c.913.003 1.656.692 1.652 1.536l-.014 2.848c-.001.407-.176.79-.492 1.078a1.722 1.722 0 0 1-1.173.445l-16.49-.066c-.098 0-.194-.009-.288-.025a1.695 1.695 0 0 1-.882-.43"/>
        <g transform="translate(56 56)">
            <mask id="n" fill="#fff">
                <use xlink:href="#m"/>
            </mask>
            <path fill="#FFF" d="M-.405 2.769l2.65.16.082-3.785-2.65-.161z" mask="url(#n)"/>
        </g>
        <g transform="translate(55 55)">
            <mask id="p" fill="#fff">
                <use xlink:href="#o"/>
            </mask>
            <path fill="#0067C5" d="M-.333 3.203l3.576.13.13-3.576-3.576-.13z" mask="url(#p)"/>
        </g>
        <path fill="#D4E4F6" d="M54.562 65.657l16.693.063c.845.003 1.538-.594 1.542-1.327l.014-2.856c.004-.733-.684-1.335-1.529-1.339l-16.692-.062c-.844-.003-1.538.594-1.542 1.327l-.014 2.855c-.004.733.684 1.336 1.528 1.339"/>
        <path fill="#2972C5" d="M71.181 60.217l-16.49-.062c-.89-.003-1.618.623-1.622 1.395l-.013 2.68c-.002.374.165.726.47.993.304.266.708.414 1.138.415l16.49.062c.43.002.835-.143 1.142-.407.308-.264.478-.615.48-.988l.013-2.68c.004-.69-.571-1.268-1.328-1.386a1.862 1.862 0 0 0-.28-.022M53.494 65.25c-.313-.274-.484-.635-.482-1.018l.014-2.68c.003-.795.75-1.437 1.665-1.434l16.49.062c.913.004 1.656.652 1.652 1.446l-.014 2.68c-.001.383-.176.744-.492 1.015-.315.272-.732.42-1.173.419l-16.49-.063c-.098 0-.194-.008-.288-.023a1.742 1.742 0 0 1-.882-.404"/>
        <g transform="translate(56 61)">
            <mask id="r" fill="#fff">
                <use xlink:href="#q"/>
            </mask>
            <path fill="#FFF" d="M-.405 2.893l2.65.16.082-3.785-2.65-.161z" mask="url(#r)"/>
        </g>
        <g transform="translate(55 61)">
            <mask id="t" fill="#fff">
                <use xlink:href="#s"/>
            </mask>
            <path fill="#0067C5" d="M-.333 3.265l3.576.13.13-3.576-3.576-.13z" mask="url(#t)"/>
        </g>
        <path fill="#D4E4F6" d="M54.562 72.749l16.693.063c.845.003 1.538-.594 1.542-1.327l.014-2.856c.004-.733-.684-1.335-1.529-1.338l-16.692-.064c-.844-.002-1.538.594-1.542 1.327l-.014 2.856c-.004.733.684 1.336 1.528 1.339"/>
        <path fill="#2972C5" d="M71.181 67.31l-16.49-.063c-.89-.003-1.618.623-1.622 1.395l-.013 2.68c-.002.374.165.726.47.992.304.267.708.415 1.138.416l16.49.062c.43.002.835-.142 1.142-.407.308-.264.478-.615.48-.988l.013-2.68c.004-.69-.571-1.268-1.328-1.386a1.862 1.862 0 0 0-.28-.022m-17.687 5.032c-.313-.274-.484-.636-.482-1.019l.014-2.68c.003-.794.75-1.437 1.665-1.433l16.49.062c.913.003 1.656.652 1.652 1.446l-.014 2.68c-.001.383-.176.743-.492 1.015-.315.272-.732.42-1.173.419l-16.49-.063c-.098 0-.194-.008-.288-.022a1.745 1.745 0 0 1-.882-.405"/>
        <g transform="translate(56 68)">
            <mask id="v" fill="#fff">
                <use xlink:href="#u"/>
            </mask>
            <path fill="#FFF" d="M-.435 2.3l2.65.12.082-2.84-2.65-.12z" mask="url(#v)"/>
        </g>
        <g transform="translate(55 68)">
            <mask id="x" fill="#fff">
                <use xlink:href="#w"/>
            </mask>
            <path fill="#0067C5" d="M-.357 3.395l3.575.146.13-4.022-3.575-.146z" mask="url(#x)"/>
        </g>
        <g transform="translate(75 32)">
            <mask id="z" fill="#fff">
                <use xlink:href="#y"/>
            </mask>
            <path fill="#FFF" d="M-.814 3.935h3.742V-.82H-.814z" mask="url(#z)"/>
        </g>
        <g transform="translate(23 40)">
            <mask id="B" fill="#fff">
                <use xlink:href="#A"/>
            </mask>
            <path fill="#CCC8C4" d="M-2.265 38.462h42.593V-2.312H-2.265z" mask="url(#B)"/>
        </g>
        <path fill="#6998A5" d="M15.307 78.974h7.961V52.195h-7.96z"/>
        <path fill="#627382" d="M17.582 75.723c0-.951.764-1.722 1.706-1.722s1.706.77 1.706 1.722c0 .95-.764 1.72-1.706 1.72s-1.706-.77-1.706-1.72"/>
        <path fill="#E7E9E9" d="M58.498 49.713l10.653.103a.664.664 0 0 0 .668-.661l.003-.365a.664.664 0 0 0-.655-.674l-10.653-.102a.664.664 0 0 0-.667.66l-.004.365c-.003.37.29.67.655.674M61.484 47.385l5.114.049a.548.548 0 0 0 .55-.546l.004-.3a.55.55 0 0 0-.541-.557l-5.114-.049a.548.548 0 0 0-.55.546l-.003.3a.549.549 0 0 0 .54.557"/>
        <path fill="#9BD0B0" d="M70.135 33.507c0-3.506 2.816-6.349 6.29-6.349 3.475 0 6.292 2.843 6.292 6.35 0 3.505-2.817 6.348-6.291 6.348-3.475 0-6.291-2.843-6.291-6.349"/>
        <g transform="translate(74 31)">
            <mask id="D" fill="#fff">
                <use xlink:href="#C"/>
            </mask>
            <path fill="#3E3832" d="M-.986 6.032h8.879v-6.87h-8.88z" mask="url(#D)"/>
        </g>
    </g>
</svg>
