<svg xmlns="http://www.w3.org/2000/svg" xmlns:xlink="http://www.w3.org/1999/xlink" width="100" height="100" viewBox="0 0 100 100"><defs><circle id="a" cx="50" cy="50" r="50"/><circle id="c" cx="50" cy="50" r="50"/></defs><g fill="none" fill-rule="evenodd"><mask id="b" fill="#fff"><use xlink:href="#a"/></mask><g fill="#99BDCD" mask="url(#b)"><path d="M0 100h100V0H0z"/></g><mask id="d" fill="#fff"><use xlink:href="#c"/></mask><path fill="#CCDEE6" d="M50.972 17.187c5.26 7.666 3.493 18.275-3.947 23.694-7.442 5.419-17.737 3.597-22.997-4.068-5.26-7.666-3.492-18.275 3.949-23.694 7.44-5.419 17.736-3.597 22.995 4.068z" mask="url(#d)"/><path fill="#C52C35" d="M67.437 67.3c-1.67 1.216-3.976.806-5.155-.912L49.679 48.012c-1.18-1.718-.784-4.097.885-5.313 1.668-1.215 3.974-.805 5.154.913L68.32 61.988c1.179 1.718.784 4.097-.884 5.313" mask="url(#d)"/><path fill="#2F3238" d="M29.056 13.347c-6.977 4.933-8.64 14.622-3.71 21.598 4.932 6.976 14.621 8.64 21.598 3.708 6.977-4.932 8.64-14.622 3.71-21.598-4.932-6.976-14.621-8.64-21.598-3.708m19.337 27.356c-8.107 5.73-19.365 3.8-25.097-4.309-5.73-8.107-3.797-19.365 4.31-25.097 8.108-5.731 19.366-3.799 25.098 4.308 5.73 8.108 3.797 19.367-4.31 25.098" mask="url(#d)"/><path fill="#2F3238" d="M52.624 46.295c-1.192.844-2.479 1.075-3.322-.12l-2.817-3.996a2.653 2.653 0 0 1 .633-3.693 2.638 2.638 0 0 1 3.683.634l2.816 3.995c.843 1.196.198 2.335-.993 3.18" mask="url(#d)"/><path fill="#D94C56" d="M51 48.698l11.783 16.781c.39.556 1.15.688 1.7.295a1.234 1.234 0 0 0 .292-1.714L53.5 48c-.935.64-1.815.81-2.5.698" mask="url(#d)"/><path fill="#E7E6E2" d="M78.499 55c1.383 0 2.501.92 2.501 2.057v21.886C81 80.079 79.882 81 78.499 81 77.119 81 76 80.08 76 78.943V57.057C76 55.921 77.12 55 78.499 55M73.5 52C74.88 52 76 53.05 76 54.352v28.296c0 1.3-1.119 2.352-2.5 2.352S71 83.948 71 82.648V54.352C71 53.051 72.119 52 73.5 52m-5-4c1.38 0 2.5 1.038 2.5 2.316v33.37C71 84.965 69.88 86 68.5 86c-1.381 0-2.5-1.035-2.5-2.314v-33.37C66 49.038 67.119 48 68.5 48m-6-4c1.381 0 2.5 1.042 2.5 2.325v22.35C65 69.96 63.881 71 62.5 71S60 69.96 60 68.675v-22.35C60 45.042 61.119 44 62.5 44" mask="url(#d)"/><path fill="#E7E6E2" d="M77.616 85v-2.918c0-.798 1.384-1.464 1.384-1.464l-2.88-23.435H62.535l-2.338 7.696s-.572.177-1.144-.707c-.572-.887-2.288-5.043-2.288-5.043s-2.286-4.906-4.4-4.023c-2.11.884-1.143 4.112-1.143 4.112s1.077 5.09 1.673 7.517c.753 3.07 2.507 6.192 3.96 8.494 1.45 2.297 4.222 5.654 5.19 5.654L62.265 85h15.351z" mask="url(#d)"/><path fill="#0067C5" mask="url(#d)" d="M60 102h21V85H60z"/><path fill="#FFF" mask="url(#d)" d="M60 91h21v-6H60z"/><path fill="#2F3237" d="M79 88.5a1.501 1.501 0 0 0-3 0 1.5 1.5 0 1 0 3 0" mask="url(#d)"/></g></svg>
