<svg xmlns="http://www.w3.org/2000/svg" width="100" height="100"><g fill="none" fill-rule="evenodd" transform="translate(-590 -359)"><rect width="569" height="342" x="355.5" y="409.5" fill="#FFF" stroke="#CCDEE6" stroke-width="3" rx="8"/><g transform="translate(590 359)"><circle cx="50" cy="50" r="50" fill="#CCDEE6"/><path fill="#515658" d="M69.609 22.398H31.507c-1.573 0-2.845 1.284-2.845 2.871v48.488a2.88 2.88 0 0 0 1.038 2.214 2.815 2.815 0 0 0 1.807.656h38.102c1.572 0 2.846-1.286 2.846-2.87V25.269c0-1.587-1.274-2.871-2.846-2.871"/><path fill="#FFF" d="M32.186 32.997v37.305a2.397 2.397 0 0 0 2.388 2.408h31.968a2.397 2.397 0 0 0 2.388-2.408V27.47c0-1.33-1.07-2.408-2.388-2.408H40.497l-8.311 7.935z"/><path fill="#C0C0BE" d="M40.497 25.063v5.524a2.399 2.399 0 0 1-2.387 2.41h-5.924l8.311-7.934z"/><path fill="#2F3237" d="M50.56 23.746a.923.923 0 0 1-.922-.927c0-.514.412-.93.921-.93.507 0 .92.416.92.93a.924.924 0 0 1-.92.927m5.688-3.796h-3.428v-.639a2.27 2.27 0 0 0-2.26-2.279 2.27 2.27 0 0 0-2.262 2.28v.638H44.87c-1.69 0-3.06 1.382-3.06 3.086v3.712h17.497v-3.712c0-1.704-1.371-3.086-3.06-3.086"/><path d="M54.634 49.768v2.898H46.35V35.007h8.284v2.898zM50.601 65.83c2.763 0 5.003-2.257 5.003-5.042 0-2.786-2.24-5.044-5.003-5.044s-5.003 2.258-5.003 5.044c0 2.785 2.24 5.043 5.003 5.043" fill="#515658"/></g></g></svg>