<?xml version="1.0" encoding="UTF-8"?>
<svg width="283px" height="283px" viewBox="0 0 283 283" version="1.1" xmlns="http://www.w3.org/2000/svg" xmlns:xlink="http://www.w3.org/1999/xlink">
    <!-- Generator: Sketch 48.2 (47327) - http://www.bohemiancoding.com/sketch -->
    <title>Artboard</title>
    <desc>Created with Sketch.</desc>
    <defs></defs>
    <g id="Jobbsøkerprofil---Onboarding" stroke="none" stroke-width="1" fill="none" fill-rule="evenodd">
        <g id="Artboard">
            <circle id="Oval-2" fill="#ECEFCC" cx="141.5" cy="141.5" r="141.5"></circle>
            <polygon id="Rectangle-5-Copy" fill="#FFFFFF" points="76 47 162.83824 47 186.533933 67.989743 209 91.5480311 209 225 76 225"></polygon>
            <g id="Group-10-Copy" transform="translate(71.000000, 41.000000)">
                <g id="icon/line/file/-file-new-1" fill="#3E3832">
                    <g id="file-new-1">
                        <path d="M142.690167,49.6755 C142.491556,49.195125 142.197611,48.762 141.832167,48.39975 L94.1734444,1.157625 C93.808,0.795375 93.3710556,0.504 92.8864444,0.307125 C92.4097778,0.11025 91.8933889,0 91.3611111,0 L3.97222222,0 C1.77955556,0 0,1.764 0,3.9375 L0,185.0625 C0,187.236 1.77955556,189 3.97222222,189 L139.027778,189 C141.220444,189 143,187.236 143,185.0625 L143,51.1875 C143,50.659875 142.888778,50.148 142.690167,49.6755 Z M95.3333333,13.442625 L129.438833,47.25 L95.3333333,47.25 L95.3333333,13.442625 Z M7.94444444,181.125 L7.94444444,7.875 L87.3888889,7.875 L87.3888889,51.1875 C87.3888889,53.361 89.1684444,55.125 91.3611111,55.125 L135.055556,55.125 L135.055556,181.125 L7.94444444,181.125 Z" id="Shape" fill-rule="nonzero"></path>
                    </g>
                </g>
                <g id="Check---green---large" transform="translate(32.000000, 71.000000)" fill="#9BD0B0" stroke="#9BD0B0">
                    <g id="Group">
                        <path d="M38.5,77 C17.2712988,77 0,59.7285465 0,38.4996551 C0,17.2707637 17.2712988,0 38.5,0 C44.5095677,0 50.2666673,1.34719821 55.6133338,4.00503471 C56.6142386,4.50307727 57.0219125,5.71852184 56.5231846,6.72150504 C56.0285955,7.72724748 54.8014351,8.12871669 53.8081182,7.63412318 C49.0277803,5.257729 43.8783975,4.05263158 38.5,4.05263158 C19.5055722,4.05263158 4.05259527,19.5050571 4.05259527,38.4996551 C4.05259527,57.4928735 19.5055722,72.9473684 38.5,72.9473684 C57.4923584,72.9473684 72.9474047,57.4928735 72.9474047,38.4996551 C72.9474047,35.9397716 72.6549281,33.3550549 72.0810116,30.8200045 C71.8313027,29.7280358 72.5162776,28.6429653 73.6082364,28.393944 C74.7126118,28.1407839 75.7811173,28.8312833 76.0301363,29.9218723 C76.6757924,32.749402 77,35.6341859 77,38.4996551 C77,59.7285465 59.7287012,77 38.5,77" id="Fill-1" stroke-width="3"></path>
                        <path d="M35.106428,55.9748939 L14.8261379,35.713429 C14.0342573,34.9216207 14.0342573,33.6401051 14.8261379,32.8482968 C15.6187089,32.0571782 16.9021493,32.0571782 17.6940299,32.8482968 L36.3781317,51.5144196 L73.0263308,3.67637393 C73.72777,2.79972898 75.019495,2.66730111 75.8783437,3.36944474 C76.7503099,4.07020891 76.8890789,5.34620666 76.1883301,6.21664405 L38.1193025,55.812118 C37.7589174,56.2597518 37.2238629,56.5321946 36.6494561,56.5639221 C36.0039388,56.5680604 35.4868345,56.3542446 35.106428,55.9748939 Z" id="Fill-4" stroke-width="3"></path>
                    </g>
                </g>
            </g>
        </g>
    </g>
</svg>