<svg width="16" height="16" viewBox="0 0 16 16" xmlns="http://www.w3.org/2000/svg" xmlns:xlink="http://www.w3.org/1999/xlink"><defs><path d="M15.747.145a.666.666 0 0 1 .109.936l-9 11.334a.667.667 0 0 1-.994.056L2.529 9.137a.665.665 0 1 1 .942-.942L6.276 11 14.811.252a.665.665 0 0 1 .936-.107zm-3.38 7.202a.665.665 0 0 1 .798.5A6.674 6.674 0 0 1 6.666 16 6.674 6.674 0 0 1 0 9.333a6.674 6.674 0 0 1 6.667-6.666c1.04 0 2.036.233 2.963.694a.666.666 0 1 1-.593 1.193 5.34 5.34 0 0 0-7.703 4.78 5.34 5.34 0 0 0 5.333 5.333 5.34 5.34 0 0 0 5.198-6.522.667.667 0 0 1 .502-.798z" id="a"/></defs><g fill="none" fill-rule="evenodd"><mask id="b" fill="#fff"><use xlink:href="#a"/></mask><use fill="#000" fill-rule="nonzero" xlink:href="#a"/><g mask="url(#b)" fill="#000"><path d="M0 16h16V0H0z"/></g></g></svg>
